<svg width="30" height="30" viewBox="0 0 30 30" fill="none" xmlns="http://www.w3.org/2000/svg">
  <g clip-path="url(#clip0_142_3955)">
    <path
      d="M7.98577 26.3583H5.91406C4.4601 26.3583 3.27734 25.1755 3.27734 23.7215V14.7002C3.27734 13.2462 4.4601 12.0635 5.91406 12.0635H7.98577C9.43973 12.0635 10.6225 13.2462 10.6225 14.7002V23.7215C10.6225 25.1755 9.43973 26.3583 7.98577 26.3583ZM5.91783 13.5702C5.29632 13.5702 4.78781 14.0787 4.78781 14.7002V23.7215C4.78781 24.3431 5.29632 24.8516 5.91783 24.8516H7.98954C8.61105 24.8516 9.11956 24.3431 9.11956 23.7215V14.7002C9.11956 14.0787 8.61105 13.5702 7.98954 13.5702H5.91783Z"
      fill="#2562FF" />
    <path
      d="M27.1576 2.18066H25.0859C24.4644 2.18066 23.9559 2.68917 23.9559 3.31069V23.7227C23.9559 24.3442 24.4644 24.8527 25.0859 24.8527H27.1576C27.7792 24.8527 28.2877 24.3442 28.2877 23.7227V3.31069C28.2877 2.68917 27.7792 2.18066 27.1576 2.18066ZM17.5713 6.81376H15.4996C14.8781 6.81376 14.3696 7.32227 14.3696 7.94378V23.7227C14.3696 24.3442 14.8781 24.8527 15.4996 24.8527H17.5713C18.1928 24.8527 18.7013 24.3442 18.7013 23.7227V7.94378C18.7013 7.32227 18.1928 6.81376 17.5713 6.81376ZM7.98493 13.5562H5.91322C5.29171 13.5562 4.7832 14.0647 4.7832 14.6862V23.7227C4.7832 24.3442 5.29171 24.8527 5.91322 24.8527H7.98493C8.60644 24.8527 9.11495 24.3442 9.11495 23.7227V14.6862C9.11495 14.0647 8.61021 13.5562 7.98493 13.5562Z"
      fill="#F9FBFF" />
    <path
      d="M27.1579 0.673828H25.0862C23.6323 0.673828 22.4495 1.85659 22.4495 3.31055V11.1416C21.7602 10.8177 21.0031 10.6067 20.2083 10.5389V7.94741C20.2083 6.49344 19.0255 5.31069 17.5716 5.31069H15.4999C14.0459 5.31069 12.8631 6.49344 12.8631 7.94741V23.7263C12.8631 25.1802 14.0459 26.363 15.4999 26.363H17.5716C19.0105 26.363 20.1819 25.2066 20.2083 23.7753C21.0031 23.7075 21.7602 23.4965 22.4495 23.1726V23.7263C22.4495 25.1802 23.6323 26.363 25.0862 26.363H27.1579C28.6119 26.363 29.7946 25.1802 29.7946 23.7263V3.31055C29.7946 1.85659 28.6081 0.673828 27.1579 0.673828ZM23.9562 14.3848C24.4685 15.1833 24.766 16.1325 24.766 17.1533C24.766 18.1703 24.4685 19.1196 23.9562 19.9219V14.3848ZM14.4941 17.1533C14.4941 14.6371 16.3097 12.5391 18.7016 12.1021V22.2045C16.3097 21.7676 14.4941 19.6695 14.4941 17.1533ZM15.4999 6.81362H17.5716C18.1931 6.81362 18.7016 7.32213 18.7016 7.94364V10.5766C16.9463 10.8252 15.4095 11.7593 14.3698 13.1003V7.94364C14.3698 7.32213 14.8783 6.81362 15.4999 6.81362ZM17.5716 24.8525H15.4999C14.8783 24.8525 14.3698 24.344 14.3698 23.7225V21.2063C15.4057 22.5473 16.9425 23.4852 18.7016 23.7301C18.6978 24.3516 18.1931 24.8525 17.5716 24.8525ZM20.2083 22.2573V12.0494C21.0294 12.1398 21.7903 12.4261 22.4495 12.863V21.4474C21.7903 21.8806 21.0294 22.1669 20.2083 22.2573ZM23.9562 23.7225V23.0859L25.7115 24.8525H25.0862C24.4609 24.8525 23.9562 24.3478 23.9562 23.7225ZM28.2879 23.7225C28.2879 24.1482 28.0506 24.5211 27.7003 24.7132L24.5815 21.5792C25.6324 20.404 26.2727 18.8521 26.2727 17.1533C26.2727 15.1419 25.3725 13.3338 23.9562 12.1172V3.31055C23.9562 2.68903 24.4647 2.18052 25.0862 2.18052H27.1579C27.7794 2.18052 28.2879 2.68903 28.2879 3.31055V23.7225ZM29.32 28.6833H28.9434C28.7362 28.6833 28.5667 28.5138 28.5667 28.3066C28.5667 28.0995 28.7362 27.93 28.9434 27.93H29.32C29.5272 27.93 29.6967 28.0995 29.6967 28.3066C29.6967 28.5138 29.531 28.6833 29.32 28.6833ZM27.4367 28.6833H27.06C26.8528 28.6833 26.6833 28.5138 26.6833 28.3066C26.6833 28.0995 26.8528 27.93 27.06 27.93H27.4367C27.6438 27.93 27.8133 28.0995 27.8133 28.3066C27.8133 28.5138 27.6476 28.6833 27.4367 28.6833ZM25.5533 28.6833H25.1766C24.9694 28.6833 24.7999 28.5138 24.7999 28.3066C24.7999 28.0995 24.9694 27.93 25.1766 27.93H25.5533C25.7605 27.93 25.93 28.0995 25.93 28.3066C25.93 28.5138 25.7642 28.6833 25.5533 28.6833ZM23.6699 28.6833H23.2932C23.0861 28.6833 22.9166 28.5138 22.9166 28.3066C22.9166 28.0995 23.0861 27.93 23.2932 27.93H23.6699C23.8771 27.93 24.0466 28.0995 24.0466 28.3066C24.0466 28.5138 23.8809 28.6833 23.6699 28.6833ZM21.7866 28.6833H21.4099C21.2027 28.6833 21.0332 28.5138 21.0332 28.3066C21.0332 28.0995 21.2027 27.93 21.4099 27.93H21.7866C21.9937 27.93 22.1632 28.0995 22.1632 28.3066C22.1632 28.5138 21.9975 28.6833 21.7866 28.6833ZM19.9032 28.6833H19.5265C19.3193 28.6833 19.1498 28.5138 19.1498 28.3066C19.1498 28.0995 19.3193 27.93 19.5265 27.93H19.9032C20.1104 27.93 20.2799 28.0995 20.2799 28.3066C20.2799 28.5138 20.1141 28.6833 19.9032 28.6833ZM18.0198 28.6833H17.6431C17.436 28.6833 17.2665 28.5138 17.2665 28.3066C17.2665 28.0995 17.436 27.93 17.6431 27.93H18.0198C18.227 27.93 18.3965 28.0995 18.3965 28.3066C18.3965 28.5138 18.2307 28.6833 18.0198 28.6833ZM16.1364 28.6833H15.7598C15.5526 28.6833 15.3831 28.5138 15.3831 28.3066C15.3831 28.0995 15.5526 27.93 15.7598 27.93H16.1364C16.3436 27.93 16.5131 28.0995 16.5131 28.3066C16.5131 28.5138 16.3474 28.6833 16.1364 28.6833ZM14.2531 28.6833H13.8764C13.6692 28.6833 13.4997 28.5138 13.4997 28.3066C13.4997 28.0995 13.6692 27.93 13.8764 27.93H14.2531C14.4602 27.93 14.6297 28.0995 14.6297 28.3066C14.6297 28.5138 14.464 28.6833 14.2531 28.6833ZM12.3697 28.6833H11.993C11.7859 28.6833 11.6164 28.5138 11.6164 28.3066C11.6164 28.0995 11.7859 27.93 11.993 27.93H12.3697C12.5769 27.93 12.7464 28.0995 12.7464 28.3066C12.7464 28.5138 12.5806 28.6833 12.3697 28.6833ZM10.4863 28.6833H10.1097C9.90248 28.6833 9.73298 28.5138 9.73298 28.3066C9.73298 28.0995 9.90248 27.93 10.1097 27.93H10.4863C10.6935 27.93 10.863 28.0995 10.863 28.3066C10.863 28.5138 10.6973 28.6833 10.4863 28.6833ZM8.60296 28.6833H8.22628C8.01911 28.6833 7.84961 28.5138 7.84961 28.3066C7.84961 28.0995 8.01911 27.93 8.22628 27.93H8.60296C8.81013 27.93 8.97963 28.0995 8.97963 28.3066C8.97963 28.5138 8.8139 28.6833 8.60296 28.6833ZM6.71959 28.6833H6.34291C6.13574 28.6833 5.96624 28.5138 5.96624 28.3066C5.96624 28.0995 6.13574 27.93 6.34291 27.93H6.71959C6.92676 27.93 7.09626 28.0995 7.09626 28.3066C7.09626 28.5138 6.93052 28.6833 6.71959 28.6833ZM4.83622 28.6833H4.45954C4.25237 28.6833 4.08287 28.5138 4.08287 28.3066C4.08287 28.0995 4.25237 27.93 4.45954 27.93H4.83622C5.04339 27.93 5.21289 28.0995 5.21289 28.3066C5.21289 28.5138 5.04715 28.6833 4.83622 28.6833ZM2.95285 28.6833H2.57617C2.369 28.6833 2.1995 28.5138 2.1995 28.3066C2.1995 28.0995 2.369 27.93 2.57617 27.93H2.95285C3.16002 27.93 3.32952 28.0995 3.32952 28.3066C3.32952 28.5138 3.16378 28.6833 2.95285 28.6833ZM1.06948 28.6833H0.692801C0.48563 28.6833 0.316127 28.5138 0.316127 28.3066C0.316127 28.0995 0.48563 27.93 0.692801 27.93H1.06948C1.27665 27.93 1.44615 28.0995 1.44615 28.3066C1.44615 28.5138 1.28041 28.6833 1.06948 28.6833ZM0.527065 27.3424C0.319894 27.3424 0.150391 27.1729 0.150391 26.9657V26.589C0.150391 26.3818 0.319894 26.2123 0.527065 26.2123C0.734235 26.2123 0.903739 26.3818 0.903739 26.589V26.9657C0.903739 27.1729 0.734235 27.3424 0.527065 27.3424ZM0.527065 25.459C0.319894 25.459 0.150391 25.2895 0.150391 25.0823V24.7056C0.150391 24.4985 0.319894 24.329 0.527065 24.329C0.734235 24.329 0.903739 24.4985 0.903739 24.7056V25.0823C0.903739 25.2895 0.734235 25.459 0.527065 25.459ZM0.527065 23.5756C0.319894 23.5756 0.150391 23.4061 0.150391 23.1989V22.8223C0.150391 22.6151 0.319894 22.4456 0.527065 22.4456C0.734235 22.4456 0.903739 22.6151 0.903739 22.8223V23.1989C0.903739 23.4061 0.734235 23.5756 0.527065 23.5756ZM0.527065 21.6922C0.319894 21.6922 0.150391 21.5227 0.150391 21.3156V20.9389C0.150391 20.7317 0.319894 20.5622 0.527065 20.5622C0.734235 20.5622 0.903739 20.7317 0.903739 20.9389V21.3156C0.903739 21.5227 0.734235 21.6922 0.527065 21.6922ZM0.527065 19.8089C0.319894 19.8089 0.150391 19.6394 0.150391 19.4322V19.0555C0.150391 18.8484 0.319894 18.6789 0.527065 18.6789C0.734235 18.6789 0.903739 18.8484 0.903739 19.0555V19.4322C0.903739 19.6394 0.734235 19.8089 0.527065 19.8089ZM0.527065 17.9255C0.319894 17.9255 0.150391 17.756 0.150391 17.5488V17.1722C0.150391 16.965 0.319894 16.7955 0.527065 16.7955C0.734235 16.7955 0.903739 16.965 0.903739 17.1722V17.5488C0.903739 17.756 0.734235 17.9255 0.527065 17.9255ZM0.527065 16.0421C0.319894 16.0421 0.150391 15.8726 0.150391 15.6655V15.2888C0.150391 15.0816 0.319894 14.9121 0.527065 14.9121C0.734235 14.9121 0.903739 15.0816 0.903739 15.2888V15.6655C0.903739 15.8726 0.734235 16.0421 0.527065 16.0421ZM0.527065 14.1588C0.319894 14.1588 0.150391 13.9893 0.150391 13.7821V13.4054C0.150391 13.1982 0.319894 13.0287 0.527065 13.0287C0.734235 13.0287 0.903739 13.1982 0.903739 13.4054V13.7821C0.903739 13.9893 0.734235 14.1588 0.527065 14.1588ZM0.527065 12.2754C0.319894 12.2754 0.150391 12.1059 0.150391 11.8987V11.522C0.150391 11.3149 0.319894 11.1454 0.527065 11.1454C0.734235 11.1454 0.903739 11.3149 0.903739 11.522V11.8987C0.903739 12.1059 0.734235 12.2754 0.527065 12.2754ZM0.527065 10.392C0.319894 10.392 0.150391 10.2225 0.150391 10.0153V9.63867C0.150391 9.4315 0.319894 9.262 0.527065 9.262C0.734235 9.262 0.903739 9.4315 0.903739 9.63867V10.0153C0.903739 10.2225 0.734235 10.392 0.527065 10.392ZM0.527065 8.50865C0.319894 8.50865 0.150391 8.33915 0.150391 8.13198V7.7553C0.150391 7.54813 0.319894 7.37863 0.527065 7.37863C0.734235 7.37863 0.903739 7.54813 0.903739 7.7553V8.13198C0.903739 8.33915 0.734235 8.50865 0.527065 8.50865ZM0.527065 6.62528C0.319894 6.62528 0.150391 6.45578 0.150391 6.24861V5.87193C0.150391 5.66476 0.319894 5.49526 0.527065 5.49526C0.734235 5.49526 0.903739 5.66476 0.903739 5.87193V6.24861C0.903739 6.45578 0.734235 6.62528 0.527065 6.62528ZM0.527065 4.74191C0.319894 4.74191 0.150391 4.57241 0.150391 4.36523V3.98856C0.150391 3.78139 0.319894 3.61189 0.527065 3.61189C0.734235 3.61189 0.903739 3.78139 0.903739 3.98856V4.36523C0.903739 4.57241 0.734235 4.74191 0.527065 4.74191Z"
      fill="#2562FF" />
    <path
      d="M19.63 12.0195C16.7974 12.0195 14.4922 14.3248 14.4922 17.1574C14.4922 19.99 16.7974 22.2914 19.63 22.2914C22.4626 22.2914 24.7679 19.9862 24.7679 17.1536C24.7679 14.321 22.4626 12.0195 19.63 12.0195Z"
      fill="white" />
    <path
      d="M19.629 12.8779C19.1017 12.8779 18.5819 12.9721 18.0922 13.1604C17.8963 13.2358 17.8021 13.4542 17.8775 13.6463C17.9528 13.8422 18.1713 13.9364 18.3634 13.861C18.7664 13.7066 19.1921 13.6275 19.629 13.6275C21.5726 13.6275 23.1509 15.2095 23.1509 17.1494C23.1509 17.8915 22.9211 18.5996 22.4917 19.2023C22.326 19.4358 22.1301 19.6468 21.9079 19.8351C21.7497 19.9707 21.7308 20.208 21.8665 20.3662C21.9418 20.4528 22.0473 20.498 22.1527 20.498C22.2394 20.498 22.326 20.4679 22.3976 20.4076C22.6612 20.1816 22.9023 19.9255 23.1057 19.6392C23.6293 18.9085 23.908 18.0497 23.908 17.1456C23.9043 14.7952 21.987 12.8779 19.629 12.8779Z"
      fill="#BCD4FF" />
  </g>
  <defs>
    <clipPath id="clip0_142_3955">
      <rect width="30" height="28.9286" fill="white" transform="translate(0 0.307617)" />
    </clipPath>
  </defs>
</svg>
  