<svg width="35" height="35" viewBox="0 0 35 35" fill="none" xmlns="http://www.w3.org/2000/svg">
<path d="M17.5 13.8644C18.3047 13.8643 19.0995 14.041 19.8284 14.3819C20.5572 14.7228 21.2023 15.2197 21.718 15.8374L22.4576 15.3141C21.5423 14.1946 20.2751 13.4178 18.8621 13.1101C17.4492 12.8023 15.9736 12.9819 14.6757 13.6195C13.3778 14.257 12.3338 15.3151 11.7137 16.6215C11.0936 17.9278 10.9339 19.4056 11.2605 20.8143C11.5871 22.223 12.3809 23.4797 13.5126 24.3799C14.6443 25.2801 16.0474 25.7708 17.4935 25.7721C18.9395 25.7735 20.3435 25.2854 21.4769 24.3873C22.6103 23.4891 23.4063 22.2339 23.7355 20.8258L22.4754 21.7185C22.0545 22.6094 21.4022 23.3709 20.5866 23.9236C19.771 24.4763 18.8219 24.7999 17.8385 24.8606C16.8551 24.9213 15.8735 24.7169 14.9961 24.2687C14.1186 23.8206 13.3776 23.1451 12.8504 22.3128C12.3231 21.4804 12.029 20.5219 11.9987 19.5371C11.9684 18.5523 12.203 17.5774 12.678 16.7142C13.1531 15.8511 13.8512 15.1313 14.6994 14.63C15.5476 14.1287 16.5148 13.8643 17.5 13.8644Z" fill="#316BFF"/>
<path d="M18.7079 19.0602C18.6898 19.0343 18.6722 19.008 18.6553 18.9814L16.8919 16.5937C16.7795 16.4345 16.6307 16.3046 16.4578 16.2148C16.285 16.125 16.0931 16.0779 15.8983 16.0774C15.6412 16.0771 15.3907 16.1592 15.1837 16.3116L14.4026 16.8825C14.1409 17.0769 13.9657 17.3661 13.9148 17.6881C13.8639 18.0101 13.9412 18.3393 14.1302 18.6049C14.152 18.6351 16.3418 21.6138 17.2983 22.9715C17.3962 23.1102 17.526 23.2233 17.6768 23.3015C17.8275 23.3796 17.9949 23.4204 18.1647 23.4204C18.3965 23.4186 18.6222 23.3446 18.8102 23.2088C21.2665 21.4736 31.3992 14.2929 31.4048 14.289C31.6658 14.0957 31.8408 13.8079 31.8926 13.4873C31.9444 13.1666 31.8688 12.8384 31.6819 12.5727L31.1198 11.7786C31.0075 11.6195 30.8587 11.4896 30.6858 11.3997C30.513 11.3099 30.3212 11.2628 30.1264 11.2624C29.8716 11.2617 29.6232 11.3422 29.4172 11.4922L18.9864 18.874C18.8975 18.9417 18.8045 19.0039 18.7079 19.0602ZM29.9427 12.2237C30.0112 12.1753 30.0962 12.156 30.179 12.17C30.2618 12.1841 30.3357 12.2303 30.3844 12.2987L30.9468 13.0928C30.9979 13.1642 31.0193 13.2525 31.0065 13.3393C30.9938 13.426 30.948 13.5045 30.8786 13.5582C30.8786 13.5582 20.7469 20.7382 18.2905 22.4732C18.2544 22.5013 18.2106 22.5176 18.1649 22.5198C18.1394 22.5195 18.1144 22.5133 18.0918 22.5016C18.0692 22.49 18.0496 22.4733 18.0345 22.4527C17.0731 21.0879 14.8779 18.1015 14.8604 18.0783C14.809 18.006 14.788 17.9165 14.8018 17.8289C14.8156 17.7413 14.8631 17.6626 14.9342 17.6095L15.7155 17.0383C15.7684 16.9992 15.8325 16.9781 15.8983 16.978C15.9507 16.9784 16.0021 16.9917 16.0481 17.0166C16.0941 17.0416 16.1333 17.0775 16.1622 17.1212L17.9035 19.4774C18.0022 19.6414 18.1259 19.7891 18.27 19.9151C18.3677 19.9873 18.4863 20.0257 18.6077 20.0243C18.9056 20.0243 19.2764 19.7872 19.521 19.5987L29.9427 12.2237ZM32.1115 3.60683C32.2451 3.61143 32.3769 3.57633 32.4905 3.50597C32.6041 3.43561 32.6942 3.33316 32.7496 3.21156C32.8049 3.08997 32.8229 2.95469 32.8014 2.82285C32.7798 2.691 32.7197 2.5685 32.6285 2.47085C32.5373 2.37319 32.4193 2.30477 32.2892 2.27422C32.1592 2.24368 32.023 2.25239 31.8978 2.29925C31.7727 2.34611 31.6643 2.42902 31.5864 2.53749C31.5084 2.64596 31.4643 2.77512 31.4597 2.90864C31.4538 3.08761 31.5191 3.26163 31.6413 3.39252C31.7634 3.52342 31.9326 3.60049 32.1115 3.60683ZM32.1464 2.59433C32.2132 2.59664 32.2778 2.6187 32.332 2.65771C32.3862 2.69672 32.4276 2.75094 32.4511 2.8135C32.4745 2.87606 32.4788 2.94416 32.4635 3.00918C32.4482 3.0742 32.414 3.13323 32.3651 3.1788C32.3163 3.22436 32.255 3.25442 32.1891 3.26518C32.1232 3.27593 32.0555 3.26689 31.9948 3.2392C31.934 3.21151 31.8828 3.16642 31.8476 3.10962C31.8124 3.05283 31.7949 2.98688 31.7972 2.92012C31.8004 2.83068 31.8389 2.74614 31.9043 2.68506C31.9698 2.62398 32.0568 2.59136 32.1462 2.59433H32.1464ZM15.0234 2.25638C15.157 2.25638 15.2876 2.21677 15.3986 2.14255C15.5097 2.06833 15.5963 1.96284 15.6474 1.83942C15.6985 1.716 15.7119 1.58019 15.6858 1.44916C15.6598 1.31814 15.5954 1.19778 15.501 1.10332C15.4065 1.00886 15.2862 0.944528 15.1551 0.918466C15.0241 0.892404 14.8883 0.90578 14.7649 0.956903C14.6415 1.00803 14.536 1.0946 14.4618 1.20568C14.3875 1.31675 14.3479 1.44734 14.3479 1.58094C14.3481 1.76002 14.4193 1.93172 14.546 2.05835C14.6726 2.18498 14.8443 2.2562 15.0234 2.25638ZM15.0234 1.24321C15.0902 1.24321 15.1555 1.26302 15.211 1.30013C15.2665 1.33724 15.3098 1.38998 15.3354 1.45169C15.3609 1.51341 15.3676 1.58131 15.3546 1.64682C15.3416 1.71233 15.3094 1.77251 15.2622 1.81974C15.2149 1.86697 15.1548 1.89914 15.0893 1.91217C15.0237 1.9252 14.9558 1.91851 14.8941 1.89295C14.8324 1.86739 14.7797 1.8241 14.7426 1.76857C14.7055 1.71303 14.6856 1.64773 14.6856 1.58094C14.6857 1.49138 14.7213 1.40552 14.7846 1.34219C14.8479 1.27887 14.9338 1.24327 15.0234 1.24321ZM34.1611 12.8384C34.1611 12.7493 34.1347 12.6623 34.0852 12.5882C34.0357 12.5142 33.9654 12.4565 33.8831 12.4224C33.8008 12.3883 33.7103 12.3794 33.6229 12.3968C33.5356 12.4141 33.4553 12.457 33.3924 12.52C33.3294 12.583 33.2865 12.6632 33.2691 12.7506C33.2517 12.8379 33.2607 12.9284 33.2947 13.0107C33.3288 13.093 33.3865 13.1633 33.4606 13.2128C33.5346 13.2623 33.6217 13.2887 33.7108 13.2887C33.8302 13.2886 33.9446 13.2411 34.029 13.1567C34.1135 13.0723 34.1609 12.9578 34.1611 12.8384ZM33.4856 12.8384C33.4856 12.7939 33.4988 12.7503 33.5236 12.7133C33.5483 12.6763 33.5835 12.6474 33.6246 12.6304C33.6657 12.6134 33.711 12.6089 33.7547 12.6176C33.7984 12.6263 33.8385 12.6477 33.87 12.6792C33.9015 12.7107 33.9229 12.7508 33.9316 12.7945C33.9403 12.8382 33.9358 12.8834 33.9188 12.9246C33.9017 12.9657 33.8729 13.0009 33.8359 13.0256C33.7988 13.0504 33.7553 13.0636 33.7108 13.0636C33.6511 13.0635 33.5938 13.0398 33.5516 12.9975C33.5094 12.9553 33.4857 12.8981 33.4856 12.8384ZM23.3539 4.95818C23.443 4.95818 23.53 4.93177 23.6041 4.88229C23.6781 4.83281 23.7358 4.76248 23.7699 4.6802C23.804 4.59792 23.8129 4.50738 23.7955 4.42003C23.7782 4.33268 23.7353 4.25244 23.6723 4.18947C23.6093 4.12649 23.5291 4.08361 23.4417 4.06623C23.3544 4.04886 23.2639 4.05777 23.1816 4.09186C23.0993 4.12594 23.029 4.18365 22.9795 4.2577C22.93 4.33176 22.9036 4.41882 22.9036 4.50788C22.9037 4.62727 22.9512 4.74173 23.0356 4.82616C23.12 4.91058 23.2345 4.95806 23.3539 4.95818ZM23.3539 4.28273C23.3984 4.28273 23.442 4.29593 23.479 4.32067C23.516 4.34541 23.5449 4.38058 23.5619 4.42172C23.5789 4.46286 23.5834 4.50813 23.5747 4.5518C23.566 4.59548 23.5446 4.6356 23.5131 4.66708C23.4816 4.69857 23.4415 4.72001 23.3978 4.7287C23.3541 4.73739 23.3089 4.73293 23.2677 4.71589C23.2266 4.69885 23.1914 4.66999 23.1667 4.63296C23.142 4.59594 23.1287 4.55241 23.1287 4.50788C23.1288 4.44818 23.1525 4.39095 23.1948 4.34874C23.237 4.30653 23.2942 4.28279 23.3539 4.28273ZM9.39463 7.20967C9.4837 7.20967 9.57076 7.18326 9.64481 7.13378C9.71886 7.0843 9.77657 7.01398 9.81066 6.93169C9.84474 6.84941 9.85366 6.75887 9.83628 6.67152C9.81891 6.58417 9.77602 6.50394 9.71304 6.44096C9.65007 6.37799 9.56983 6.3351 9.48248 6.31773C9.39513 6.30035 9.30459 6.30927 9.22231 6.34335C9.14003 6.37743 9.0697 6.43515 9.02022 6.5092C8.97075 6.58325 8.94434 6.67031 8.94434 6.75937C8.94446 6.87876 8.99194 6.99323 9.07636 7.07765C9.16078 7.16207 9.27524 7.20955 9.39463 7.20967ZM9.39463 6.53422C9.43917 6.53422 9.4827 6.54743 9.51972 6.57217C9.55675 6.59691 9.5856 6.63207 9.60265 6.67321C9.61969 6.71435 9.62415 6.75962 9.61546 6.8033C9.60677 6.84697 9.58533 6.88709 9.55384 6.91858C9.52235 6.95006 9.48223 6.97151 9.43856 6.9802C9.39488 6.98888 9.34961 6.98442 9.30847 6.96738C9.26733 6.95034 9.23217 6.92148 9.20743 6.88446C9.18269 6.84743 9.16949 6.8039 9.16949 6.75937C9.16954 6.69968 9.19329 6.64244 9.2355 6.60023C9.27771 6.55802 9.33494 6.53428 9.39463 6.53422Z" fill="#316BFF"/>
<path d="M1.06422 32.8767H0.388775C0.269349 32.8767 0.154813 32.9242 0.070366 33.0086C-0.0140814 33.093 -0.0615234 33.2076 -0.0615234 33.327C-0.0615234 33.4464 -0.0140814 33.561 0.070366 33.6454C0.154813 33.7299 0.269349 33.7773 0.388775 33.7773H1.06422C1.18365 33.7773 1.29819 33.7299 1.38263 33.6454C1.46708 33.561 1.51452 33.4464 1.51452 33.327C1.51452 33.2076 1.46708 33.093 1.38263 33.0086C1.29819 32.9242 1.18365 32.8767 1.06422 32.8767ZM34.6115 32.8767H33.936C33.8166 32.8767 33.7021 32.9242 33.6176 33.0086C33.5332 33.093 33.4857 33.2076 33.4857 33.327C33.4857 33.4464 33.5332 33.561 33.6176 33.6454C33.7021 33.7299 33.8166 33.7773 33.936 33.7773H34.6115C34.7309 33.7773 34.8454 33.7299 34.9299 33.6454C35.0143 33.561 35.0618 33.4464 35.0618 33.327C35.0618 33.2076 35.0143 33.093 34.9299 33.0086C34.8454 32.9242 34.7309 32.8767 34.6115 32.8767Z" fill="#316BFF"/>
<path d="M32.5222 32.8767H19.7891C19.863 32.7124 19.9015 32.5345 19.9019 32.3543V30.3149C21.1951 30.0319 22.4276 29.5207 23.5414 28.8053L24.9851 30.2485C25.1107 30.3724 25.2597 30.4701 25.4234 30.5358C25.5871 30.6016 25.7622 30.6341 25.9386 30.6315C26.3852 30.625 26.8111 30.4422 27.1236 30.1231L28.2552 28.9913C28.8804 28.3649 28.9374 27.408 28.3812 26.8526L26.938 25.4094C27.6533 24.2953 28.1644 23.0627 28.4472 21.7694H30.4864C31.2726 21.7694 31.9096 21.0525 31.9096 20.1681V18.5684C31.9096 17.6832 31.2724 16.9661 30.4864 16.9661H29.1844L27.9134 17.8667H30.4864C30.7694 17.8667 31.009 18.1882 31.009 18.5684V20.1684C31.009 20.5482 30.7694 20.869 30.4864 20.869H27.7218L27.5673 21.5778C27.3077 22.7669 26.8377 23.9 26.1795 24.9237L25.7884 25.5339L26.3011 26.0466L27.7447 27.4902C27.7882 27.5372 27.8212 27.5929 27.8414 27.6536C27.8617 27.7143 27.8687 27.7787 27.862 27.8423C27.845 28.0369 27.7585 28.2189 27.6182 28.3548L26.4875 29.4859C26.3436 29.6364 26.1465 29.7245 25.9384 29.7313C25.8803 29.7333 25.8225 29.7238 25.7681 29.7033C25.7138 29.6827 25.6641 29.6516 25.6218 29.6118L24.1782 28.1686L23.6657 27.6564L23.0556 28.0475C22.0318 28.7055 20.8988 29.1754 19.7098 29.4351L19.0013 29.5897V32.3546C19.0013 32.6376 18.6802 32.8769 18.3002 32.8769H16.7C16.32 32.8769 15.9989 32.6376 15.9989 32.3546V29.5895L15.2902 29.4348C14.1012 29.1752 12.9681 28.7053 11.9444 28.0472L11.3343 27.6561L10.8218 28.1686L9.37773 29.6125C9.33544 29.6521 9.28575 29.6829 9.2315 29.7032C9.17725 29.7235 9.11952 29.733 9.06163 29.7309C8.85394 29.7242 8.65714 29.6364 8.51339 29.4864L7.38224 28.3548C7.24178 28.2189 7.15504 28.037 7.13795 27.8423C7.13139 27.7785 7.13854 27.714 7.15893 27.6532C7.17931 27.5923 7.21246 27.5365 7.25615 27.4895L8.69936 26.0463L9.21157 25.5339L8.82071 24.9237C8.16253 23.8999 7.69254 22.7667 7.43289 21.5776L7.27844 20.869H4.51338C4.23014 20.869 3.99081 20.548 3.99081 20.1681V18.5684C3.99081 18.1879 4.23014 17.8667 4.51361 17.8667H7.27822L7.43267 17.1581C7.69226 15.9692 8.16225 14.8362 8.82049 13.8126L9.21157 13.2025L8.69913 12.6898L7.25503 11.2457C7.21552 11.2035 7.18471 11.154 7.16439 11.0999C7.14407 11.0458 7.13462 10.9882 7.1366 10.9305C7.14315 10.7226 7.23112 10.5256 7.38156 10.382L8.51271 9.25041C8.65652 9.09976 8.85369 9.01156 9.06185 9.00477C9.11984 9.00279 9.17766 9.01232 9.23195 9.0328C9.28625 9.05328 9.33595 9.08431 9.37818 9.1241L10.8214 10.5673L11.3341 11.0795L11.9442 10.6884C12.9679 10.0304 14.1009 9.56067 15.2899 9.30152L15.9987 9.14729V6.3811C15.9987 6.09787 16.3198 5.85876 16.6998 5.85876H18.3C18.68 5.85876 19.0011 6.09787 19.0011 6.3811V9.14706L19.7098 9.30129C20.8987 9.56053 22.0317 10.0302 23.0553 10.6882L23.6655 11.0793L24.1779 10.5671L25.6225 9.12297C25.6646 9.08343 25.7142 9.05261 25.7683 9.03229C25.8224 9.01196 25.8799 9.00253 25.9377 9.00455C26.1456 9.01131 26.3426 9.09934 26.4864 9.24973L27.618 10.382C27.7582 10.5176 27.8448 10.6992 27.8618 10.8935C27.8685 10.9574 27.8614 11.0218 27.8411 11.0827C27.8208 11.1435 27.7877 11.1993 27.7441 11.2464L26.6273 12.3633L28.7613 10.853C28.7351 10.4339 28.5546 10.0393 28.2547 9.74529L27.1233 8.61301C26.8108 8.29342 26.3846 8.11041 25.9377 8.10395C25.7614 8.1014 25.5864 8.13394 25.4228 8.19969C25.2592 8.26544 25.1103 8.36308 24.9849 8.48693L23.5412 9.93013C22.4274 9.21486 21.1949 8.70402 19.9017 8.42163V6.3811C19.9017 5.59533 19.1846 4.95816 18.3 4.95816H16.6998C15.815 4.95816 15.0981 5.59533 15.0981 6.3811V8.42141C13.8048 8.70377 12.5722 9.21461 11.4583 9.92991L10.0151 8.4867C9.88956 8.36286 9.74061 8.26525 9.57695 8.19954C9.41329 8.13382 9.23819 8.10133 9.06185 8.10395C8.61492 8.11039 8.18868 8.2934 7.87621 8.61301L6.74461 9.74506C6.11937 10.3705 6.06241 11.3279 6.61898 11.8831L8.06219 13.3263C7.34679 14.4401 6.83567 15.6726 6.55278 16.9658H4.51361C3.72716 16.9658 3.09021 17.6829 3.09021 18.5682V20.1681C3.09021 21.0525 3.72739 21.7694 4.51361 21.7694H6.55278C6.83575 23.0627 7.34687 24.2953 8.06219 25.4094L6.61898 26.8526C6.06241 27.408 6.11937 28.3649 6.74461 28.9913L7.87621 30.1231C8.18874 30.4423 8.61474 30.625 9.0614 30.6315C9.23778 30.6341 9.41291 30.6016 9.57661 30.5359C9.74031 30.4702 9.8893 30.3726 10.0149 30.2487L11.4583 28.8055C12.5723 29.5209 13.8048 30.032 15.0981 30.3149V32.3543C15.0985 32.5344 15.137 32.7124 15.2109 32.8767H2.47781C2.41375 32.8683 2.34864 32.8737 2.28683 32.8925C2.22502 32.9113 2.16793 32.9431 2.11938 32.9857C2.07083 33.0283 2.03193 33.0808 2.00528 33.1397C1.97863 33.1985 1.96484 33.2624 1.96484 33.327C1.96484 33.3916 1.97863 33.4555 2.00528 33.5143C2.03193 33.5732 2.07083 33.6256 2.11938 33.6683C2.16793 33.7109 2.22502 33.7427 2.28683 33.7615C2.34864 33.7803 2.41375 33.7857 2.47781 33.7773H32.522C32.586 33.7857 32.6511 33.7803 32.7129 33.7615C32.7748 33.7427 32.8318 33.7109 32.8804 33.6683C32.929 33.6256 32.9678 33.5732 32.9945 33.5143C33.0211 33.4555 33.0349 33.3916 33.0349 33.327C33.0349 33.2624 33.0211 33.1985 32.9945 33.1397C32.9678 33.0808 32.929 33.0283 32.8804 32.9857C32.8318 32.9431 32.7748 32.9113 32.7129 32.8925C32.6511 32.8737 32.5863 32.8683 32.5222 32.8767Z" fill="#316BFF"/>
<path d="M1.42058 11.9403L1.75538 11.5001L1.54396 11.3803L1.32917 11.8734H1.32197L1.10357 11.3837L0.888553 11.5071L1.21975 11.9369V11.9439L0.701904 11.877V12.1166L1.22335 12.0497V12.0567L0.888553 12.4863L1.08939 12.6132L1.31859 12.1166H1.32534L1.53676 12.6096L1.75876 12.4829L1.42058 12.0601V12.0531L1.95238 12.1166V11.877L1.42058 11.9473V11.9403ZM2.70596 3.10924L2.91737 2.87103L2.8012 2.7929L2.6562 3.06668L2.65215 3.06646L2.54835 2.77579L2.41934 2.83703L2.59068 3.09843L2.59046 3.10248L2.29596 3.04124L2.28538 3.17881L2.58776 3.16327L2.58753 3.16733L2.37634 3.39946L2.48621 3.48096L2.63954 3.20583L2.64337 3.20605L2.74333 3.49852L2.87617 3.43548L2.70056 3.17791L2.70101 3.17386L3.00361 3.23352L3.01396 3.09618L2.70551 3.11329L2.70596 3.10924ZM33.689 6.55245L33.7212 6.31964L33.195 6.31672L33.1959 6.30996L33.5802 5.92698L33.3909 5.78244L33.116 6.23274L33.109 6.23161L32.9627 5.7266L32.7371 5.81756L33.0014 6.27979L33.0003 6.28655L32.5061 6.15191L32.4739 6.38471L32.9895 6.38966L32.9886 6.39642L32.6056 6.76904L32.7837 6.91944L33.073 6.46734L33.0797 6.46824L33.2191 6.97595L33.4517 6.88252L33.1799 6.42636L33.1808 6.41961L33.689 6.55245ZM25.7052 1.71286L25.9884 1.34024L25.8097 1.23892L25.6277 1.65612H25.6219L25.437 1.24185L25.2551 1.34632L25.5354 1.70993V1.71579L25.0971 1.65928V1.86191L25.5384 1.80517V1.81125L25.2551 2.17487L25.4249 2.28226L25.619 1.86191H25.6246L25.8036 2.27911L25.9914 2.17194L25.7052 1.81418V1.8081L26.1553 1.86191V1.65928L25.7052 1.71872V1.71286ZM25.1898 34.903H23.3193C23.2059 34.9118 23.1 34.9631 23.0227 35.0466C22.9455 35.13 22.9025 35.2396 22.9025 35.3533C22.9025 35.4671 22.9455 35.5766 23.0227 35.6601C23.1 35.7436 23.2059 35.7948 23.3193 35.8036H25.1898C25.3032 35.7948 25.4091 35.7436 25.4864 35.6601C25.5637 35.5766 25.6066 35.4671 25.6066 35.3533C25.6066 35.2396 25.5637 35.13 25.4864 35.0466C25.4091 34.9631 25.3032 34.9118 25.1898 34.903ZM11.6809 34.903H9.81032C9.69692 34.9118 9.59101 34.9631 9.51375 35.0466C9.4365 35.13 9.39358 35.2396 9.39358 35.3533C9.39358 35.4671 9.4365 35.5766 9.51375 35.6601C9.59101 35.7436 9.69692 35.7948 9.81032 35.8036H11.6809C11.7943 35.7948 11.9002 35.7436 11.9774 35.6601C12.0547 35.5766 12.0976 35.4671 12.0976 35.3533C12.0976 35.2396 12.0547 35.13 11.9774 35.0466C11.9002 34.9631 11.7943 34.9118 11.6809 34.903ZM22.0031 34.903H12.9971C12.8777 34.903 12.7631 34.9505 12.6787 35.0349C12.5942 35.1194 12.5468 35.2339 12.5468 35.3533C12.5468 35.4728 12.5942 35.5873 12.6787 35.6717C12.7631 35.7562 12.8777 35.8036 12.9971 35.8036H16.586V36.2539H14.7983C14.6789 36.2539 14.5643 36.3014 14.4799 36.3858C14.3954 36.4703 14.348 36.5848 14.348 36.7042C14.348 36.8237 14.3954 36.9382 14.4799 37.0226C14.5643 37.1071 14.6789 37.1545 14.7983 37.1545H20.427C20.5464 37.1545 20.661 37.1071 20.7454 37.0226C20.8299 36.9382 20.8773 36.8237 20.8773 36.7042C20.8773 36.5848 20.8299 36.4703 20.7454 36.3858C20.661 36.3014 20.5464 36.2539 20.427 36.2539H18.4142V35.8036H22.0031C22.1225 35.8036 22.237 35.7562 22.3215 35.6717C22.4059 35.5873 22.4534 35.4728 22.4534 35.3533C22.4534 35.2339 22.4059 35.1194 22.3215 35.0349C22.237 34.9505 22.1225 34.903 22.0031 34.903Z" fill="#316BFF"/>
</svg>
