<svg width="35" height="35" viewBox="0 0 35 35" fill="none" xmlns="http://www.w3.org/2000/svg">
<path d="M25.0161 14.1007H24.3003C24.0037 14.1007 23.7635 14.3411 23.7635 14.6376C23.7635 14.9341 24.0038 15.1744 24.3003 15.1744H25.0161C25.3126 15.1744 25.5529 14.9341 25.5529 14.6376C25.5529 14.3411 25.3126 14.1007 25.0161 14.1007ZM21.2583 17.5007C21.2583 17.4302 21.2444 17.3604 21.2174 17.2953C21.1905 17.2301 21.1509 17.171 21.1011 17.1211C21.0512 17.0713 20.992 17.0317 20.9269 17.0047C20.8618 16.9778 20.792 16.9639 20.7214 16.9639H9.26876C9.19826 16.9639 9.12845 16.9778 9.06332 17.0048C8.99818 17.0317 8.939 17.0713 8.88915 17.1211C8.8393 17.171 8.79975 17.2302 8.77278 17.2953C8.7458 17.3604 8.73192 17.4302 8.73193 17.5007C8.73192 17.5712 8.74579 17.6411 8.77276 17.7062C8.79973 17.7713 8.83928 17.8305 8.88913 17.8804C8.93898 17.9302 8.99817 17.9698 9.06331 17.9967C9.12845 18.0237 9.19826 18.0376 9.26876 18.0376H20.7214C20.7919 18.0376 20.8617 18.0237 20.9268 17.9967C20.992 17.9697 21.0512 17.9302 21.101 17.8804C21.1509 17.8305 21.1904 17.7713 21.2174 17.7062C21.2444 17.6411 21.2583 17.5712 21.2583 17.5007ZM9.26876 27.7007C8.97219 27.7007 8.73193 27.9411 8.73193 28.2376C8.73193 28.5341 8.97219 28.7744 9.26876 28.7744H12.1319C12.4285 28.7744 12.6688 28.5341 12.6688 28.2376C12.6688 27.9411 12.4285 27.7007 12.1319 27.7007H9.26876Z" fill="#316BFF"/>
<path d="M23.4415 29.4186C23.8112 29.9117 24.3999 30.206 25.0162 30.206C25.6325 30.206 26.2212 29.9117 26.591 29.4187L34.1068 19.3976C34.758 18.5294 34.5814 17.2931 33.713 16.6418C32.8446 15.9907 31.6084 16.1672 30.9572 17.0356L30.5635 17.5606V2.46915C30.5635 1.3838 29.6805 0.500732 28.5951 0.500732H5.69C4.60453 0.500732 3.72152 1.3838 3.72152 2.46915V2.64811H2.4689C1.38349 2.64811 0.500488 3.53118 0.500488 4.61653V30.3849C0.500488 31.4703 1.38349 32.3534 2.4689 32.3534H3.72152V32.5323C3.72152 33.6177 4.60453 34.5007 5.68994 34.5007H28.595C29.6804 34.5007 30.5635 33.6177 30.5635 32.5323V26.806C30.5635 26.7355 30.5496 26.6657 30.5226 26.6005C30.4957 26.5354 30.4561 26.4762 30.4063 26.4263C30.3564 26.3765 30.2972 26.3369 30.2321 26.31C30.1669 26.283 30.0971 26.2691 30.0266 26.2691C29.9561 26.2691 29.8863 26.283 29.8212 26.31C29.756 26.3369 29.6968 26.3765 29.647 26.4263C29.5971 26.4762 29.5576 26.5354 29.5306 26.6005C29.5037 26.6657 29.4898 26.7355 29.4898 26.806V32.5323C29.4898 33.0257 29.0884 33.4271 28.595 33.4271H5.69C5.19661 33.4271 4.79525 33.0257 4.79525 32.5323V9.62708C4.79525 9.33051 4.55492 9.09025 4.25842 9.09025C3.96191 9.09025 3.72159 9.33057 3.72159 9.62708V31.2797H2.4689C1.9755 31.2797 1.57414 30.8783 1.57414 30.3849V4.61653C1.57414 4.12313 1.9755 3.72177 2.4689 3.72177H3.72152V7.47963C3.72152 7.7762 3.96185 8.01646 4.25835 8.01646C4.55486 8.01646 4.79518 7.77613 4.79518 7.47963V2.46915C4.79518 1.97575 5.19654 1.57439 5.68994 1.57439H28.595C29.0884 1.57439 29.4898 1.97575 29.4898 2.46915V18.9323C29.4898 18.9512 29.4908 18.9698 29.4927 18.9883L25.0162 24.957L23.37 22.7618C23.0546 22.3412 22.5941 22.0686 22.0736 21.9942C21.5529 21.9199 21.0347 22.0527 20.6142 22.3682C20.1935 22.6836 19.9209 23.1441 19.8466 23.6646C19.7722 24.1851 19.9051 24.7034 20.2206 25.124L23.4415 29.4186ZM20.9095 23.8164C20.9258 23.7 20.9651 23.5879 21.025 23.4868C21.0849 23.3856 21.1643 23.2974 21.2585 23.2271C21.4125 23.1108 21.6003 23.0479 21.7933 23.048C21.8359 23.048 21.8788 23.051 21.9217 23.0571C22.0382 23.0735 22.1502 23.1127 22.2513 23.1726C22.3525 23.2325 22.4407 23.3119 22.511 23.4061L24.5868 26.1739C24.6368 26.2405 24.7016 26.2946 24.7761 26.3319C24.8507 26.3692 24.9329 26.3886 25.0162 26.3886C25.0996 26.3886 25.1817 26.3692 25.2563 26.3319C25.3308 26.2946 25.3957 26.2405 25.4457 26.1739L31.8162 17.6798C32.1122 17.285 32.6742 17.2048 33.0688 17.5008C33.4635 17.7968 33.5438 18.3588 33.2478 18.7534L25.732 28.7745V28.7746C25.6484 28.8854 25.5403 28.9754 25.4161 29.0375C25.2919 29.0996 25.1551 29.1321 25.0162 29.1324C24.8774 29.132 24.7405 29.0996 24.6163 29.0375C24.4922 28.9754 24.3841 28.8854 24.3005 28.7745L21.0795 24.4798C21.0086 24.3859 20.9572 24.279 20.928 24.1651C20.8988 24.0512 20.8925 23.9327 20.9095 23.8164Z" fill="#316BFF"/>
<path d="M17.6793 25.3744C17.6793 25.3039 17.6655 25.2341 17.6385 25.1689C17.6115 25.1038 17.572 25.0446 17.5221 24.9948C17.4723 24.9449 17.4131 24.9054 17.3479 24.8784C17.2828 24.8514 17.213 24.8375 17.1425 24.8376H9.26876C8.97219 24.8376 8.73193 25.0779 8.73193 25.3744C8.73193 25.6709 8.97219 25.9112 9.26876 25.9112H17.1424C17.2129 25.9112 17.2827 25.8974 17.3479 25.8704C17.413 25.8434 17.4722 25.8039 17.5221 25.754C17.5719 25.7042 17.6115 25.645 17.6385 25.5799C17.6654 25.5147 17.6793 25.4449 17.6793 25.3744ZM13.2056 9.80598C13.1351 9.80596 13.0653 9.81983 13.0001 9.84681C12.935 9.87378 12.8758 9.91332 12.826 9.96317C12.7761 10.013 12.7366 10.0722 12.7096 10.1373C12.6826 10.2025 12.6687 10.2723 12.6688 10.3428C12.6687 10.4133 12.6826 10.4831 12.7096 10.5483C12.7366 10.6134 12.7761 10.6726 12.826 10.7224C12.8758 10.7723 12.935 10.8118 13.0001 10.8388C13.0653 10.8658 13.1351 10.8797 13.2056 10.8796H21.0793C21.1498 10.8797 21.2196 10.8658 21.2848 10.8388C21.3499 10.8118 21.4091 10.7723 21.4589 10.7224C21.5088 10.6726 21.5483 10.6134 21.5753 10.5483C21.6023 10.4831 21.6162 10.4133 21.6161 10.3428C21.6162 10.2723 21.6023 10.2025 21.5753 10.1373C21.5483 10.0722 21.5088 10.013 21.4589 9.96317C21.4091 9.91332 21.3499 9.87378 21.2848 9.84681C21.2196 9.81983 21.1498 9.80596 21.0793 9.80598H13.2056ZM9.26876 15.1744H20.7214C21.018 15.1744 21.2582 14.9341 21.2582 14.6376C21.2582 14.3411 21.018 14.1007 20.7214 14.1007H9.26876C8.97219 14.1007 8.73193 14.3411 8.73193 14.6376C8.73193 14.9341 8.97226 15.1744 9.26876 15.1744ZM25.0161 6.94287H9.26876C9.19826 6.94285 9.12845 6.95673 9.06331 6.9837C8.99817 7.01067 8.93898 7.05021 8.88913 7.10007C8.83928 7.14992 8.79973 7.2091 8.77276 7.27424C8.74579 7.33938 8.73192 7.4092 8.73193 7.4797C8.73192 7.5502 8.74579 7.62002 8.77276 7.68516C8.79973 7.75029 8.83928 7.80948 8.88913 7.85933C8.93898 7.90919 8.99817 7.94873 9.06331 7.9757C9.12845 8.00267 9.19826 8.01654 9.26876 8.01653H25.0161C25.0866 8.01654 25.1564 8.00267 25.2215 7.9757C25.2867 7.94873 25.3459 7.90919 25.3957 7.85933C25.4456 7.80948 25.4851 7.75029 25.5121 7.68516C25.539 7.62002 25.5529 7.5502 25.5529 7.4797C25.5529 7.4092 25.539 7.33939 25.5121 7.27425C25.4851 7.20912 25.4455 7.14994 25.3957 7.10008C25.3458 7.05023 25.2867 7.01069 25.2215 6.98372C25.1564 6.95674 25.0866 6.94286 25.0161 6.94287ZM25.0161 16.9639H24.3003C24.2298 16.9639 24.16 16.9778 24.0948 17.0048C24.0297 17.0317 23.9705 17.0713 23.9207 17.1211C23.8708 17.171 23.8313 17.2302 23.8043 17.2953C23.7773 17.3604 23.7634 17.4302 23.7635 17.5007C23.7634 17.5712 23.7773 17.641 23.8043 17.7062C23.8313 17.7713 23.8708 17.8305 23.9207 17.8803C23.9705 17.9302 24.0297 17.9697 24.0948 17.9967C24.16 18.0237 24.2298 18.0376 24.3003 18.0376H25.0161C25.0866 18.0376 25.1564 18.0237 25.2215 17.9967C25.2867 17.9697 25.3458 17.9302 25.3957 17.8803C25.4455 17.8305 25.4851 17.7713 25.5121 17.7062C25.539 17.641 25.5529 17.5712 25.5529 17.5007C25.5529 17.4302 25.539 17.3604 25.5121 17.2953C25.4851 17.2302 25.4455 17.171 25.3957 17.1211C25.3458 17.0713 25.2867 17.0317 25.2215 17.0048C25.1564 16.9778 25.0866 16.9639 25.0161 16.9639Z" fill="#316BFF"/>
</svg>
