<svg width="30" height="28" viewBox="0 0 30 28" fill="none" xmlns="http://www.w3.org/2000/svg">
  <path
    d="M25.3023 8.3882C25.2656 8.3882 25.2252 8.38086 25.1885 8.36985C24.994 8.30747 24.8913 8.102 24.9537 7.90753C25.372 6.61962 25.1298 5.01615 24.3042 3.61817C23.475 2.2055 22.1761 1.2148 20.8368 0.965293C20.6386 0.9286 20.5065 0.737799 20.5432 0.53599C20.5799 0.33785 20.7707 0.205757 20.9725 0.24245C22.5173 0.532321 23.9997 1.65144 24.9353 3.2439C25.8637 4.82168 26.1315 6.6453 25.6472 8.13135C25.5995 8.28913 25.4564 8.3882 25.3023 8.3882Z"
    fill="#BCD4FF" />
  <path
    d="M9.02817 27.6927C8.98046 27.6927 8.93276 27.689 8.88506 27.678C7.25224 27.3588 5.69281 26.1736 4.71312 24.5078C3.72242 22.8273 3.44723 20.8752 3.97927 19.2828C4.10769 18.8975 4.52232 18.692 4.90759 18.8204C5.29286 18.9489 5.49834 19.3635 5.36992 19.7488C4.97364 20.9413 5.19746 22.442 5.97534 23.7629C6.74589 25.0729 7.9384 25.9975 9.16393 26.236C9.56021 26.3131 9.82072 26.6983 9.74367 27.0983C9.67762 27.4505 9.37308 27.6927 9.02817 27.6927Z"
    fill="#2562FF" />
  <path
    d="M9.14472 7.2666C9.12271 7.2666 9.10436 7.2666 9.08235 7.27027H9.07868C9.06033 7.27027 9.03831 7.27394 9.01997 7.27761C8.9209 7.29229 8.8255 7.32531 8.73743 7.38035L3.28125 10.5909L4.10316 11.9853L9.55935 8.77467C9.6731 8.70862 9.7685 8.61689 9.83454 8.50681C9.84188 8.4958 9.84555 8.48479 9.85289 8.47746C9.86023 8.46645 9.8639 8.45544 9.87124 8.44443C9.8749 8.43709 9.87857 8.42609 9.88224 8.41875C9.88224 8.41875 9.88224 8.41508 9.88591 8.41508C9.89325 8.4004 9.89692 8.38939 9.90426 8.37472C9.90793 8.36738 9.9116 8.35637 9.91527 8.34903C9.9226 8.32702 9.92994 8.305 9.93728 8.27932C9.99232 8.07017 9.9593 7.85368 9.85289 7.66655C9.69144 7.4097 9.42359 7.2666 9.14472 7.2666Z"
    fill="#E5E5E5" />
  <path
    d="M9.89824 8.37031C9.90191 8.36297 9.90558 8.35196 9.90924 8.34462C9.90558 8.35563 9.90191 8.36297 9.89824 8.37031ZM9.83219 8.5024C9.83953 8.49139 9.8432 8.48039 9.85054 8.47305C9.84687 8.48405 9.83953 8.49139 9.83219 8.5024ZM9.88356 8.41067C9.88356 8.41067 9.88356 8.41434 9.87989 8.41434L9.88356 8.41067Z"
    fill="#2562FF" />
  <path
    d="M20.0751 19.2792C20.0201 19.4883 20.0531 19.7048 20.1595 19.892C20.387 20.2772 20.8823 20.4057 21.2639 20.1782L26.7201 16.9676L25.9019 15.5732L20.4457 18.7838C20.2622 18.8976 20.1301 19.07 20.0751 19.2792Z"
    fill="white" />
  <path
    d="M29.6852 14.2851C29.377 13.7604 28.8816 13.3898 28.2945 13.2356C27.7075 13.0815 27.0947 13.1696 26.57 13.4778L19.7011 17.5213C19.1764 17.8296 18.8058 18.3249 18.6517 18.912C18.5637 19.2532 18.5563 19.6055 18.626 19.9431L12.4764 23.5646C11.7388 23.9976 10.8729 24.1223 10.0436 23.9058C9.2144 23.6894 8.51724 23.1647 8.08427 22.4271C7.1853 20.9044 7.69532 18.934 9.22174 18.035L21.0771 11.0524C21.1248 11.0231 21.1725 10.9901 21.2092 10.9497L21.4807 10.7883C22.5558 10.1535 23.3227 9.14076 23.6346 7.9299C23.9465 6.71905 23.7703 5.46049 23.1356 4.3854C21.8256 2.1655 18.9563 1.42064 16.7327 2.7269L10.6124 6.33011C10.3555 6.10995 10.0473 5.95218 9.71342 5.86411C9.12633 5.71367 8.51357 5.79807 7.98886 6.10628L1.12368 10.1571C0.598981 10.4654 0.228386 10.9607 0.0742769 11.5478C-0.0798319 12.1349 0.00823051 12.7476 0.316448 13.2723C0.624666 13.797 1.12002 14.1676 1.7071 14.3217C1.8979 14.3694 2.0887 14.3951 2.2795 14.3951C2.67945 14.3951 3.07573 14.2887 3.43165 14.0796L10.3005 10.0361C10.8252 9.72784 11.1958 9.23249 11.3499 8.64541C11.4416 8.29683 11.4453 7.93724 11.3719 7.596L17.4812 3.99646C19.004 3.09749 20.9744 3.60752 21.8733 5.13393C22.3063 5.87145 22.4311 6.7374 22.2146 7.56665C21.9981 8.3959 21.4734 9.09306 20.7359 9.52603L8.88416 16.5086C8.83646 16.538 8.78876 16.571 8.75207 16.6114L8.48055 16.7728C6.26064 18.0827 5.51579 20.9521 6.82204 23.1757C7.69166 24.6544 9.25476 25.4763 10.8582 25.4763C11.6655 25.4763 12.48 25.2671 13.2212 24.8305L19.3709 21.2089C19.7855 21.5649 20.3176 21.7593 20.8569 21.7593C21.2496 21.7593 21.6458 21.6566 22.0091 21.4438L28.8779 17.4003C29.4026 17.092 29.7732 16.5967 29.9274 16.0096C30.0778 15.4189 29.9934 14.8061 29.6852 14.2851ZM2.68679 12.8137C2.30152 13.0412 1.80617 12.9128 1.58234 12.5275C1.47226 12.3404 1.44291 12.1239 1.49795 11.9147C1.55299 11.7056 1.68508 11.5294 1.86854 11.4194L2.6501 10.9607L3.46834 12.3514L2.68679 12.8137ZM9.9299 8.27848C9.92256 8.3005 9.91523 8.32618 9.90789 8.3482C9.90422 8.35554 9.90055 8.36655 9.89688 8.37388C9.89321 8.38856 9.88587 8.39957 9.87853 8.41425C9.87853 8.41425 9.87853 8.41791 9.87486 8.41791C9.86752 8.43626 9.85652 8.45828 9.84551 8.47662C9.83817 8.48763 9.8345 8.49864 9.82716 8.50598C9.75745 8.61606 9.66572 8.70779 9.55197 8.77383L4.10312 11.9844L3.28121 10.5901L8.73739 7.37952C8.82912 7.32815 8.92453 7.29145 9.01993 7.27678C9.03827 7.27311 9.06029 7.27311 9.07863 7.26944C9.10065 7.26577 9.12266 7.26577 9.14468 7.26577C9.41988 7.26577 9.6914 7.40887 9.84184 7.66205C9.95192 7.84918 9.98494 8.06934 9.9299 8.27848ZM21.2642 20.1779C21.1615 20.2403 21.0477 20.2733 20.9377 20.2843C20.6331 20.3136 20.3249 20.1705 20.1598 19.8917C20.0497 19.7045 20.0204 19.4881 20.0754 19.2789C20.1011 19.1835 20.1414 19.0991 20.1965 19.0184C20.2625 18.923 20.3469 18.8423 20.4497 18.7836L25.8985 15.573L26.7168 16.9636L21.2642 20.1779ZM28.1331 16.1344L27.3515 16.593L26.5333 15.2024L27.3148 14.7437C27.4396 14.6703 27.5827 14.63 27.7221 14.63C27.7918 14.63 27.8579 14.6373 27.9276 14.6557C28.1368 14.7107 28.3129 14.8428 28.423 15.0262C28.6468 15.4115 28.5184 15.9069 28.1331 16.1344Z"
    fill="#2562FF" />
</svg>
  