<svg width="25" height="33" viewBox="0 0 25 33" fill="none" xmlns="http://www.w3.org/2000/svg">
<path d="M23.504 14.786C24.2295 14.286 24.98 13.7695 24.98 12.983C24.98 12.1965 24.2295 11.6795 23.504 11.1795C23.112 10.9095 22.5755 10.54 22.511 10.2995C22.441 10.035 22.7165 9.45249 22.938 8.98449C23.3075 8.20449 23.6895 7.39749 23.309 6.73949C22.923 6.07249 22.025 6.00049 21.157 5.93099C20.647 5.89049 20.012 5.83949 19.8265 5.65399C19.641 5.46849 19.59 4.83349 19.5495 4.32299C19.4795 3.45499 19.408 2.55749 18.741 2.17149C18.083 1.79099 17.2765 2.17299 16.4965 2.54199C16.0285 2.76349 15.446 3.03949 15.1815 2.96899C14.9405 2.90499 14.5715 2.36799 14.3015 1.97649C13.8015 1.25099 13.284 0.500488 12.4975 0.500488C11.711 0.500488 11.194 1.25049 10.6945 1.97649C10.4245 2.36849 10.055 2.90499 9.81452 2.96899C9.55002 3.03999 8.96852 2.76399 8.50002 2.54249C7.71952 2.17349 6.91302 1.79149 6.25502 2.17249C5.58902 2.55849 5.51752 3.45649 5.44802 4.32399C5.40802 4.83399 5.35702 5.46899 5.17152 5.65499C4.98652 5.83999 4.35152 5.89149 3.84152 5.93199C2.97352 6.00199 2.07602 6.07399 1.69052 6.74049C1.31002 7.39899 1.69202 8.20549 2.06152 8.98549C2.28302 9.45299 2.55902 10.0355 2.48852 10.2995C2.42452 10.5405 1.88752 10.9095 1.49602 11.1795C0.770519 11.6795 0.0200195 12.1965 0.0200195 12.983C0.0200195 13.769 0.770519 14.286 1.49602 14.786C1.88802 15.056 2.42452 15.4255 2.48852 15.666C2.55902 15.9295 2.28352 16.512 2.06152 16.9805C1.69152 17.7605 1.31002 18.5665 1.69002 19.2245C2.07552 19.8915 2.97352 19.9635 3.84152 20.033C3.98302 20.0445 4.13352 20.057 4.28202 20.0725L0.38502 29.3335C0.310853 29.5074 0.287412 29.6988 0.317406 29.8855C0.3474 30.0722 0.429604 30.2465 0.55452 30.3885C0.67831 30.5316 0.840068 30.6367 1.0211 30.6918C1.20213 30.7468 1.39503 30.7495 1.57752 30.6995L3.72052 30.128L4.98702 32.047C5.19802 32.367 5.56302 32.53 5.92052 32.496C6.10226 32.4796 6.27615 32.4143 6.42364 32.3068C6.57114 32.1994 6.68671 32.0539 6.75802 31.886L10.3295 23.479C10.951 24.287 11.513 25.4655 12.498 25.4655C13.4845 25.4655 14.0465 24.2835 14.67 23.4755L18.243 31.886C18.3142 32.0541 18.4297 32.1996 18.5772 32.3072C18.7246 32.4148 18.8985 32.4804 19.0803 32.4969C19.2621 32.5134 19.4449 32.4803 19.6094 32.4011C19.7738 32.3218 19.9137 32.1995 20.014 32.047L21.29 30.124L23.4235 30.699C23.6059 30.7491 23.7988 30.7466 23.9798 30.6917C24.1608 30.6369 24.3226 30.5319 24.4465 30.389C24.5715 30.2471 24.6538 30.0727 24.6839 29.886C24.714 29.6994 24.6906 29.508 24.6165 29.334L20.719 20.074C20.8665 20.059 21.0165 20.046 21.1575 20.0345C22.0255 19.9655 22.9235 19.8935 23.309 19.2265C23.6895 18.5685 23.308 17.7615 22.9385 16.9815C22.717 16.513 22.441 15.9305 22.5115 15.667C22.576 15.426 23.112 15.056 23.504 14.786ZM5.82102 31.496L4.55502 29.577C4.43836 29.3998 4.26873 29.2639 4.07031 29.1887C3.87189 29.1136 3.65481 29.103 3.45002 29.1585L1.30602 29.7215L5.23102 20.3955C5.30902 20.5385 5.35402 20.7845 5.37702 20.9445C5.38452 21.013 5.40202 21.0695 5.44752 21.643C5.51652 22.51 5.58752 23.407 6.25452 23.7955C6.91352 24.174 7.71952 23.7935 8.49852 23.425C8.79952 23.2825 9.14802 23.1175 9.42902 23.037L5.82102 31.496ZM21.55 29.1585C21.3452 29.1032 21.1282 29.1138 20.9298 29.189C20.7314 29.2641 20.5618 29.3999 20.445 29.577L19.163 31.4945L15.5705 23.038C15.8935 23.132 16.292 23.329 16.6945 23.5165C17.5715 23.9265 18.5165 24.2645 19.102 23.4615C19.1135 23.446 19.128 23.433 19.139 23.4165L19.146 23.4035C19.4435 22.9475 19.4975 22.2875 19.549 21.6425C19.5635 21.463 19.579 21.269 19.6015 21.084L19.6065 21.0395C19.6135 20.9865 19.6215 20.9345 19.6295 20.884C19.6415 20.809 19.6545 20.7365 19.6705 20.6705C19.677 20.6415 19.6855 20.616 19.6925 20.59C19.7125 20.5205 19.7345 20.4565 19.7605 20.4065L19.768 20.3945L23.689 29.7345L21.55 29.1585ZM22.034 17.409C22.244 17.8525 22.561 18.522 22.443 18.7255C22.32 18.9385 21.572 18.9985 21.077 19.038C20.676 19.07 20.2695 19.105 19.9085 19.198C18.7375 19.441 18.637 20.4805 18.5505 21.564C18.5205 21.935 18.48 22.448 18.3725 22.7335C18.2235 23.1255 17.8755 22.9635 17.1075 22.606C17.1056 22.605 17.1036 22.6042 17.1015 22.6035L16.9245 22.52C16.5295 22.333 16.1265 22.145 15.737 22.05C15.7085 22.0435 15.679 22.034 15.6505 22.028C15.6395 22.026 15.629 22.0255 15.618 22.023C15.2385 21.95 14.886 21.98 14.562 22.196C14.1435 22.461 13.8055 22.946 13.4775 23.422C13.191 23.837 12.7585 24.4655 12.4975 24.4655C12.2365 24.4655 11.804 23.8375 11.518 23.422C10.482 21.917 9.99702 21.6295 8.32802 22.4005L8.07202 22.519C7.62902 22.729 6.95952 23.045 6.75602 22.9275C6.54352 22.8045 6.48452 22.0565 6.44502 21.562C6.28252 19.52 5.90952 19.1965 3.92152 19.0365C3.42652 18.9965 2.67902 18.9365 2.55602 18.724C2.43802 18.5205 2.75502 17.8515 2.96502 17.409C3.28702 16.729 3.62002 16.0265 3.45502 15.4075C3.29502 14.811 2.66902 14.3795 2.06352 13.9625C1.64802 13.6765 1.02002 13.2435 1.02002 12.9825C1.02002 12.722 1.64802 12.2895 2.06302 12.0035C2.66902 11.586 3.29502 11.155 3.45502 10.5575C3.62002 9.93949 3.28702 9.23699 2.96502 8.55749C2.75502 8.11449 2.43802 7.44499 2.55602 7.24149C2.67902 7.02899 3.42702 6.96849 3.92152 6.92899C4.66502 6.86899 5.43352 6.80749 5.87902 6.36199C6.32502 5.91549 6.38602 5.14699 6.44502 4.40349C6.48502 3.90849 6.54402 3.16099 6.75652 3.03849C6.95952 2.92099 7.62902 3.23699 8.07252 3.44649C8.75202 3.76799 9.45452 4.10049 10.0725 3.93549C10.6695 3.77549 11.101 3.14949 11.518 2.54399C11.804 2.12849 12.2365 1.50049 12.4975 1.50049C12.7585 1.50049 13.1915 2.12849 13.4775 2.54399C13.895 3.14899 14.326 3.77549 14.923 3.93499C15.5415 4.09999 16.245 3.76749 16.9245 3.44599C17.367 3.23599 18.037 2.91949 18.24 3.03699C18.453 3.15999 18.513 3.90799 18.5525 4.40349C18.6125 5.14649 18.6735 5.91499 19.1195 6.36099C19.5655 6.80699 20.334 6.86849 21.077 6.92799C21.572 6.96799 22.32 7.02799 22.443 7.23999C22.561 7.44399 22.244 8.11349 22.0345 8.55649C21.7125 9.23599 21.3795 9.93849 21.545 10.557C21.705 11.1545 22.331 11.5855 22.9365 12.003C23.352 12.289 23.98 12.7215 23.98 12.983C23.98 13.244 23.352 13.6765 22.9365 13.963C22.331 14.38 21.7045 14.8115 21.545 15.4085C21.38 16.027 21.7125 16.7295 22.034 17.409Z" fill="#316BFF"/>
<path d="M12.5001 5.58197C8.41912 5.58197 5.09912 8.90197 5.09912 12.983C5.09912 17.063 8.41912 20.3835 12.5001 20.3835C16.5811 20.3835 19.9011 17.0635 19.9011 12.983C19.9011 8.90197 16.5811 5.58197 12.5001 5.58197ZM12.5001 19.3835C8.97012 19.3835 6.09912 16.512 6.09912 12.983C6.09912 9.45297 8.97062 6.58197 12.5001 6.58197C16.0296 6.58197 18.9011 9.45347 18.9011 12.983C18.9011 16.512 16.0296 19.3835 12.5001 19.3835Z" fill="#316BFF"/>
<path d="M15.9016 11.3565H13.9306L13.3171 9.47797C13.2609 9.30504 13.1512 9.15438 13.004 9.04765C12.8567 8.94092 12.6795 8.88362 12.4976 8.88397C12.1226 8.88397 11.7936 9.12397 11.6776 9.47947L11.0686 11.3565H9.09861C8.91654 11.3561 8.73905 11.4135 8.59169 11.5204C8.44433 11.6273 8.33471 11.7783 8.27861 11.9515C8.22185 12.1247 8.22158 12.3114 8.27784 12.4848C8.33409 12.6581 8.44397 12.8091 8.59161 12.916L10.1856 14.075L9.57711 15.95C9.52063 16.1231 9.52056 16.3096 9.5769 16.4828C9.63324 16.6559 9.74308 16.8067 9.89061 16.9135C10.1936 17.1335 10.6011 17.1335 10.9041 16.9135L12.4971 15.755L14.0976 16.916C14.2448 17.0232 14.4223 17.081 14.6044 17.0809C14.7866 17.0808 14.964 17.0229 15.1111 16.9155C15.2585 16.8087 15.3683 16.6578 15.4245 16.4847C15.4808 16.3116 15.4806 16.125 15.4241 15.952L14.8146 14.075L16.4086 12.9155C16.556 12.8086 16.6656 12.6578 16.7218 12.4846C16.7779 12.3115 16.7777 12.125 16.7211 11.952C16.6651 11.7788 16.5556 11.6278 16.4083 11.5208C16.2611 11.4137 16.0837 11.3562 15.9016 11.3565ZM14.1451 13.3255C13.9979 13.4323 13.8883 13.5831 13.8321 13.7561C13.776 13.9292 13.7761 14.1155 13.8326 14.2885L14.3426 15.858L13.0026 14.8865C12.8554 14.7794 12.678 14.7218 12.496 14.7219C12.314 14.722 12.1367 14.7798 11.9896 14.887L10.6596 15.8545L11.1676 14.2885C11.2241 14.1154 11.2242 13.9289 11.1679 13.7558C11.1117 13.5827 11.002 13.4318 10.8546 13.325L9.52261 12.3565H11.1686C11.5436 12.3565 11.8736 12.1165 11.9886 11.7605L12.4986 10.1905L13.0111 11.762C13.0673 11.9351 13.177 12.0859 13.3243 12.1927C13.4717 12.2996 13.6491 12.3569 13.8311 12.3565H15.4776L14.1451 13.3255Z" fill="#316BFF"/>
</svg>
