<svg width="33" height="33" viewBox="0 0 33 33" fill="none" xmlns="http://www.w3.org/2000/svg">
<path fill-rule="evenodd" clip-rule="evenodd" d="M16.4995 6.39536C10.9277 6.39536 6.39463 10.9284 6.39463 16.5003C6.39463 22.0721 10.9277 26.6052 16.4995 26.6052C22.0713 26.6052 26.6044 22.0721 26.6044 16.5003C26.6044 10.9284 22.0714 6.39536 16.4995 6.39536ZM16.4995 24.613C12.0261 24.613 8.38682 20.9737 8.38682 16.5003C8.38682 12.0269 12.0261 8.38755 16.4995 8.38755C20.9728 8.38755 24.6122 12.0269 24.6122 16.5003C24.6122 20.9737 20.9729 24.613 16.4995 24.613ZM17.4956 31.9734C17.4956 32.5235 17.0496 32.9695 16.4995 32.9695C12.1014 32.9695 7.96593 31.2561 4.8548 28.145C1.74427 25.0345 0.03125 20.899 0.03125 16.5003C0.03125 12.1016 1.74427 7.96607 4.8548 4.85553C7.96534 1.74506 12.1012 0.0319824 16.5005 0.0319824C20.8997 0.0319824 25.0356 1.74506 28.1461 4.85553C28.1902 4.89963 28.2335 4.94458 28.2772 4.98921V3.72643C28.2772 3.17632 28.7232 2.73033 29.2733 2.73033C29.8234 2.73033 30.2694 3.17632 30.2694 3.72643V7.39139C30.2694 7.9415 29.8234 8.38748 29.2733 8.38748H25.6083C25.0582 8.38748 24.6123 7.9415 24.6123 7.39139C24.6123 6.84128 25.0582 6.39529 25.6083 6.39529H26.866C26.8232 6.35147 26.7807 6.30744 26.7374 6.26414C21.0927 0.619479 11.9081 0.619479 6.26348 6.26414C0.619277 11.9083 0.619277 21.0921 6.26348 26.7362C8.99835 29.4711 12.6335 30.9772 16.4995 30.9772C17.0496 30.9772 17.4956 31.4232 17.4956 31.9733V31.9734ZM20.7353 18.9467C20.5508 19.2662 20.216 19.4448 19.8718 19.4448C19.7027 19.4448 19.5314 19.4018 19.3745 19.3111L16.0013 17.3628C15.8499 17.2754 15.7242 17.1496 15.6368 16.9982C15.5494 16.8468 15.5034 16.6751 15.5034 16.5003V11.2447C15.5034 10.6946 15.9494 10.2486 16.4995 10.2486C17.0496 10.2486 17.4956 10.6946 17.4956 11.2447V15.9253L20.3709 17.5859C20.8473 17.8611 21.0104 18.4703 20.7353 18.9467V18.9467ZM32.9684 16.5003C32.9684 17.0481 32.5204 17.4961 31.9727 17.4961C31.4249 17.4961 30.9769 17.0481 30.9769 16.5003C30.9769 15.9525 31.423 15.5045 31.9727 15.5045C32.5223 15.5045 32.9684 15.9525 32.9684 16.5003ZM21.4671 31.1885C21.6083 31.7193 21.2939 32.2652 20.7631 32.4083C20.2304 32.5495 19.6845 32.2351 19.5433 31.7024C19.4002 31.1715 19.7146 30.6257 20.2473 30.4826C20.7782 30.3414 21.324 30.6558 21.4671 31.1885H21.4671ZM25.0982 29.4021C25.373 29.8783 25.2112 30.4882 24.7349 30.7631C24.2587 31.0379 23.6488 30.8741 23.3739 30.3979C23.0991 29.9216 23.261 29.3118 23.7372 29.0369C24.2153 28.762 24.8234 28.9259 25.0982 29.4021ZM28.1457 26.7367C28.5335 27.1263 28.5335 27.7569 28.1457 28.1447C27.7561 28.5343 27.1255 28.5343 26.7359 28.1447C26.3481 27.7569 26.3481 27.1263 26.7359 26.7367C27.1255 26.347 27.7561 26.347 28.1457 26.7367ZM30.7623 24.7338C30.4874 25.21 29.8775 25.3738 29.4013 25.0989C28.925 24.8241 28.7613 24.2142 29.0361 23.738C29.3109 23.2618 29.9208 23.0979 30.397 23.3746C30.8733 23.6495 31.0371 24.2574 30.7622 24.7337L30.7623 24.7338ZM32.4074 20.762C32.2644 21.2947 31.7185 21.609 31.1877 21.4679C30.6568 21.3248 30.3406 20.7789 30.4836 20.2462C30.6248 19.7153 31.1707 19.401 31.7034 19.5421C32.2342 19.6852 32.5505 20.2311 32.4074 20.762ZM30.4836 12.7544C30.3406 12.2216 30.6568 11.6757 31.1877 11.5327C31.7185 11.3915 32.2644 11.7059 32.4074 12.2386C32.5505 12.7694 32.2343 13.3153 31.7034 13.4584C31.1707 13.5996 30.6248 13.2852 30.4836 12.7544Z" fill="#316BFF"/>
</svg>
