<svg width="12" height="12" viewBox="0 0 12 12" fill="none" xmlns="http://www.w3.org/2000/svg">
    <path
        d="M8.8877 6.69043H8.00879V5.37207H8.8877C9.32227 5.37207 9.74709 5.2432 10.1084 5.00177C10.4698 4.76033 10.7514 4.41716 10.9177 4.01566C11.084 3.61416 11.1275 3.17237 11.0427 2.74614C10.958 2.31991 10.7487 1.9284 10.4414 1.6211C10.1341 1.31381 9.74259 1.10454 9.31636 1.01976C8.89013 0.934978 8.44834 0.978491 8.04684 1.1448C7.64534 1.3111 7.30218 1.59273 7.06074 1.95407C6.8193 2.31541 6.69043 2.74023 6.69043 3.17481V4.05371H5.37207V3.17481C5.37207 2.74023 5.2432 2.31541 5.00177 1.95407C4.76033 1.59273 4.41716 1.3111 4.01566 1.1448C3.61416 0.978491 3.17237 0.934978 2.74614 1.01976C2.31991 1.10454 1.9284 1.31381 1.6211 1.6211C1.31381 1.9284 1.10454 2.31991 1.01976 2.74614C0.934978 3.17237 0.978491 3.61416 1.1448 4.01566C1.3111 4.41716 1.59273 4.76033 1.95407 5.00177C2.31541 5.2432 2.74023 5.37207 3.17481 5.37207H4.05371V6.69043H3.17481C2.74023 6.69043 2.31541 6.8193 1.95407 7.06074C1.59273 7.30218 1.3111 7.64534 1.1448 8.04684C0.978491 8.44834 0.934978 8.89013 1.01976 9.31636C1.10454 9.74259 1.31381 10.1341 1.6211 10.4414C1.9284 10.7487 2.31991 10.958 2.74614 11.0427C3.17237 11.1275 3.61416 11.084 4.01566 10.9177C4.41716 10.7514 4.76033 10.4698 5.00177 10.1084C5.2432 9.74709 5.37207 9.32227 5.37207 8.8877V8.00879H6.69043V8.8877C6.69043 9.32227 6.8193 9.74709 7.06074 10.1084C7.30218 10.4698 7.64534 10.7514 8.04684 10.9177C8.44834 11.084 8.89013 11.1275 9.31636 11.0427C9.74259 10.958 10.1341 10.7487 10.4414 10.4414C10.7487 10.1341 10.958 9.74259 11.0427 9.31636C11.1275 8.89013 11.084 8.44834 10.9177 8.04684C10.7514 7.64534 10.4698 7.30218 10.1084 7.06074C9.74709 6.8193 9.32227 6.69043 8.8877 6.69043ZM8.00879 3.17481C8.00879 3.00097 8.06034 2.83105 8.15691 2.68651C8.25349 2.54198 8.39075 2.42932 8.55135 2.3628C8.71195 2.29628 8.88867 2.27887 9.05916 2.31279C9.22965 2.3467 9.38626 2.43041 9.50918 2.55333C9.63209 2.67624 9.7158 2.83285 9.74971 3.00334C9.78363 3.17383 9.76622 3.35055 9.6997 3.51115C9.63318 3.67175 9.52053 3.80901 9.37599 3.90559C9.23146 4.00217 9.06153 4.05371 8.8877 4.05371H8.00879V3.17481ZM2.2959 3.17481C2.2959 2.94171 2.3885 2.71815 2.55333 2.55333C2.71815 2.3885 2.94171 2.2959 3.17481 2.2959C3.40791 2.2959 3.63146 2.3885 3.79629 2.55333C3.96111 2.71815 4.05371 2.94171 4.05371 3.17481V4.05371H3.17481C2.94171 4.05371 2.71815 3.96111 2.55333 3.79629C2.3885 3.63146 2.2959 3.40791 2.2959 3.17481ZM4.05371 8.8877C4.05371 9.06153 4.00217 9.23146 3.90559 9.37599C3.80901 9.52053 3.67175 9.63318 3.51115 9.6997C3.35055 9.76622 3.17383 9.78363 3.00334 9.74971C2.83285 9.7158 2.67624 9.63209 2.55333 9.50918C2.43041 9.38626 2.3467 9.22965 2.31279 9.05916C2.27887 8.88867 2.29628 8.71195 2.3628 8.55135C2.42932 8.39075 2.54198 8.25349 2.68651 8.15691C2.83105 8.06034 3.00097 8.00879 3.17481 8.00879H4.05371V8.8877ZM5.37207 5.37207H6.69043V6.69043H5.37207V5.37207ZM8.8877 9.7666C8.6546 9.7666 8.43104 9.674 8.26622 9.50918C8.10139 9.34435 8.00879 9.1208 8.00879 8.8877V8.00879H8.8877C9.1208 8.00879 9.34435 8.10139 9.50918 8.26622C9.674 8.43104 9.7666 8.6546 9.7666 8.8877C9.7666 9.1208 9.674 9.34435 9.50918 9.50918C9.34435 9.674 9.1208 9.7666 8.8877 9.7666Z"
        fill="#464646" />
</svg>