<svg width="35" height="35" viewBox="0 0 35 35" fill="none" xmlns="http://www.w3.org/2000/svg">
<g clip-path="url(#clip0_114_246)">
<path d="M26.7086 19.6273H8.30111C7.90991 19.6273 7.59277 19.9444 7.59277 20.3356V33.0856C7.59277 33.4768 7.90991 33.7939 8.30111 33.7939H26.7086C27.0998 33.7939 27.4169 33.4768 27.4169 33.0856V20.3356C27.4169 19.9444 27.0998 19.6273 26.7086 19.6273Z" stroke="#316BFF" stroke-width="1.41667" stroke-miterlimit="10"/>
<path d="M29.5417 30.9606H33.7917V1.2106H0.5" stroke="#316BFF" stroke-width="1.41667" stroke-miterlimit="10"/>
<path d="M26.0002 4.04395H1.2085V30.9606H5.4585M27.4168 4.04395H28.8335M30.2502 4.04395H31.6668" stroke="#316BFF" stroke-width="1.41667" stroke-miterlimit="10"/>
<path d="M11.8333 19.6273V16.0856C11.8333 14.5827 12.4303 13.1414 13.493 12.0787C14.5557 11.016 15.997 10.4189 17.4999 10.4189C19.0028 10.4189 20.4442 11.016 21.5069 12.0787C22.5696 13.1414 23.1666 14.5827 23.1666 16.0856M19.0037 28.1443L19.5746 28.7145C20.134 29.2472 20.8769 29.5444 21.6493 29.5444C22.4218 29.5444 23.1647 29.2472 23.7241 28.7145C23.9956 28.4562 24.2117 28.1454 24.3595 27.801C24.5072 27.4566 24.5833 27.0857 24.5833 26.711C24.5833 26.3362 24.5072 25.9654 24.3595 25.621C24.2117 25.2765 23.9956 24.9657 23.7241 24.7074C23.1647 24.1747 22.4218 23.8775 21.6493 23.8775C20.8769 23.8775 20.134 24.1747 19.5746 24.7074L15.4252 28.7145C14.8658 29.2472 14.123 29.5444 13.3505 29.5444C12.578 29.5444 11.8352 29.2472 11.2758 28.7145C11.0043 28.4562 10.7881 28.1454 10.6404 27.801C10.4927 27.4566 10.4165 27.0857 10.4165 26.711C10.4165 26.3362 10.4927 25.9654 10.6404 25.621C10.7881 25.2765 11.0043 24.9657 11.2758 24.7074C11.8352 24.1747 12.578 23.8775 13.3505 23.8775C14.123 23.8775 14.8658 24.1747 15.4252 24.7074L15.9692 25.2472" stroke="#316BFF" stroke-width="1.41667" stroke-miterlimit="10" stroke-linecap="round"/>
</g>
<defs>
<clipPath id="clip0_114_246">
<rect width="34" height="34" fill="white" transform="translate(0.5 0.502258)"/>
</clipPath>
</defs>
</svg>
