<svg width="25" height="25" viewBox="0 0 25 25" fill="none" xmlns="http://www.w3.org/2000/svg">
<g clip-path="url(#clip0_1299_11298)">
<rect width="25" height="25" fill="url(#paint0_linear_1299_11298)" fill-opacity="0.02"/>
<path d="M0.5 12.5C0.5 17.623 3.711 21.997 8.23 23.718C8.12 22.781 8.003 21.236 8.255 20.152C8.472 19.22 9.656 14.214 9.656 14.214C9.656 14.214 9.299 13.499 9.299 12.44C9.299 10.78 10.261 9.54 11.46 9.54C12.48 9.54 12.972 10.305 12.972 11.222C12.972 12.247 12.319 13.779 11.982 15.2C11.701 16.389 12.579 17.359 13.751 17.359C15.874 17.359 17.507 15.12 17.507 11.888C17.507 9.027 15.451 7.028 12.516 7.028C9.118 7.028 7.123 9.577 7.123 12.212C7.123 13.239 7.518 14.339 8.012 14.938C8.05412 14.9832 8.08387 15.0386 8.09841 15.0986C8.11295 15.1587 8.11177 15.2215 8.095 15.281C8.004 15.659 7.802 16.47 7.763 16.636C7.71 16.854 7.59 16.901 7.363 16.795C5.871 16.101 4.939 13.92 4.939 12.168C4.939 8.399 7.676 4.939 12.831 4.939C16.975 4.939 20.196 7.892 20.196 11.838C20.196 15.955 17.601 19.269 13.997 19.269C12.786 19.269 11.649 18.639 11.259 17.896C11.259 17.896 10.66 20.178 10.515 20.736C10.233 21.82 9.451 23.192 8.966 23.971C10.084 24.315 11.27 24.5 12.5 24.5C19.127 24.5 24.5 19.127 24.5 12.5C24.5 5.873 19.127 0.5 12.5 0.5C5.873 0.5 0.5 5.873 0.5 12.5Z" fill="#F9FBFF"/>
</g>
<defs>
<linearGradient id="paint0_linear_1299_11298" x1="12.5" y1="0" x2="12.5" y2="25" gradientUnits="userSpaceOnUse">
<stop stop-color="white"/>
<stop offset="1" stop-color="white" stop-opacity="0"/>
</linearGradient>
<clipPath id="clip0_1299_11298">
<rect width="25" height="25" fill="white"/>
</clipPath>
</defs>
</svg>
