<svg width="29" height="35" viewBox="0 0 29 35" fill="none" xmlns="http://www.w3.org/2000/svg">
<path d="M14.5287 5.6916H18.4902L16.9898 7.19457C16.6013 7.58391 16.6018 8.21457 16.9911 8.60338C17.3797 8.99119 18.0106 8.99193 18.3996 8.60205L21.5949 5.40127C21.989 5.00682 21.9838 4.35856 21.5721 3.97102L18.3997 0.793078C18.0111 0.403738 17.3805 0.403273 16.9911 0.79175C16.6018 1.18062 16.6013 1.81122 16.9898 2.20062L18.4861 3.69941C13.9722 3.69941 14.5352 3.69915 14.4858 3.69915C3.95552 3.69915 -2.72867 15.1597 2.55169 24.3714C2.82509 24.8485 3.43337 25.014 3.91116 24.7404C4.38849 24.4666 4.55344 23.8581 4.28005 23.3808C-0.264396 15.4531 5.55266 5.64645 14.5287 5.6916ZM26.4473 10.6298C26.1739 10.1528 25.565 9.98749 25.0878 10.2609C24.6105 10.5345 24.4455 11.1434 24.7192 11.6207C29.2291 19.4883 23.5371 29.3099 14.4996 29.3099H10.5088L12.0091 27.8069C12.3979 27.4176 12.3974 26.7869 12.0081 26.3981C11.6187 26.0096 10.9879 26.0101 10.5993 26.3995L7.404 29.6002C7.01333 29.9914 7.01127 30.6406 7.4281 31.0318L10.5993 34.2084C10.9879 34.5975 11.6185 34.5986 12.0081 34.2098C12.3974 33.8209 12.3979 33.1903 12.0094 32.8009L10.5131 31.3021H14.5121C25.0478 31.3018 31.7266 19.8397 26.4473 10.6298Z" fill="#316BFF"/>
<path d="M13.5039 14.5125H17.4883C18.0383 14.5125 18.4844 14.0663 18.4844 13.5164C18.4844 12.9662 18.0383 12.5203 17.4883 12.5203H15.4961V11.5242C15.4961 10.974 15.05 10.5281 14.5 10.5281C13.9498 10.5281 13.5039 10.974 13.5039 11.5242V12.5203C11.856 12.5203 10.5156 13.8609 10.5156 15.5085C10.5156 17.1562 11.856 18.4968 13.5039 18.4968H15.4959C16.0453 18.4968 16.4922 18.9435 16.4922 19.4929C16.4922 20.0423 16.0479 20.4893 15.4959 20.4893C14.4666 20.4893 14.5 20.489 14.5 20.489C14.4985 20.489 14.4969 20.4893 14.4954 20.4893L11.5117 20.489C10.9615 20.489 10.5156 20.9349 10.5156 21.4848C10.5154 22.035 10.9613 22.4809 11.5115 22.4812H13.5039V23.4773C13.5039 24.0272 13.9498 24.4734 14.5 24.4734C15.05 24.4734 15.4961 24.0272 15.4961 23.4773V22.4815C17.1475 22.4815 18.4844 21.1453 18.4844 19.4929C18.4844 17.8452 17.1436 16.5046 15.4959 16.5046H13.5039C12.9545 16.5046 12.5078 16.0577 12.5078 15.5085C12.5078 14.9592 12.9545 14.5125 13.5039 14.5125Z" fill="#316BFF"/>
</svg>
