<svg width="35" height="33" viewBox="0 0 35 33" fill="none" xmlns="http://www.w3.org/2000/svg">
<path d="M30.3736 18.0866V16.5124C30.3736 16.38 30.3211 16.2531 30.2275 16.1595C30.1339 16.0659 30.007 16.0133 29.8746 16.0133C29.7423 16.0133 29.6153 16.0659 29.5217 16.1595C29.4281 16.2531 29.3756 16.38 29.3756 16.5124V17.6754C28.6266 17.4292 27.8431 17.304 27.0547 17.3045C26.9966 17.3045 26.938 17.3058 26.8794 17.3072V10.3112C26.8794 10.1789 26.8268 10.0519 26.7333 9.95834C26.6397 9.86475 26.5127 9.81218 26.3804 9.81218H26.1829L28.1275 7.74482L30.072 9.81218H29.8745C29.7422 9.81218 29.6153 9.86475 29.5217 9.95834C29.4281 10.0519 29.3755 10.1789 29.3755 10.3112V14.5649C29.3755 14.8405 29.5989 15.0639 29.8745 15.0639C30.1502 15.0639 30.3736 14.8405 30.3736 14.5649V10.8103H31.2265C31.6506 10.8243 31.8908 10.2686 31.59 9.96936L28.491 6.67468C28.3038 6.46703 27.9511 6.46703 27.764 6.67468L24.665 9.96936C24.3641 10.2687 24.6044 10.8243 25.0285 10.8103H25.8814V14.5542C25.238 13.4714 24.3254 12.5735 23.2323 11.9478V5.88491H24.0852C24.5094 5.89899 24.7495 5.34317 24.4488 5.04401L21.3497 1.7494C21.1625 1.54174 20.8099 1.54174 20.6228 1.7494L17.5237 5.04401C17.2228 5.34324 17.4631 5.89906 17.8872 5.88491H18.7401V11.0488C17.8092 11.1633 16.9095 11.4579 16.0911 11.9161V9.40139H16.944C17.3682 9.41547 17.6083 8.85965 17.3076 8.56042L14.2085 5.26581C14.0213 5.05815 13.6687 5.05815 13.4816 5.26581L10.3825 8.56042C10.0817 8.85971 10.3219 9.4154 10.746 9.40139H11.5989V16.2443C11.361 16.2176 11.1218 16.2042 10.8824 16.204C10.2268 16.2036 9.57511 16.3036 8.94986 16.5005V5.10065H9.80279C10.2269 5.11473 10.467 4.55898 10.1663 4.25975L7.06711 0.965004C6.87998 0.757352 6.5273 0.757352 6.34016 0.965004L3.24105 4.25968C2.94016 4.55898 3.18049 5.11466 3.60456 5.10059H4.45748V9.1938C4.45748 9.32616 4.51006 9.45309 4.60365 9.54668C4.69724 9.64027 4.82417 9.69284 4.95652 9.69284C5.08888 9.69284 5.21581 9.64027 5.3094 9.54668C5.40299 9.45309 5.45557 9.32616 5.45557 9.1938V4.60161C5.45557 4.53607 5.44267 4.47117 5.4176 4.41062C5.39252 4.35007 5.35576 4.29506 5.30942 4.24871C5.26308 4.20237 5.20806 4.16561 5.14751 4.14054C5.08696 4.11546 5.02206 4.10256 4.95652 4.10257H4.75903L6.70361 2.03521L8.64818 4.10257H8.45069C8.31833 4.10257 8.1914 4.15514 8.09781 4.24873C8.00422 4.34232 7.95164 4.46926 7.95164 4.60161V16.9103C6.93271 17.433 6.07055 18.2194 5.45543 19.1788V11.19C5.45543 11.1244 5.44253 11.0595 5.41745 10.999C5.39237 10.9384 5.35561 10.8834 5.30927 10.8371C5.26293 10.7908 5.20791 10.754 5.14737 10.7289C5.08682 10.7038 5.02193 10.6909 4.95639 10.6909C4.89086 10.6909 4.82596 10.7038 4.76542 10.7289C4.70487 10.754 4.64985 10.7908 4.60351 10.8371C4.55717 10.8834 4.52041 10.9384 4.49534 10.999C4.47026 11.0595 4.45735 11.1244 4.45735 11.19V22.1824C4.45575 22.205 4.45376 22.2277 4.45237 22.2504C2.17131 22.7492 0.5 24.7904 0.5 27.1641C0.5 29.9382 2.75695 32.1951 5.53107 32.1951H20.8769C20.9424 32.1951 21.0073 32.1822 21.0679 32.1571C21.1284 32.1321 21.1834 32.0953 21.2298 32.049C21.2761 32.0026 21.3129 31.9476 21.3379 31.8871C21.363 31.8265 21.3759 31.7616 21.3759 31.6961C21.3759 31.6306 21.363 31.5657 21.3379 31.5051C21.3129 31.4446 21.2761 31.3896 21.2298 31.3432C21.1834 31.2969 21.1284 31.2601 21.0679 31.235C21.0073 31.21 20.9424 31.197 20.8769 31.197H5.53107C3.30726 31.197 1.49802 29.3878 1.49802 27.164C1.49802 25.1455 3.00557 23.4269 5.00467 23.1663C5.12515 23.1506 5.23576 23.0915 5.31577 23.0001C5.39577 22.9086 5.43967 22.7911 5.43923 22.6696C5.43915 22.6601 5.43893 22.6505 5.43857 22.641C5.44096 19.6414 7.88205 17.2019 10.8822 17.2019C11.5405 17.2013 12.1934 17.3206 12.8089 17.5539C13.091 17.6687 13.4327 17.4734 13.4774 17.1723C13.9972 14.1702 16.5886 11.9912 19.6393 11.9912C22.9423 11.9912 25.6846 14.5718 25.8824 17.8661C25.9327 18.4868 26.6317 18.2995 27.0548 18.3026C30.6099 18.3026 33.502 21.1949 33.502 24.7499C33.502 28.3049 30.6099 31.1971 27.0548 31.1971H22.8729C22.7406 31.1971 22.6136 31.2497 22.5201 31.3433C22.4265 31.4369 22.3739 31.5638 22.3739 31.6962C22.3739 31.8285 22.4265 31.9554 22.5201 32.049C22.6136 32.1426 22.7406 32.1952 22.8729 32.1952H27.0547C31.16 32.1952 34.5 28.8552 34.5 24.7499C34.5 21.8364 32.8177 19.3089 30.3736 18.0866ZM20.9862 2.8196L22.9308 4.88689H22.7333C22.601 4.88689 22.4741 4.93947 22.3805 5.03306C22.2869 5.12665 22.2343 5.25358 22.2343 5.38593V11.4735C21.4562 11.1744 20.6148 11.0063 19.7382 10.9945V5.38587C19.7382 5.25351 19.6856 5.12658 19.592 5.03299C19.4984 4.9394 19.3715 4.88682 19.2391 4.88682H19.0416L20.9862 2.8196ZM12.6139 16.4404C12.6083 16.4389 12.6025 16.4375 12.5968 16.436V8.90228C12.5968 8.76992 12.5443 8.64299 12.4507 8.5494C12.3571 8.45581 12.2301 8.40323 12.0978 8.40323H11.9004L13.8449 6.33594L15.7895 8.40323H15.5921C15.4597 8.40323 15.3328 8.45581 15.2392 8.5494C15.1456 8.64299 15.093 8.76992 15.093 8.90228V12.5896C13.8993 13.5485 13.0109 14.883 12.6139 16.4404Z" fill="#316BFF"/>
<path d="M19.3048 22.1462C19.3704 22.1462 19.4353 22.1333 19.4958 22.1082C19.5564 22.0831 19.6114 22.0463 19.6577 22C19.7041 21.9537 19.7408 21.8986 19.7659 21.8381C19.791 21.7775 19.8039 21.7127 19.8039 21.6471C19.8039 21.5816 19.791 21.5167 19.7659 21.4561C19.7408 21.3956 19.7041 21.3406 19.6577 21.2942C19.6114 21.2479 19.5564 21.2111 19.4958 21.1861C19.4353 21.161 19.3704 21.1481 19.3048 21.1481H16.9681C16.8357 21.1481 16.7088 21.2007 16.6152 21.2942C16.5216 21.3878 16.469 21.5148 16.469 21.6471V27.193C16.469 27.3254 16.5216 27.4523 16.6152 27.5459C16.7088 27.6395 16.8357 27.6921 16.9681 27.6921H19.3048C19.4372 27.6921 19.5641 27.6395 19.6577 27.5459C19.7513 27.4523 19.8039 27.3254 19.8039 27.193C19.8039 27.0607 19.7513 26.9337 19.6577 26.8402C19.5641 26.7466 19.4372 26.694 19.3048 26.694H17.467V24.9191H19.1325C19.2649 24.9191 19.3918 24.8665 19.4854 24.7729C19.579 24.6793 19.6316 24.5524 19.6316 24.42C19.6316 24.2877 19.579 24.1608 19.4854 24.0672C19.3918 23.9736 19.2649 23.921 19.1325 23.921H17.467V22.1461H19.3048V22.1462ZM13.3895 26.7196C12.7775 26.7196 12.1866 26.4707 11.8089 26.0538C11.72 25.9558 11.5958 25.897 11.4636 25.8905C11.3315 25.884 11.2021 25.9303 11.104 26.0191C11.0059 26.108 10.9472 26.2322 10.9407 26.3644C10.9342 26.4966 10.9804 26.6259 11.0693 26.724C11.6331 27.3462 12.5004 27.7176 13.3894 27.7176C14.4542 27.7176 15.3818 27.0193 15.5472 26.0933C15.7379 25.0251 14.8979 24.3095 14.0482 23.9961C13.3279 23.7304 12.6598 23.4404 12.4912 23.3663C12.3123 23.2352 12.2255 23.0259 12.2581 22.7995C12.299 22.5144 12.518 22.2856 12.844 22.1875C13.7419 21.9168 14.5533 22.5675 14.5693 22.5806C14.671 22.664 14.8015 22.7038 14.9324 22.6915C15.0633 22.6792 15.1841 22.6157 15.2685 22.5149C15.3529 22.414 15.394 22.284 15.383 22.1529C15.372 22.0219 15.3098 21.9005 15.2098 21.8151C15.1602 21.7736 13.9824 20.8023 12.556 21.2318C11.859 21.4419 11.3662 21.9882 11.2701 22.6577C11.1806 23.2811 11.4506 23.8805 11.9746 24.2222C11.9966 24.2366 12.0198 24.2492 12.0438 24.2599C12.076 24.2741 12.8409 24.6146 13.7027 24.9325C14.3214 25.1607 14.6356 25.5199 14.5646 25.918C14.4953 26.3064 14.0599 26.7196 13.3895 26.7196ZM26.8902 24.42C26.8902 22.6018 25.4109 21.1226 23.5927 21.1226C21.7744 21.1226 20.2952 22.6018 20.2952 24.42C20.2952 26.2383 21.7744 27.7175 23.5927 27.7175C25.4109 27.7176 26.8902 26.2383 26.8902 24.42ZM21.2932 24.42C21.2932 23.1521 22.3247 22.1206 23.5926 22.1206C24.8605 22.1206 25.8921 23.1521 25.8921 24.42C25.8921 25.688 24.8605 26.7195 23.5926 26.7195C22.3247 26.7196 21.2932 25.688 21.2932 24.42Z" fill="#316BFF"/>
</svg>
