<svg width="35" height="35" viewBox="0 0 35 35" fill="none" xmlns="http://www.w3.org/2000/svg">
<path fill-rule="evenodd" clip-rule="evenodd" d="M30.0583 34.5022H4.92179C2.4918 34.5022 0.5 32.5104 0.5 30.0605V4.92399C0.5 2.494 2.4918 0.502197 4.92179 0.502197H30.0583C32.5082 0.502197 34.5 2.494 34.5 4.92399V30.0605C34.5 32.5104 32.5082 34.5022 30.0583 34.5022ZM4.92179 1.15949C2.85032 1.15949 1.15729 2.85252 1.15729 4.92399V30.0605C1.15729 32.1519 2.85032 33.8449 4.92179 33.8449H30.0583C32.1497 33.8449 33.8427 32.1519 33.8427 30.0605V4.92399C33.8427 2.85252 32.1497 1.15949 30.0583 1.15949H4.92179Z" fill="#316BFF"/>
<path fill-rule="evenodd" clip-rule="evenodd" d="M29.8791 32.6498H5.10112C3.58735 32.6498 2.33252 31.4149 2.33252 29.8812V5.10326C2.33252 3.58949 3.58735 2.33466 5.10112 2.33466H29.8791C31.4128 2.33466 32.6477 3.58949 32.6477 5.10326V29.8812C32.6477 31.395 31.3929 32.6498 29.8791 32.6498ZM5.10112 2.99195C3.94588 2.99195 2.98981 3.94801 2.98981 5.10326V29.8812C2.98981 31.0564 3.94588 32.0125 5.10112 32.0125H29.8791C31.0343 32.0125 32.0103 31.0365 32.0103 29.8812V5.10326C32.0103 3.94801 31.0543 2.99195 29.8791 2.99195H5.10112Z" fill="#316BFF"/>
<path fill-rule="evenodd" clip-rule="evenodd" d="M27.4888 30.8174H19.0236C18.8443 30.8174 18.685 30.658 18.685 30.4788C18.685 30.2995 18.8443 30.1601 19.0236 30.1601H27.4888C27.668 30.1601 27.8274 30.2995 27.8274 30.4788C27.8274 30.658 27.668 30.8174 27.4888 30.8174ZM14.7412 30.8174H9.40322C9.20405 30.8174 9.06462 30.658 9.06462 30.4788C9.06462 30.2995 9.20405 30.1601 9.40322 30.1601H14.7412C14.9205 30.1601 15.0599 30.2995 15.0599 30.4788C15.0599 30.658 14.9205 30.8174 14.7412 30.8174ZM30.4765 27.511C30.2972 27.511 30.1578 27.3517 30.1578 27.1724V24.2444C30.1578 24.0652 30.2972 23.9258 30.4765 23.9258C30.6557 23.9258 30.8151 24.0652 30.8151 24.2444V27.1724C30.8151 27.3517 30.6557 27.511 30.4765 27.511ZM4.48348 26.0968C4.30422 26.0968 4.16479 25.9375 4.16479 25.7582V19.2649C4.16479 19.0857 4.30422 18.9463 4.48348 18.9463C4.68266 18.9463 4.82209 19.0857 4.82209 19.2649V25.7582C4.82209 25.9375 4.68266 26.0968 4.48348 26.0968ZM30.4765 21.1173C30.2972 21.1173 30.1578 20.9779 30.1578 20.7986V16.5163C30.1578 16.3171 30.2972 16.1777 30.4765 16.1777C30.6557 16.1777 30.8151 16.3171 30.8151 16.5163V20.7986C30.8151 20.9779 30.6557 21.1173 30.4765 21.1173ZM4.48348 16.7752C4.30422 16.7752 4.16479 16.6358 4.16479 16.4565V9.16653C4.16479 8.96735 4.30422 8.82792 4.48348 8.82792C4.68266 8.82792 4.82209 8.96735 4.82209 9.16653V16.4565C4.82209 16.6358 4.68266 16.7752 4.48348 16.7752ZM30.4765 14.146C30.2972 14.146 30.1578 14.0066 30.1578 13.8273V9.32587C30.1578 9.14661 30.2972 9.00718 30.4765 9.00718C30.6557 9.00718 30.8151 9.14661 30.8151 9.32587V13.8273C30.8151 14.0066 30.6557 14.146 30.4765 14.146ZM27.6083 4.82441H23.9234C23.7442 4.82441 23.6047 4.68498 23.6047 4.4858C23.6047 4.30654 23.7442 4.16711 23.9234 4.16711H27.6083C27.7875 4.16711 27.927 4.30654 27.927 4.4858C27.927 4.68498 27.7875 4.82441 27.6083 4.82441ZM20.7366 4.82441H17.4899C17.3107 4.82441 17.1513 4.68498 17.1513 4.4858C17.1513 4.30654 17.3107 4.16711 17.4899 4.16711H20.7366C20.9158 4.16711 21.0552 4.30654 21.0552 4.4858C21.0552 4.68498 20.9158 4.82441 20.7366 4.82441ZM14.9205 4.82441H9.28372C9.10446 4.82441 8.94511 4.68498 8.94511 4.4858C8.94511 4.30654 9.10446 4.16711 9.28372 4.16711H14.9205C15.0998 4.16711 15.2392 4.30654 15.2392 4.4858C15.2392 4.68498 15.0998 4.82441 14.9205 4.82441ZM19.8801 18.2292C19.7805 18.2292 19.7008 18.2093 19.6212 18.1894C19.2427 18.0898 18.924 17.791 18.8045 17.3927C18.7049 17.0341 18.8045 16.6557 19.0834 16.3569L20.9557 14.5045H13.0681C12.3511 14.5045 11.9926 13.9468 11.9926 13.4091C11.9926 12.8713 12.3511 12.3136 13.0681 12.3136H20.9557L19.0834 10.4612C18.8045 10.1823 18.7049 9.8039 18.8045 9.42546C18.924 9.04702 19.2427 8.72833 19.6411 8.62874C19.9996 8.52915 20.3581 8.64866 20.637 8.92751L24.3417 12.6323C24.5409 12.8514 24.6803 13.1103 24.6803 13.4091C24.6803 13.7078 24.5608 13.9867 24.3417 14.2058L20.637 17.9105C20.4179 18.1097 20.1589 18.2292 19.8801 18.2292ZM13.0681 12.9709C12.6499 12.9709 12.6299 13.3692 12.6299 13.4091C12.6299 13.4688 12.6499 13.8672 13.0681 13.8672H21.7524C21.8719 13.8672 22.0113 13.9269 22.0511 14.0664C22.091 14.1859 22.0711 14.3253 21.9715 14.4249L19.5415 16.835C19.422 16.9545 19.3821 17.074 19.422 17.2333C19.4817 17.3927 19.6212 17.5321 19.7805 17.5719C19.9199 17.6118 20.0394 17.5719 20.1589 17.4524L23.8637 13.7277H23.8836C23.9633 13.6481 24.023 13.5286 24.023 13.4091C24.023 13.2896 23.9633 13.19 23.8836 13.1103L23.8637 13.0904L20.1589 9.38563C20.0394 9.26612 19.9199 9.22628 19.7805 9.26612C19.6212 9.30595 19.4817 9.44538 19.4419 9.60472C19.4021 9.74415 19.4419 9.88358 19.5614 10.0031L21.9914 12.4132C22.0711 12.5128 22.1109 12.6522 22.0511 12.7717C22.0113 12.9111 21.8918 12.9709 21.7524 12.9709H13.0681ZM15.0998 26.3956C14.8608 26.3956 14.6018 26.296 14.3628 26.0769L10.6381 22.3522C10.439 22.1331 10.3195 21.8543 10.3195 21.5754C10.3195 21.2966 10.439 21.0177 10.6381 20.7986L14.3628 17.0939C14.8608 16.6159 15.4981 16.7154 15.8766 17.0939C16.2749 17.4524 16.3944 18.1296 15.9164 18.6276L14.0242 20.4999H21.9316C22.6288 20.4999 23.0072 21.0376 23.0072 21.5754C23.0072 22.1132 22.6288 22.651 21.9316 22.651H14.0242L15.8965 24.5233C16.3944 25.0212 16.2749 25.6785 15.8965 26.057C15.6774 26.2562 15.3985 26.3956 15.0998 26.3956ZM11.0963 21.2767C11.0166 21.3563 10.9767 21.4559 10.9767 21.5754C10.9767 21.6949 11.0166 21.7945 11.0963 21.8742L14.8209 25.5989C15.1197 25.8976 15.3985 25.6188 15.4185 25.5989C15.4583 25.559 15.7172 25.2802 15.4384 25.0013L13.0084 22.5713C12.9088 22.4717 12.8889 22.3323 12.9287 22.2128C12.9885 22.0933 13.108 22.0136 13.2474 22.0136H21.9316C22.33 22.0136 22.3499 21.6153 22.3499 21.5754C22.3499 21.5356 22.33 21.1572 21.9316 21.1572H13.2474C13.108 21.1572 12.9885 21.0775 12.9486 20.958C12.8889 20.8186 12.9287 20.699 13.0084 20.5995L15.4384 18.1894C15.7371 17.8906 15.4583 17.5918 15.4185 17.5719C15.3786 17.5122 15.0998 17.2931 14.8408 17.5719L11.0963 21.2767Z" fill="#316BFF"/>
</svg>
