<svg width="37" height="17" viewBox="0 0 37 17" fill="none" xmlns="http://www.w3.org/2000/svg">
<path d="M20.7937 8.5022C22.872 10.5196 25.9283 12.8893 27.8226 12.8893C30.2416 12.8893 32.2097 10.9212 32.2097 8.5022C32.2097 6.08321 30.2416 4.11511 27.8226 4.11511C26.4295 4.11511 24.4075 5.39691 22.6083 6.87793M16.2063 8.5022C14.128 6.48484 11.0716 4.11511 9.17743 4.11511C6.75844 4.11511 4.79034 6.08321 4.79034 8.5022C4.79034 10.9212 6.75844 12.8893 9.17743 12.8893C10.5638 12.8893 12.5732 11.6197 14.3659 10.1477M27.8226 16.1796C24.4586 16.1796 20.4903 12.7913 18.5 10.8581C16.5102 12.7908 12.5417 16.1796 9.17743 16.1796C4.94399 16.1796 1.5 12.7356 1.5 8.5022C1.5 4.26882 4.94399 0.824768 9.17743 0.824768C12.5414 0.824768 16.5097 4.21307 18.5 6.14635C20.4898 4.21362 24.4583 0.824768 27.8226 0.824768C32.0559 0.824768 35.5 4.26876 35.5 8.5022C35.5 12.7356 32.056 16.1796 27.8226 16.1796Z" stroke="#316BFF" stroke-width="1.02616" stroke-miterlimit="10" stroke-linecap="round" stroke-linejoin="round"/>
<path d="M18.4961 10.8539C17.8627 10.2384 17.4304 9.77101 17.2827 9.60854C16.9875 9.28455 16.6464 8.93155 16.272 8.56596M18.5522 6.19746C19.1593 6.78969 19.5734 7.23743 19.7172 7.39573C20.0336 7.74292 20.3875 8.1085 20.7937 8.50214M10.4245 4.37138C7.80416 3.10585 1.5 3.93964 1.5 8.50214M26.5755 12.6329C29.1958 13.8984 35.5 13.0646 35.5 8.50214M5.69746 11.1679C7.00766 13.1406 11.0088 15.2026 15.0063 13.7734M31.3025 5.83639C29.9923 3.8637 25.9912 1.80167 21.9937 3.23091" stroke="#316BFF" stroke-width="1.02616" stroke-miterlimit="10" stroke-linecap="round" stroke-linejoin="round"/>
</svg>
