T<svg width="35" height="35" viewBox="0 0 35 35" fill="none" xmlns="http://www.w3.org/2000/svg">
<path d="M30.1278 14.6866C29.7087 14.6898 29.1429 14.7637 29.0085 14.2505C28.7549 13.3522 28.3946 12.4876 27.9353 11.675C27.8704 11.5598 27.8452 11.4264 27.8639 11.2954C27.8825 11.1645 27.9439 11.0434 28.0384 10.9509C29.1779 10.0403 29.4993 8.49013 28.4262 7.38885L27.6134 6.57604C26.5084 5.50504 24.9667 5.82007 24.0519 6.96385C23.9596 7.05805 23.8389 7.11931 23.7083 7.13822C23.5778 7.15713 23.4447 7.13264 23.3294 7.06851C22.5164 6.6084 21.6509 6.24775 20.7518 5.99432C20.2365 5.8631 20.313 5.28351 20.3156 4.87445C20.3156 4.27937 20.0796 3.7086 19.6593 3.28732C19.239 2.86604 18.6688 2.62867 18.0738 2.62726H16.9263C16.3312 2.62867 15.761 2.86604 15.3407 3.28732C14.9204 3.7086 14.6844 4.27937 14.6844 4.87445C14.6865 5.29573 14.7641 5.85513 14.2482 5.99379C13.35 6.24742 12.4853 6.60769 11.6727 7.06691C11.2137 7.34316 10.8493 6.8677 10.5608 6.57604C10.1395 6.15577 9.56877 5.91974 8.9737 5.91974C8.37864 5.91974 7.80787 6.15577 7.38659 6.57604L6.57378 7.38885C6.15377 7.81026 5.91792 8.38098 5.91792 8.97596C5.91792 9.57094 6.15377 10.1417 6.57378 10.5631C6.87287 10.8558 7.33559 11.2144 7.06625 11.6734C6.60624 12.4861 6.24559 13.3512 5.99206 14.2499C5.95642 14.3768 5.87994 14.4883 5.77449 14.5672C5.66903 14.6462 5.54048 14.6882 5.40875 14.6866C3.95737 14.5294 2.64838 15.3943 2.625 16.9285V18.076C2.64838 19.6049 3.95631 20.4773 5.40875 20.3179C5.54036 20.3163 5.66882 20.3581 5.7742 20.437C5.87958 20.5159 5.95597 20.6273 5.99153 20.754C6.24514 21.6523 6.60541 22.517 7.06466 23.3295C7.34197 23.788 6.86438 24.1546 6.57325 24.442C6.33424 24.6824 6.152 24.9731 6.03988 25.293C5.99268 25.4258 6.00016 25.5719 6.06068 25.6992C6.12121 25.8265 6.22981 25.9245 6.36261 25.9717C6.4954 26.0189 6.64151 26.0114 6.76879 25.9509C6.89606 25.8904 6.99408 25.7818 7.04128 25.649C7.11884 25.3387 7.50028 25.0258 7.71278 24.8054C9.02072 23.457 7.23625 21.9297 7.01419 20.4656C6.91412 20.117 6.70339 19.8104 6.41378 19.5921C6.12418 19.3738 5.77142 19.2556 5.40875 19.2554H4.87219C4.55882 19.2557 4.25813 19.1317 4.03605 18.9106C3.81397 18.6895 3.68863 18.3894 3.6875 18.076V16.9285C3.68863 16.6151 3.81397 16.315 4.03605 16.0939C4.25813 15.8728 4.55882 15.7489 4.87219 15.7491H5.40875C5.77147 15.7489 6.12426 15.6307 6.41394 15.4124C6.70362 15.1941 6.91448 14.8875 7.01472 14.5389C7.24542 13.721 7.57361 12.9337 7.99222 12.194C8.16817 11.8761 8.23606 11.5095 8.18566 11.1497C8.13526 10.7898 7.96931 10.456 7.71278 10.1986L7.32497 9.81135C7.10379 9.58949 6.97958 9.28898 6.97958 8.9757C6.97958 8.66241 7.10379 8.36191 7.32497 8.14004L8.13778 7.32723C8.35958 7.10591 8.66011 6.98162 8.97344 6.98162C9.28676 6.98162 9.5873 7.10591 9.80909 7.32723L10.1969 7.71504C11.5463 9.02457 13.0763 7.23585 14.5367 7.01645C14.8853 6.91638 15.1919 6.70565 15.4102 6.41604C15.6285 6.12644 15.7467 5.77368 15.7469 5.41101V4.87445C15.7466 4.56108 15.8706 4.26039 16.0917 4.03831C16.3128 3.81623 16.6129 3.69088 16.9263 3.68976H18.0738C18.3871 3.69088 18.6872 3.81623 18.9083 4.03831C19.1294 4.26039 19.2534 4.56108 19.2531 4.87445V5.41101C19.2534 5.77373 19.3716 6.12652 19.5899 6.4162C19.8082 6.70588 20.1147 6.91673 20.4633 7.01698C22.2494 7.36123 23.6248 9.26682 25.1904 7.32723C25.4124 7.10614 25.713 6.98202 26.0263 6.98202C26.3396 6.98202 26.6402 7.10614 26.8622 7.32723L27.675 8.14004C27.8963 8.36184 28.0206 8.66237 28.0206 8.9757C28.0206 9.28902 27.8963 9.58955 27.675 9.81135L27.2872 10.1992C25.9782 11.5501 27.7653 13.078 27.9858 14.5389C28.0859 14.8875 28.2966 15.1941 28.5862 15.4124C28.8758 15.6307 29.2286 15.7489 29.5912 15.7491H30.1278C30.4412 15.7489 30.7419 15.8728 30.9639 16.0939C31.186 16.315 31.3114 16.6151 31.3125 16.9285V18.076C31.3114 18.3894 31.186 18.6895 30.9639 18.9106C30.7419 19.1317 30.4412 19.2557 30.1278 19.2554H29.5912C29.2285 19.2557 28.8757 19.3739 28.5861 19.5921C28.2964 19.8104 28.0855 20.117 27.9853 20.4656C27.7691 21.9228 25.9761 23.4507 27.2872 24.8059C27.4795 25.0024 27.887 25.3494 27.9587 25.649C28.0059 25.7818 28.1039 25.8904 28.2312 25.9509C28.3585 26.0114 28.5046 26.0189 28.6374 25.9717C28.7702 25.9245 28.8788 25.8265 28.9393 25.6992C28.9998 25.5719 29.0073 25.4258 28.9601 25.293C28.8477 24.973 28.6653 24.6821 28.4262 24.4414C28.1298 24.1519 27.6612 23.7843 27.9338 23.3311C28.3938 22.5184 28.7544 21.6534 29.0079 20.7546C29.0436 20.6277 29.1201 20.5162 29.2255 20.4373C29.331 20.3583 29.4595 20.3164 29.5912 20.3179C31.0432 20.4746 32.3511 19.6113 32.375 18.076V16.9285C32.3736 16.3334 32.1362 15.7632 31.7149 15.3429C31.2937 14.9227 30.7229 14.6866 30.1278 14.6866Z" fill="#316BFF"/>
<path d="M24.9377 17.5023C24.9355 15.5304 24.1512 13.64 22.7569 12.2456C21.3626 10.8513 19.4721 10.067 17.5002 10.0648C7.63334 10.4733 7.63653 24.5328 17.5002 24.9398C19.4721 24.9375 21.3626 24.1532 22.7569 22.7589C24.1512 21.3646 24.9355 19.4741 24.9377 17.5023ZM11.1252 17.5023C11.1271 15.8121 11.7993 14.1916 12.9945 12.9965C14.1896 11.8013 15.8101 11.1291 17.5002 11.1273C25.9577 11.4774 25.9551 23.5288 17.5002 23.8773C15.8101 23.8754 14.1896 23.2032 12.9945 22.008C11.7993 20.8129 11.1271 19.1925 11.1252 17.5023ZM29.719 27.0648H5.28149C1.77843 27.1737 1.76568 32.2641 5.28149 32.3773H29.719C33.2221 32.2684 33.2348 27.1779 29.719 27.0648ZM21.7502 31.3148H5.28149C4.85881 31.3148 4.45343 31.1468 4.15454 30.848C3.85566 30.5491 3.68774 30.1437 3.68774 29.721C3.68774 29.2983 3.85566 28.8929 4.15454 28.5941C4.45343 28.2952 4.85881 28.1273 5.28149 28.1273H21.7502C22.1729 28.1273 22.5783 28.2952 22.8772 28.5941C23.1761 28.8929 23.344 29.2983 23.344 29.721C23.344 30.1437 23.1761 30.5491 22.8772 30.848C22.5783 31.1468 22.1729 31.3148 21.7502 31.3148ZM29.719 31.3148H23.8614C24.2096 30.8564 24.3981 30.2966 24.3981 29.721C24.3981 29.1454 24.2096 28.5856 23.8614 28.1273H29.719C30.1417 28.1273 30.5471 28.2952 30.8459 28.5941C31.1448 28.8929 31.3127 29.2983 31.3127 29.721C31.3127 30.1437 31.1448 30.5491 30.8459 30.848C30.5471 31.1468 30.1417 31.3148 29.719 31.3148Z" fill="#316BFF"/>
<path d="M5.96721 28.6925C5.8353 28.6431 5.68921 28.6479 5.56082 28.7058C5.43243 28.7637 5.33216 28.8701 5.2819 29.0017L4.87921 30.0642C4.82927 30.196 4.83372 30.3422 4.89161 30.4708C4.94949 30.5993 5.05606 30.6996 5.18787 30.7495C5.31968 30.7995 5.46593 30.795 5.59445 30.7371C5.72297 30.6792 5.82323 30.5727 5.87318 30.4408L6.27587 29.3783C6.32573 29.2465 6.32123 29.1003 6.26336 28.9718C6.20548 28.8433 6.09897 28.7425 5.96721 28.6925ZM9.18818 28.6925C9.05627 28.6431 8.91018 28.6479 8.78179 28.7058C8.65339 28.7637 8.55313 28.8701 8.50287 29.0017L8.10018 30.0642C8.05191 30.1956 8.05742 30.3407 8.11552 30.468C8.17363 30.5953 8.27963 30.6946 8.41049 30.7442C8.54135 30.7938 8.68651 30.7898 8.81442 30.733C8.94233 30.6762 9.04267 30.5712 9.09362 30.4408L9.49684 29.3783C9.5467 29.2465 9.5422 29.1003 9.48433 28.9718C9.42645 28.8433 9.31994 28.7425 9.18818 28.6925ZM12.4086 28.6925C12.2767 28.6431 12.1306 28.6479 12.0022 28.7058C11.8738 28.7637 11.7736 28.8701 11.7233 29.0017L11.3206 30.0642C11.2959 30.1295 11.2843 30.199 11.2864 30.2687C11.2885 30.3385 11.3044 30.4071 11.333 30.4708C11.3617 30.5344 11.4026 30.5918 11.4534 30.6396C11.5043 30.6874 11.564 30.7248 11.6293 30.7495C11.6945 30.7742 11.764 30.7859 11.8338 30.7837C11.9036 30.7816 11.9722 30.7658 12.0359 30.7371C12.0995 30.7084 12.1569 30.6675 12.2047 30.6167C12.2525 30.5659 12.2899 30.5061 12.3146 30.4408L12.7173 29.3783C12.7671 29.2465 12.7626 29.1003 12.7048 28.9718C12.6469 28.8433 12.5404 28.7425 12.4086 28.6925ZM15.6296 28.6925C15.4977 28.6431 15.3516 28.6479 15.2232 28.7058C15.0948 28.7637 14.9945 28.8701 14.9443 29.0017L14.5416 30.0642C14.516 30.1296 14.5037 30.1994 14.5053 30.2696C14.5069 30.3398 14.5223 30.409 14.5508 30.4732C14.5793 30.5374 14.6203 30.5953 14.6713 30.6435C14.7223 30.6918 14.7824 30.7295 14.848 30.7543C14.9137 30.7792 14.9836 30.7909 15.0538 30.7886C15.124 30.7863 15.193 30.7701 15.2569 30.7409C15.3208 30.7118 15.3783 30.6702 15.426 30.6187C15.4738 30.5672 15.5108 30.5068 15.535 30.4408L15.9382 29.3783C15.9881 29.2465 15.9836 29.1003 15.9257 28.9718C15.8679 28.8433 15.7613 28.7425 15.6296 28.6925ZM18.8506 28.6925C18.7186 28.6431 18.5726 28.6479 18.4442 28.7058C18.3158 28.7637 18.2155 28.8701 18.1652 29.0017L17.7626 30.0642C17.7378 30.1295 17.7262 30.199 17.7283 30.2687C17.7304 30.3385 17.7463 30.4071 17.775 30.4708C17.8036 30.5344 17.8445 30.5918 17.8954 30.6396C17.9462 30.6874 18.0059 30.7248 18.0712 30.7495C18.1365 30.7742 18.206 30.7859 18.2757 30.7837C18.3455 30.7816 18.4142 30.7658 18.4778 30.7371C18.5414 30.7084 18.5988 30.6675 18.6466 30.6167C18.6944 30.5659 18.7318 30.5061 18.7565 30.4408L19.1592 29.3783C19.2091 29.2465 19.2046 29.1003 19.1467 28.9718C19.0888 28.8433 18.9823 28.7425 18.8506 28.6925ZM22.071 28.6925C21.9391 28.6431 21.793 28.6479 21.6646 28.7058C21.5362 28.7637 21.4359 28.8701 21.3857 29.0017L20.9835 30.0642C20.9352 30.1956 20.9408 30.3407 20.9989 30.468C21.057 30.5953 21.163 30.6946 21.2938 30.7442C21.4247 30.7938 21.5699 30.7898 21.6978 30.733C21.8257 30.6762 21.926 30.5712 21.977 30.4408L22.3802 29.3783C22.43 29.2465 22.4254 29.1002 22.3675 28.9717C22.3095 28.8432 22.2028 28.7424 22.071 28.6925Z" fill="#316BFF"/>
</svg>
