<svg width="37" height="37" viewBox="0 0 37 37" fill="none" xmlns="http://www.w3.org/2000/svg">
<path d="M9.23899 31.5378H4.59562M6.9088 15.3413H9.75491M6.9088 18.0751H9.75491M6.9088 20.8088H9.75491M4.07964 15.3413H4.37838M4.07964 18.0751H4.37838M4.07964 20.8088H4.37838M6.53212 1.50073V5.52046M1.5 1.50073V4.26677C1.5 4.73785 1.73816 5.055 2.14266 5.3086C2.33969 5.43214 2.58851 5.52012 2.89778 5.52053C3.16557 5.52087 3.38943 5.46006 3.57446 5.36859C4.0459 5.13565 4.34652 4.78184 4.34652 4.2639V1.50073M17.5916 1.50073L20.4735 5.52046M20.2707 1.50073L17.3848 5.52046M12.8817 1.50073V4.26677C12.8817 4.73785 13.1199 5.055 13.5244 5.3086C13.7214 5.43214 13.9702 5.52012 14.2795 5.52053C14.5473 5.52087 14.7711 5.46006 14.9562 5.36859C15.4276 5.13565 15.7282 4.78184 15.7282 4.2639V1.50073M10.6543 1.50073L8.92198 5.52046M1.5 8.80978H35.5M31.8548 1.51441H35.5M35.5 3.51056H31.8548M35.5 5.50678H31.8548M4.34722 27.5749H2.89436C2.12426 27.5749 1.5 28.1874 1.5 28.9431V34.1325C1.5 34.8882 2.12426 35.5007 2.89436 35.5007H10.9403C11.7104 35.5007 12.3346 34.8882 12.3346 34.1325V28.9431C12.3346 28.1874 11.7104 27.5749 10.9403 27.5749H6.78735M1.5 18.1047V22.6702C1.5 23.4259 2.12426 24.0384 2.89436 24.0384H10.9403C11.7104 24.0384 12.3346 23.4259 12.3346 22.6702V13.4799C12.3346 12.7242 11.7104 12.1117 10.9403 12.1117H2.89436C2.12426 12.1117 1.5 12.7242 1.5 13.4799V15.7103M34.1056 35.5007H16.9793C16.2092 35.5007 15.5849 34.8882 15.5849 34.1325V13.4799C15.5849 12.7242 16.2092 12.1117 16.9793 12.1117H34.1056C34.8757 12.1117 35.5 12.7242 35.5 13.4799V34.1325C35.5 34.8882 34.8757 35.5007 34.1056 35.5007Z" stroke="#316BFF" stroke-width="1.04112" stroke-miterlimit="10" stroke-linecap="round" stroke-linejoin="round"/>
<path d="M20.7263 21.9097C21.2702 24.0229 23.22 25.5871 25.5426 25.5871C28.2862 25.5871 30.5103 23.4047 30.5103 20.7125C30.5103 18.0204 28.2862 15.838 25.5426 15.838C23.22 15.838 21.2702 17.4021 20.7263 19.5153M30.0828 31.957H21.0023C20.0905 31.957 19.3513 31.2317 19.3513 30.3369C19.3513 29.4422 20.0905 28.7169 21.0023 28.7169H30.0828C30.9946 28.7169 31.7337 29.4422 31.7337 30.3369C31.7337 31.2317 30.9946 31.957 30.0828 31.957Z" stroke="#316BFF" stroke-width="1.04112" stroke-miterlimit="10" stroke-linecap="round" stroke-linejoin="round"/>
</svg>
