<svg width="27" height="27" viewBox="0 0 27 27" fill="none" xmlns="http://www.w3.org/2000/svg">
  <path
    d="M24.8245 11.6219H23.6112V22.1663H3.38897V6.27745H5.55563V4.83301H3.20841C3.03958 4.83583 2.87296 4.87188 2.71807 4.93911C2.56318 5.00633 2.42304 5.10341 2.30568 5.22481C2.18831 5.3462 2.09601 5.48952 2.03404 5.64659C1.97207 5.80366 1.94165 5.9714 1.94452 6.14023V22.3036C1.94165 22.4724 1.97207 22.6401 2.03404 22.7972C2.09601 22.9543 2.18831 23.0976 2.30568 23.219C2.42304 23.3404 2.56318 23.4375 2.71807 23.5047C2.87296 23.5719 3.03958 23.608 3.20841 23.6108H23.7917C23.9606 23.608 24.1272 23.5719 24.2821 23.5047C24.437 23.4375 24.5771 23.3404 24.6945 23.219C24.8118 23.0976 24.9041 22.9543 24.9661 22.7972C25.0281 22.6401 25.0585 22.4724 25.0556 22.3036V11.6075L24.8245 11.6219Z"
    fill="#101E43" />
  <path d="M6.27783 10.6113H7.72228V12.0558H6.27783V10.6113Z" fill="#101E43" />
  <path d="M10.6111 10.6113H12.0555V12.0558H10.6111V10.6113Z" fill="#101E43" />
  <path d="M6.27783 14.2227H7.72228V15.6671H6.27783V14.2227Z" fill="#101E43" />
  <path d="M10.6111 14.2227H12.0555V15.6671H10.6111V14.2227Z" fill="#101E43" />
  <path d="M14.9446 14.2227H16.389V15.6671H14.9446V14.2227Z" fill="#101E43" />
  <path d="M19.2778 14.2227H20.7223V15.6671H19.2778V14.2227Z" fill="#101E43" />
  <path d="M6.27783 17.833H7.72228V19.2775H6.27783V17.833Z" fill="#101E43" />
  <path d="M10.6111 17.833H12.0555V19.2775H10.6111V17.833Z" fill="#101E43" />
  <path d="M14.9446 17.833H16.389V19.2775H14.9446V17.833Z" fill="#101E43" />
  <path d="M19.2778 17.833H20.7223V19.2775H19.2778V17.833Z" fill="#101E43" />
  <path
    d="M7.72222 7.72211C7.91377 7.72211 8.09747 7.64602 8.23291 7.51058C8.36835 7.37514 8.44444 7.19144 8.44444 6.99989V2.66656C8.44444 2.47501 8.36835 2.29131 8.23291 2.15587C8.09747 2.02043 7.91377 1.94434 7.72222 1.94434C7.53068 1.94434 7.34698 2.02043 7.21153 2.15587C7.07609 2.29131 7 2.47501 7 2.66656V6.99989C7 7.19144 7.07609 7.37514 7.21153 7.51058C7.34698 7.64602 7.53068 7.72211 7.72222 7.72211Z"
    fill="#101E43" />
  <path
    d="M19.8917 1.32309L15.7606 8.4442C15.6644 8.58527 15.6093 8.7502 15.6011 8.92071C15.593 9.09121 15.6323 9.26064 15.7145 9.41021C15.7968 9.55978 15.9189 9.68365 16.0672 9.7681C16.2156 9.85255 16.3844 9.89427 16.555 9.88865H24.8244C24.9951 9.89427 25.1639 9.85255 25.3122 9.7681C25.4606 9.68365 25.5827 9.55978 25.6649 9.41021C25.7472 9.26064 25.7864 9.09121 25.7783 8.92071C25.7702 8.7502 25.715 8.58527 25.6189 8.4442L21.4878 1.32309C21.4063 1.18374 21.2898 1.06815 21.1498 0.987827C21.0097 0.9075 20.8511 0.865234 20.6897 0.865234C20.5283 0.865234 20.3697 0.9075 20.2297 0.987827C20.0897 1.06815 19.9731 1.18374 19.8917 1.32309Z"
    fill="#101E43" />
</svg>