<svg width="18" height="25" viewBox="0 0 18 25" fill="none" xmlns="http://www.w3.org/2000/svg">
  <path
    d="M8.92857 1.78571C9.81152 1.78571 10.6746 2.04754 11.4088 2.53808C12.1429 3.02862 12.7151 3.72585 13.053 4.54159C13.3909 5.35733 13.4793 6.25495 13.3071 7.12094C13.1348 7.98693 12.7096 8.78239 12.0853 9.40673C11.461 10.0311 10.6655 10.4563 9.79951 10.6285C8.93353 10.8008 8.03591 10.7124 7.22016 10.3745C6.40442 10.0366 5.7072 9.46437 5.21665 8.73022C4.72611 7.99608 4.46429 7.13295 4.46429 6.25C4.46429 5.066 4.93463 3.93049 5.77184 3.09327C6.60906 2.25606 7.74457 1.78571 8.92857 1.78571ZM8.92857 0C7.69244 0 6.48407 0.366556 5.45626 1.05331C4.42845 1.74007 3.62737 2.71619 3.15432 3.85823C2.68128 5.00027 2.55751 6.25693 2.79866 7.46931C3.03982 8.6817 3.63508 9.79534 4.50915 10.6694C5.38323 11.5435 6.49688 12.1387 7.70926 12.3799C8.92164 12.6211 10.1783 12.4973 11.3203 12.0242C12.4624 11.5512 13.4385 10.7501 14.1253 9.72231C14.812 8.69451 15.1786 7.48613 15.1786 6.25C15.1786 4.5924 14.5201 3.00268 13.348 1.83058C12.1759 0.65848 10.5862 0 8.92857 0ZM17.8571 25H16.0714V20.5357C16.0714 19.9495 15.956 19.3689 15.7316 18.8273C15.5073 18.2857 15.1784 17.7935 14.7639 17.379C14.3493 16.9644 13.8572 16.6356 13.3156 16.4113C12.7739 16.1869 12.1934 16.0714 11.6071 16.0714H6.25C5.066 16.0714 3.93049 16.5418 3.09327 17.379C2.25606 18.2162 1.78571 19.3517 1.78571 20.5357V25H0V20.5357C0 18.8781 0.658481 17.2884 1.83058 16.1163C3.00269 14.9442 4.5924 14.2857 6.25 14.2857H11.6071C13.2647 14.2857 14.8545 14.9442 16.0266 16.1163C17.1987 17.2884 17.8571 18.8781 17.8571 20.5357V25Z"
    fill="#101E43" />
</svg>