<svg width="39" height="38" viewBox="0 0 39 38" fill="none" xmlns="http://www.w3.org/2000/svg">
  <path
    d="M21.024 0C9.59363 0 0.341797 9.25027 0.341797 20.6822C0.341797 21.2976 0.840696 21.7965 1.45612 21.7965H21.024C21.6394 21.7965 22.1383 21.2976 22.1383 20.6822V1.11432C22.1383 0.498899 21.6394 0 21.024 0ZM13.096 25.0182C13 24.8429 12.8586 24.6967 12.6867 24.5948C12.5148 24.493 12.3186 24.4392 12.1188 24.4392H5.52858C5.35368 24.4393 5.18124 24.4805 5.02521 24.5595C4.86918 24.6385 4.73394 24.7532 4.63043 24.8942C4.52693 25.0351 4.45806 25.1985 4.4294 25.371C4.40074 25.5436 4.4131 25.7205 4.46547 25.8873C6.56431 32.5722 12.618 37.5421 19.9097 38V29.6474C18.4884 29.4708 17.1295 28.959 15.9448 28.1541C14.7602 27.3492 13.7838 26.2744 13.096 25.0182ZM26.2291 4.12375C26.0622 4.07133 25.8854 4.05893 25.7128 4.08757C25.5402 4.11621 25.3768 4.18508 25.2358 4.28861C25.0948 4.39213 24.9802 4.5274 24.9012 4.68347C24.8222 4.83953 24.781 5.01201 24.781 5.18694V11.7771C24.7811 11.9769 24.8348 12.173 24.9367 12.3449C25.0385 12.5168 25.1847 12.6582 25.3599 12.7542C26.6162 13.442 27.6909 14.4185 28.4958 15.6031C29.3006 16.7877 29.8125 18.1467 29.9891 19.5679H38.3418C37.8828 12.2604 32.8981 6.21769 26.2291 4.12375ZM29.9905 21.7965C29.485 25.8895 26.2314 29.1432 22.1383 29.6487V37.9992C30.8333 37.4519 37.7929 30.5033 38.341 21.7965H29.9905Z"
    fill="currentColor" />
</svg>
  