<svg width="39" height="42" viewBox="0 0 39 42" fill="none" xmlns="http://www.w3.org/2000/svg">
  <path fill-rule="evenodd" clip-rule="evenodd"
    d="M19.3525 0.799805H19.3116C19.2708 0.799805 19.2257 0.799805 19.1811 0.80831C18.8631 0.844044 18.57 0.997088 18.3589 1.23751C18.1478 1.47794 18.034 1.78846 18.0397 2.10836V4.68846C18.0337 4.85899 18.0616 5.02901 18.1218 5.18866C18.182 5.34831 18.2734 5.49441 18.3905 5.61847C18.5077 5.74254 18.6483 5.8421 18.8043 5.91138C18.9602 5.98066 19.1283 6.01828 19.2989 6.02205C19.4695 6.02582 19.6392 5.99568 19.798 5.93336C19.9569 5.87104 20.1018 5.7778 20.2243 5.65904C20.3468 5.54027 20.4445 5.39836 20.5117 5.24153C20.579 5.0847 20.6144 4.91608 20.6159 4.74545V2.10836C20.6216 1.76737 20.4918 1.43805 20.2549 1.19272C20.018 0.947378 19.6934 0.806066 19.3525 0.799805ZM9.34504 8.34067C9.32888 8.32876 9.31654 8.31643 9.30421 8.3041L7.47811 6.48607C7.35872 6.36203 7.21572 6.26313 7.05752 6.19521C6.89932 6.12729 6.72913 6.09171 6.55697 6.09057C6.5119 6.09057 6.46724 6.09057 6.42259 6.09908C6.25416 6.11679 6.09088 6.16755 5.9421 6.24845C5.79332 6.32935 5.66196 6.43881 5.55554 6.57055C5.44912 6.70229 5.36973 6.85373 5.32192 7.0162C5.27411 7.17866 5.25882 7.34896 5.27692 7.51735C5.30966 7.81504 5.4483 8.09231 5.66008 8.3041L7.47811 10.1302C7.59544 10.2528 7.73581 10.351 7.89117 10.4192C8.04653 10.4874 8.21383 10.5243 8.38348 10.5278C8.55313 10.5312 8.72178 10.5011 8.87978 10.4393C9.03778 10.3774 9.18201 10.2849 9.30421 10.1672C9.42711 10.0501 9.52569 9.90993 9.59428 9.75466C9.66288 9.59939 9.70014 9.43211 9.70393 9.26241C9.70773 9.09271 9.67797 8.92393 9.61639 8.76576C9.5548 8.60758 9.46258 8.46312 9.34504 8.34067ZM33.0078 6.48225C32.8847 6.3572 32.7373 6.2587 32.5746 6.1928C32.4119 6.1269 32.2375 6.09501 32.062 6.09908C31.7284 6.10953 31.4116 6.24813 31.1775 6.48607L29.3514 8.3041C29.1046 8.54152 28.9622 8.86714 28.9552 9.2095C28.9483 9.55185 29.0775 9.88298 29.3144 10.1302C29.4315 10.2531 29.5717 10.3517 29.7269 10.4203C29.8822 10.4889 30.0495 10.5261 30.2192 10.5299C30.3889 10.5337 30.5576 10.504 30.7158 10.4424C30.874 10.3808 31.0185 10.2886 31.1409 10.171C31.1528 10.1587 31.1652 10.1425 31.1775 10.1302L32.9955 8.3041C33.116 8.18529 33.2118 8.04392 33.2776 7.88806C33.3434 7.7322 33.3779 7.56491 33.3791 7.39573C33.3802 7.22655 33.348 7.0588 33.2843 6.90206C33.2206 6.74533 33.1267 6.60267 33.0078 6.48225ZM3.92371 18.8661H1.28237C0.945612 18.8662 0.622273 18.9981 0.381564 19.2336C0.140855 19.4691 0.00190445 19.7895 -0.00554379 20.1261C-0.012992 20.4628 0.111654 20.789 0.341712 21.0349C0.571771 21.2809 0.888959 21.4269 1.22538 21.4419H3.86247C4.03195 21.4461 4.20059 21.4168 4.35875 21.3558C4.5169 21.2947 4.66145 21.203 4.78414 21.086C4.90683 20.969 5.00524 20.829 5.07374 20.6739C5.14225 20.5188 5.17949 20.3518 5.18336 20.1823C5.19021 19.8408 5.0615 19.5106 4.82542 19.2638C4.58934 19.0171 4.26511 18.8743 3.92371 18.8661ZM37.4306 18.8661H34.7931C34.4564 18.8662 34.133 18.9981 33.8923 19.2336C33.6516 19.4691 33.5127 19.7895 33.5052 20.1261C33.4978 20.4628 33.6224 20.789 33.8525 21.0349C34.0825 21.2809 34.3997 21.4269 34.7361 21.4419H37.3732C37.7149 21.4495 38.0455 21.321 38.2924 21.0848C38.5393 20.8485 38.6823 20.5239 38.6899 20.1823C38.6967 19.8408 38.568 19.5106 38.3319 19.2638C38.0958 19.0171 37.7716 18.8739 37.4302 18.8656L37.4306 18.8661ZM9.34079 30.1808C9.21644 30.0519 9.06671 29.9502 8.90106 29.8821C8.73541 29.814 8.55744 29.7811 8.3784 29.7853H8.36224C8.02791 29.7965 7.71091 29.9367 7.47768 30.1765L5.65966 32.003C5.40042 32.2259 5.24022 32.5425 5.21422 32.8834C5.18823 33.2242 5.29857 33.5615 5.52102 33.8211C5.64215 33.9619 5.79227 34.075 5.96112 34.1525C6.12997 34.23 6.31356 34.2701 6.49935 34.2701C6.68514 34.2701 6.86873 34.23 7.03758 34.1525C7.20643 34.075 7.35655 33.9619 7.47768 33.8211L9.30379 32.003C9.4259 31.8858 9.52372 31.7457 9.59167 31.5907C9.65962 31.4357 9.69636 31.2688 9.69979 31.0996C9.70323 30.9303 9.67329 30.7621 9.61169 30.6045C9.55009 30.4468 9.45804 30.3028 9.34079 30.1808ZM33.1499 32.1583C33.1025 32.1025 33.0507 32.0506 32.9951 32.003L31.1771 30.1769C31.0574 30.0535 30.9143 29.9553 30.7561 29.8881C30.5979 29.8209 30.4278 29.7861 30.2559 29.7857C30.0865 29.7847 29.9185 29.8172 29.7616 29.8812C29.6047 29.9453 29.462 30.0396 29.3416 30.1589C29.2212 30.2781 29.1255 30.4199 29.06 30.5762C28.9944 30.7325 28.9604 30.9001 28.9597 31.0696C28.9555 31.42 29.0979 31.7585 29.351 32.003L31.1771 33.8211C31.3984 34.0815 31.7137 34.2439 32.0542 34.2729C32.3947 34.3019 32.7329 34.1951 32.9951 33.9759C33.1249 33.8669 33.2319 33.7333 33.31 33.5828C33.3881 33.4323 33.4357 33.2679 33.45 33.099C33.4644 32.9301 33.4453 32.76 33.3938 32.5985C33.3423 32.437 33.2594 32.2877 33.1499 32.1583ZM24.0491 39.6706C24.0454 39.8762 24.001 40.079 23.9185 40.2673C23.836 40.4556 23.717 40.6258 23.5684 40.7679C23.4199 40.91 23.2446 41.0213 23.0529 41.0954C22.8611 41.1695 22.6565 41.2049 22.451 41.1995H16.2067C15.8036 41.2116 15.4112 41.0676 15.1116 40.7975C14.8121 40.5274 14.6283 40.152 14.5988 39.7497C14.5685 39.3359 14.7035 38.9268 14.9743 38.6124C15.2452 38.298 15.6296 38.1038 16.0434 38.0725C16.0485 38.0725 16.0485 38.0678 16.0485 38.0678C16.103 38.0678 16.1523 38.0678 16.2067 38.0725H22.5203C22.7257 38.0766 22.9283 38.1213 23.1165 38.2039C23.3046 38.2866 23.4746 38.4055 23.6166 38.554C23.7587 38.7025 23.87 38.8776 23.9442 39.0692C24.0185 39.2608 24.0541 39.4652 24.0491 39.6706ZM19.3278 8.55245C12.936 8.55245 7.72646 13.762 7.72646 20.1538C7.72646 24.1445 9.80603 27.613 12.8833 29.6964V34.2659C12.8834 34.6075 13.0191 34.9351 13.2607 35.1766C13.5022 35.4182 13.8298 35.5539 14.1714 35.554H24.4842C24.8259 35.554 25.1537 35.4183 25.3953 35.1766C25.637 34.935 25.7727 34.6072 25.7727 34.2655V29.6968C28.8496 27.613 30.9283 24.1445 30.9283 20.1538C30.9283 13.762 25.7192 8.55245 19.3278 8.55245ZM19.3235 16.2894C18.8151 16.2872 18.3113 16.3858 17.8412 16.5795C17.3711 16.7732 16.944 17.0581 16.5847 17.4179C16.2254 17.7776 15.941 18.205 15.7479 18.6753C15.5547 19.1457 15.4567 19.6496 15.4596 20.158C15.4596 20.8712 14.8846 21.45 14.171 21.45C13.4574 21.45 12.879 20.8712 12.879 20.158C12.879 16.6155 15.7772 13.7093 19.3235 13.7093C19.4928 13.7089 19.6605 13.7419 19.817 13.8065C19.9735 13.8711 20.1157 13.966 20.2354 14.0856C20.3551 14.2053 20.4501 14.3475 20.5147 14.504C20.5793 14.6604 20.6124 14.8281 20.6121 14.9974C20.6125 15.1669 20.5795 15.3348 20.5149 15.4915C20.4503 15.6482 20.3555 15.7906 20.2358 15.9106C20.1161 16.0306 19.9739 16.1259 19.8174 16.1908C19.6608 16.2558 19.493 16.2893 19.3235 16.2894Z"
    fill="currentColor" />
</svg>
  