<svg width="38" height="38" viewBox="0 0 38 38" fill="none" xmlns="http://www.w3.org/2000/svg">
  <path
    d="M22.6705 14.2538C22.4322 14.2539 22.1994 14.1821 22.0024 14.048L19.0009 12.0058L15.9994 14.048C15.8001 14.1837 15.5642 14.2555 15.3231 14.2539C15.0821 14.2524 14.8472 14.1774 14.6497 14.0391C14.4522 13.9007 14.3016 13.7055 14.2178 13.4795C14.1339 13.2534 14.1209 13.0072 14.1804 12.7736L15.1255 9.0486L12.2934 6.63123C12.1126 6.47736 11.9821 6.27283 11.9187 6.04405C11.8553 5.81527 11.862 5.57275 11.9378 5.34779C12.0137 5.12284 12.1552 4.92578 12.3442 4.78206C12.5331 4.63835 12.7608 4.55458 12.9978 4.54156L16.5835 4.33893L17.888 0.784907C17.97 0.555192 18.1211 0.35646 18.3204 0.215943C18.5198 0.0754262 18.7578 0 19.0017 0C19.2456 0 19.4836 0.0754262 19.6829 0.215943C19.8823 0.35646 20.0334 0.555192 20.1154 0.784907L21.4198 4.33893L25.0055 4.54156C25.2426 4.55458 25.4703 4.63835 25.6592 4.78206C25.8482 4.92578 25.9897 5.12284 26.0655 5.34779C26.1414 5.57275 26.148 5.81527 26.0846 6.04405C26.0213 6.27283 25.8908 6.47736 25.71 6.63123L22.8779 9.05018L23.823 12.7752C23.8673 12.9505 23.8711 13.1336 23.8339 13.3106C23.7967 13.4876 23.7196 13.6537 23.6084 13.7964C23.4972 13.939 23.3549 14.0544 23.1924 14.1336C23.0298 14.2129 22.8513 14.254 22.6705 14.2538ZM36.8106 30.0846H29.2909V36.8127C29.2909 37.2243 29.2118 37.6359 29.0851 38H36.8106C37.4596 38 37.9979 37.4618 37.9979 36.8127V31.2719C37.9979 30.6228 37.4596 30.0846 36.8106 30.0846ZM8.71086 26.9184H1.19122C0.542154 26.9184 0.00390625 27.4567 0.00390625 28.1057V36.8127C0.00390625 37.4618 0.542154 38 1.19122 38H8.91666C8.79001 37.6359 8.71086 37.2243 8.71086 36.8127V26.9184ZM25.729 17.4199H12.2728C11.9579 17.4199 11.6559 17.545 11.4332 17.7677C11.2106 17.9904 11.0855 18.2923 11.0855 18.6072V36.8127C11.0855 37.4681 11.6174 38 12.2728 38H25.729C26.0439 38 26.3459 37.8749 26.5685 37.6522C26.7912 37.4296 26.9163 37.1276 26.9163 36.8127V18.6072C26.9163 18.2923 26.7912 17.9904 26.5685 17.7677C26.3459 17.545 26.0439 17.4199 25.729 17.4199ZM20.1882 30.4804C20.1882 30.7953 20.0631 31.0973 19.8404 31.3199C19.6178 31.5426 19.3158 31.6677 19.0009 31.6677C18.686 31.6677 18.384 31.5426 18.1613 31.3199C17.9387 31.0973 17.8136 30.7953 17.8136 30.4804V25.8245C17.6344 25.6642 17.508 25.4533 17.4513 25.2196C17.3946 24.9859 17.4102 24.7405 17.496 24.5159C17.5818 24.2913 17.7338 24.098 17.9318 23.9616C18.1299 23.8253 18.3647 23.7523 18.6051 23.7523H19.0009C19.3158 23.7523 19.6178 23.8774 19.8404 24.1C20.0631 24.3227 20.1882 24.6247 20.1882 24.9396V30.4804Z"
    fill="#2562FF" />
</svg>
  