<svg width="40" height="42" viewBox="0 0 40 42" fill="none" xmlns="http://www.w3.org/2000/svg">
  <path
    d="M8.95228 22.4732H21.5998L21.1726 22.9078C21.0184 23.0399 20.8931 23.2024 20.8047 23.3852C20.7163 23.568 20.6666 23.767 20.6587 23.9699C20.6509 24.1728 20.6851 24.3751 20.7591 24.5642C20.8332 24.7532 20.9456 24.9249 21.0891 25.0685C21.2327 25.2121 21.4044 25.3244 21.5934 25.3985C21.7825 25.4725 21.9848 25.5067 22.1877 25.4989C22.3906 25.4911 22.5897 25.4414 22.7725 25.3529C22.9552 25.2645 23.1177 25.1393 23.2498 24.985L26.1962 22.0386C26.4706 21.7626 26.6246 21.3892 26.6246 21C26.6246 20.6108 26.4706 20.2374 26.1962 19.9614L23.2498 17.015C22.968 16.7736 22.6055 16.6475 22.2347 16.6618C21.8639 16.6761 21.5122 16.8298 21.2498 17.0922C20.9875 17.3546 20.8338 17.7063 20.8194 18.0771C20.8051 18.4478 20.9312 18.8104 21.1726 19.0922L21.5998 19.5268H8.95228C7.58476 19.5268 6.27325 18.9835 5.30627 18.0166C4.33928 17.0496 3.79604 15.7381 3.79604 14.3705C3.79604 13.003 4.33928 11.6915 5.30627 10.7245C6.27325 9.75754 7.58476 9.2143 8.95228 9.2143H21.6219C21.987 11.0028 23.0032 12.5921 24.4735 13.674C25.9437 14.7559 27.7633 15.2533 29.5795 15.0698C31.3957 14.8864 33.0791 14.0351 34.3032 12.681C35.5274 11.3269 36.2052 9.56651 36.2052 7.74108C36.2052 5.91566 35.5274 4.15526 34.3032 2.80117C33.0791 1.44709 31.3957 0.595789 29.5795 0.412317C27.7633 0.228846 25.9437 0.726273 24.4735 1.80816C23.0032 2.89005 21.987 4.47933 21.6219 6.26787H8.95228C6.80332 6.26787 4.74237 7.12154 3.22283 8.64109C1.70328 10.1606 0.849609 12.2216 0.849609 14.3705C0.849609 16.5195 1.70328 18.5805 3.22283 20.1C4.74237 21.6195 6.80332 22.4732 8.95228 22.4732Z"
    fill="#2562FF" />
  <path
    d="M29.5766 20.9996C29.5766 21.3903 29.7318 21.765 30.0081 22.0413C30.2844 22.3176 30.6591 22.4728 31.0498 22.4728C32.4173 22.4728 33.7288 23.016 34.6958 23.983C35.6628 24.95 36.2061 26.2615 36.2061 27.629C36.2061 28.9966 35.6628 30.3081 34.6958 31.2751C33.7288 32.242 32.4173 32.7853 31.0498 32.7853H18.3802C18.0151 30.9967 16.9989 29.4075 15.5286 28.3256C14.0584 27.2437 12.2388 26.7463 10.4226 26.9297C8.6064 27.1132 6.92304 27.9645 5.69886 29.3186C4.47467 30.6727 3.79688 32.4331 3.79688 34.2585C3.79687 36.0839 4.47467 37.8443 5.69886 39.1984C6.92304 40.5525 8.6064 41.4038 10.4226 41.5873C12.2388 41.7707 14.0584 41.2733 15.5286 40.1914C16.9989 39.1095 18.0151 37.5203 18.3802 35.7317H31.0498C33.1988 35.7317 35.2597 34.878 36.7793 33.3585C38.2988 31.8389 39.1525 29.778 39.1525 27.629C39.1525 25.4801 38.2988 23.4191 36.7793 21.8996C35.2597 20.38 33.1988 19.5264 31.0498 19.5264C30.6591 19.5264 30.2844 19.6816 30.0081 19.9579C29.7318 20.2341 29.5766 20.6089 29.5766 20.9996ZM14.4099 33.8239L11.4634 36.7703C11.1874 37.0447 10.814 37.1987 10.4248 37.1987C10.0356 37.1987 9.66224 37.0447 9.38622 36.7703L7.913 35.2971C7.67165 35.0153 7.54554 34.6528 7.55986 34.282C7.57418 33.9112 7.72788 33.5595 7.99025 33.2971C8.25262 33.0348 8.60434 32.8811 8.97511 32.8667C9.34588 32.8524 9.70841 32.9785 9.99023 33.2199L10.4248 33.6471L12.3326 31.7467C12.6145 31.5053 12.977 31.3792 13.3478 31.3935C13.7185 31.4078 14.0703 31.5616 14.3326 31.8239C14.595 32.0863 14.7487 32.438 14.763 32.8088C14.7773 33.1796 14.6512 33.5421 14.4099 33.8239Z"
    fill="#2562FF" />
</svg>
  