<svg width="20" height="28" viewBox="0 0 20 28" fill="none" xmlns="http://www.w3.org/2000/svg">
  <path fill-rule="evenodd" clip-rule="evenodd"
    d="M9.96533 19.3647C9.85907 19.3647 9.75281 19.3115 9.69967 19.2584L8.05258 17.1332L5.50223 18.0896C5.39597 18.1427 5.28971 18.1427 5.23657 18.0896C5.13031 18.0364 5.07718 17.9302 5.07718 17.877L4.65212 15.1674L1.99551 14.7955C1.88925 14.7424 1.78298 14.6893 1.78298 14.6362C1.72985 14.5299 1.72985 14.4236 1.72985 14.3174L2.73936 11.8203L0.614077 10.1201C0.560945 10.067 0.507812 9.96076 0.507812 9.90763C0.507812 9.80137 0.560945 9.69511 0.614077 9.64198L2.73936 7.94184L1.72985 5.44476C1.72985 5.3385 1.72985 5.23224 1.78298 5.12598C1.78298 5.07285 1.88925 5.01972 1.99551 4.96659L4.65212 4.59469L5.07718 1.88509C5.07718 1.83196 5.13031 1.7257 5.23657 1.67257C5.28971 1.61944 5.39597 1.61944 5.50223 1.67257L8.05258 2.6289L9.69967 0.50372C9.75281 0.45059 9.85907 0.397461 9.96533 0.397461C10.0716 0.397461 10.1779 0.45059 10.231 0.50372L11.8781 2.6289L14.4284 1.67257C14.5347 1.61944 14.641 1.61944 14.6941 1.67257C14.8004 1.7257 14.8535 1.83196 14.8535 1.88509L15.2785 4.59469L17.9352 4.96659C18.0414 5.01972 18.1477 5.07285 18.1477 5.12598C18.2008 5.23224 18.2008 5.3385 18.2008 5.44476L17.1913 7.94184L19.3166 9.64198C19.3697 9.69511 19.4229 9.80137 19.4229 9.90763C19.4229 9.96076 19.3697 10.067 19.3166 10.1201L17.1913 11.8203L18.2008 14.3174C18.2008 14.4236 18.2008 14.5299 18.1477 14.6362C18.1477 14.6893 18.0414 14.7424 17.9352 14.7955L15.2785 15.1674L14.8535 17.877C14.8535 17.9302 14.8004 18.0364 14.6941 18.0896C14.641 18.1427 14.5347 18.1427 14.4284 18.0896L11.8781 17.1332L10.231 19.2584C10.1779 19.3115 10.0716 19.3647 9.96533 19.3647ZM12.8876 14.583C12.8345 14.583 12.7282 14.5299 12.6751 14.4768L9.96533 12.5641L7.25559 14.4768C7.14933 14.583 6.98993 14.583 6.88367 14.4768C6.77741 14.4236 6.72427 14.2642 6.77741 14.158L7.78692 11.0233L5.07718 9.11069C4.97091 9.05756 4.91778 8.89817 4.97091 8.73878C4.97091 8.63253 5.13031 8.52627 5.23657 8.52627H8.63703L9.64654 5.44476C9.69967 5.28537 9.80594 5.17911 9.96533 5.17911C10.1247 5.17911 10.231 5.28537 10.2841 5.44476L11.2936 8.52627H14.6941C14.8004 8.52627 14.9598 8.63253 14.9598 8.73878C15.0129 8.89817 14.9598 9.05756 14.8535 9.11069L12.1438 11.0233L13.1533 14.158C13.2064 14.2642 13.1533 14.4236 13.047 14.4768C12.9939 14.5299 12.9407 14.583 12.8876 14.583ZM9.96533 11.8734C10.0185 11.8734 10.0716 11.8734 10.1247 11.9266L12.25 13.4142L11.453 11.0233C11.3999 10.864 11.453 10.7046 11.5593 10.6514L13.6846 9.16382H11.0811C10.9217 9.16382 10.8154 9.11069 10.7623 8.9513L9.96533 6.50735L9.16835 8.9513C9.11522 9.11069 9.00896 9.16382 8.84956 9.16382H6.24608L8.37137 10.6514C8.47763 10.7046 8.53077 10.864 8.47763 11.0233L7.68065 13.4142L9.80594 11.9266C9.85907 11.8734 9.9122 11.8734 9.96533 11.8734Z"
    fill="#2562FF" />
  <path fill-rule="evenodd" clip-rule="evenodd"
    d="M4.86872 27.6025H4.81558C4.65619 27.5494 4.54992 27.4431 4.54992 27.3368L3.8592 23.7772L0.565011 25.4242C0.405615 25.4773 0.299351 25.4773 0.193086 25.3711C0.0868222 25.2648 0.03369 25.1054 0.139954 24.9992L4.23113 16.4453L4.44366 17.9329C4.49679 18.2517 4.65619 18.5174 4.92185 18.6236C5.18751 18.783 5.45317 18.783 5.71883 18.6767L7.84411 17.8798L9.01302 19.3674L5.13438 27.39C5.08124 27.4962 4.97498 27.6025 4.86872 27.6025ZM15.0701 27.6025C14.9638 27.6025 14.8576 27.4962 14.8044 27.39L10.9258 19.3674L12.0947 17.8798L14.22 18.6767C14.4856 18.783 14.7513 18.783 15.017 18.6236C15.2826 18.5174 15.442 18.2517 15.4951 17.9329L15.7077 16.4453L19.7988 24.9992C19.9051 25.1054 19.852 25.2648 19.7457 25.3711C19.6395 25.4773 19.5332 25.4773 19.3738 25.4242L16.0796 23.7772L15.3889 27.3368C15.3889 27.4431 15.2826 27.5494 15.1232 27.6025H15.0701Z"
    fill="#2562FF" />
</svg>