<svg width="39" height="38" viewBox="0 0 39 38" fill="none" xmlns="http://www.w3.org/2000/svg">
  <path
    d="M30.4004 22.4141C26.1038 22.4141 22.6074 25.9104 22.6074 30.207C22.6074 34.5036 26.1038 38 30.4004 38C34.697 38 38.3418 34.5036 38.3418 30.207C38.3418 25.9104 34.697 22.4141 30.4004 22.4141ZM32.627 31.3203H30.4004C29.785 31.3203 29.2871 30.8224 29.2871 30.207V27.9805C29.2871 27.3651 29.785 26.8672 30.4004 26.8672C31.0157 26.8672 31.5137 27.3651 31.5137 27.9805V29.0938H32.627C33.2423 29.0938 33.7402 29.5917 33.7402 30.207C33.7402 30.8224 33.2423 31.3203 32.627 31.3203ZM4.79492 27.9805H2.56836C1.33863 27.9805 0.341797 28.9773 0.341797 30.207C0.341797 31.4366 1.33863 32.4336 2.56836 32.4336H4.79492C6.02465 32.4336 7.02148 31.4366 7.02148 30.207C7.02148 28.9773 6.02465 27.9805 4.79492 27.9805ZM4.79492 16.8477H2.56836C1.33863 16.8477 0.341797 17.8445 0.341797 19.0742C0.341797 20.3038 1.33863 21.3008 2.56836 21.3008H4.79492C6.02465 21.3008 7.02148 20.3038 7.02148 19.0742C7.02148 17.8445 6.02465 16.8477 4.79492 16.8477ZM4.79492 5.56641H2.56836C1.33863 5.56641 0.341797 6.56324 0.341797 7.79297C0.341797 9.02255 1.33863 10.0195 2.56836 10.0195H4.79492C6.02465 10.0195 7.02148 9.02255 7.02148 7.79297C7.02148 6.56324 6.02465 5.56641 4.79492 5.56641Z"
    fill="#2562FF" />
  <path
    d="M32.627 0H8.13477C6.2931 0 4.79492 1.49818 4.79492 3.33984C7.25089 3.33984 9.24805 5.337 9.24805 7.79297C9.24805 10.2489 7.25089 12.2461 4.79492 12.2461V14.6211C7.25089 14.6211 9.24805 16.6182 9.24805 19.0742C9.24805 21.5302 7.25089 23.5273 4.79492 23.5273V25.7539C7.25089 25.7539 9.24805 27.7511 9.24805 30.207C9.24805 32.663 7.25089 34.6602 4.79492 34.6602C4.79492 36.5018 6.2931 38 8.13477 38H24.1804C21.8835 36.1623 20.3809 33.3708 20.3809 30.207C20.3809 24.682 24.8753 20.1875 30.4004 20.1875C32.4594 20.1875 34.5217 20.8145 36.1152 21.8836V3.33984C36.1152 1.49818 34.4686 0 32.627 0ZM20.0547 24.3144L15.6015 28.7676C15.3841 28.985 15.0992 29.0938 14.8145 29.0938C14.5297 29.0938 14.2448 28.985 14.0274 28.7676L11.4877 26.2279C11.0528 25.793 11.0528 25.0885 11.4877 24.6536C11.9225 24.2188 12.6271 24.2188 13.0619 24.6536L14.8145 26.4062L18.4805 22.7402C18.9153 22.3053 19.6199 22.3053 20.0547 22.7402C20.4896 23.175 20.4896 23.8796 20.0547 24.3144ZM20.0547 15.4082L15.6016 19.8613C15.3842 20.0788 15.0993 20.1875 14.8145 20.1875C14.5298 20.1875 14.2448 20.0788 14.0274 19.8613L11.4877 17.3216C11.0528 16.8868 11.0527 16.1823 11.4877 15.7474C11.9225 15.3126 12.6271 15.3126 13.0619 15.7474L14.8145 17.5L18.4805 13.8339C18.9153 13.3991 19.6199 13.3991 20.0547 13.8339C20.4896 14.2688 20.4896 14.9733 20.0547 15.4082ZM20.0547 6.3535L15.6016 10.8066C15.3842 11.0241 15.0993 11.1328 14.8145 11.1328C14.5298 11.1328 14.2448 11.0241 14.0274 10.8066L11.4877 8.26693C11.0528 7.83208 11.0527 7.1276 11.4877 6.69275C11.9225 6.2579 12.6271 6.2579 13.0619 6.69275L14.8145 8.44528L18.4805 4.77924C18.9153 4.34439 19.6199 4.34439 20.0547 4.77924C20.4896 5.21409 20.4896 5.91865 20.0547 6.3535ZM30.4004 17.9609H23.7207C23.1054 17.9609 22.6074 17.463 22.6074 16.8477C22.6074 16.2323 23.1054 15.7344 23.7207 15.7344H30.4004C31.0157 15.7344 31.5137 16.2323 31.5137 16.8477C31.5137 17.463 31.0157 17.9609 30.4004 17.9609ZM30.4004 8.90625H23.7207C23.1054 8.90625 22.6074 8.40832 22.6074 7.79297C22.6074 7.17762 23.1054 6.67969 23.7207 6.67969H30.4004C31.0157 6.67969 31.5137 7.17762 31.5137 7.79297C31.5137 8.40832 31.0157 8.90625 30.4004 8.90625Z"
    fill="#2562FF" />
</svg>
  