<svg width="31" height="29" viewBox="0 0 31 29" fill="none" xmlns="http://www.w3.org/2000/svg">
<path d="M30.3263 20.3512L28.896 18.9327C28.6661 18.7047 28.2951 18.7063 28.0672 18.9361C27.8392 19.1659 27.8408 19.537 28.0706 19.7649L29.5008 21.1835C29.6104 21.2925 29.7588 21.3537 29.9135 21.3535C29.9908 21.3536 30.0675 21.3383 30.1389 21.3085C30.2103 21.2788 30.2751 21.2351 30.3295 21.1801C30.5576 20.9503 30.5561 20.5792 30.3263 20.3512ZM27.4387 17.4812C27.2098 17.2524 26.8389 17.2524 26.6099 17.4812L26.6089 17.4822C26.38 17.7111 26.3805 18.0817 26.6094 18.3106C26.6637 18.365 26.7283 18.4082 26.7993 18.4376C26.8704 18.4671 26.9466 18.4821 27.0235 18.482C27.1737 18.482 27.3241 18.4247 27.4386 18.3101C27.6675 18.0812 27.6675 17.7102 27.4387 17.4812Z" fill="#2562FF"/>
<path d="M22.4433 20.1832L28.1286 14.4979C28.9897 13.6368 28.9897 12.2357 28.1286 11.3746C27.8362 11.0817 27.467 10.8775 27.0635 10.7854C27.199 10.4938 27.2689 10.176 27.2684 9.85448C27.2684 9.26454 27.0386 8.70995 26.6215 8.29287C26.2944 7.96568 25.8825 7.75438 25.4355 7.67827C25.6872 6.9115 25.5093 6.03334 24.9007 5.42478C24.5788 5.10243 24.1646 4.88819 23.7155 4.81176C23.7892 4.58804 23.8267 4.35397 23.8266 4.11841C23.8266 3.52848 23.5969 2.97388 23.1798 2.5568C22.7627 2.13973 22.2081 1.90998 21.6182 1.90998C21.2436 1.90998 20.8834 2.00291 20.5634 2.1774L20.5069 2.11664C19.772 1.3269 18.7318 0.874023 17.6531 0.874023H13.0511C12.7274 0.874023 12.465 1.13647 12.465 1.46009V2.22861C12.465 2.53618 12.517 2.8356 12.6165 3.11714C12.3478 3.00583 12.0598 2.94875 11.769 2.94921C11.179 2.94921 10.6244 3.17896 10.2073 3.59604C9.59838 4.20495 9.42066 5.08376 9.67291 5.85076C9.22335 5.92704 8.80869 6.14137 8.48648 6.46401C8.06941 6.88115 7.83966 7.43575 7.83966 8.02562C7.83966 8.26445 7.87792 8.49731 7.9504 8.71768C7.50391 8.79403 7.09246 9.00521 6.76562 9.3321C6.09312 10.0046 5.94588 11.0066 6.32387 11.8233C5.92361 11.9148 5.55599 12.1163 5.25844 12.4138C4.3974 13.2749 4.3974 14.676 5.25844 15.5371L6.42764 16.7062L0.671653 22.4621C0.442782 22.691 0.442782 23.0621 0.671653 23.291C0.786088 23.4054 0.936091 23.4627 1.08603 23.4627C1.23598 23.4627 1.38598 23.4054 1.50042 23.291L7.31195 17.4795C7.64096 17.6672 8.01433 17.7676 8.40345 17.7676C8.99333 17.7676 9.54792 17.5379 9.96506 17.1207C10.4182 16.6676 10.6326 16.0649 10.6087 15.47C10.6384 15.4712 10.6681 15.4721 10.6978 15.4721C11.2633 15.4721 11.829 15.2568 12.2595 14.8264C12.6765 14.4092 12.9063 13.8546 12.9063 13.2647C12.9063 13.2349 12.9053 13.2053 12.9041 13.1756C12.9335 13.1768 12.9628 13.1777 12.9922 13.1777C13.5577 13.1777 14.1233 12.9625 14.5538 12.532C14.9709 12.1148 15.2007 11.5602 15.2007 10.9704C15.2007 10.9405 15.1997 10.9109 15.1985 10.8812C15.2279 10.8824 15.2572 10.8833 15.2866 10.8833C15.8522 10.8833 16.4177 10.6681 16.8482 10.2376C17.6573 9.42849 17.706 8.14275 16.9947 7.27608L20.8851 3.38574C21.0808 3.18992 21.341 3.08216 21.6178 3.08216C21.8947 3.08216 22.1549 3.18992 22.3507 3.38574C22.4472 3.48174 22.5238 3.59594 22.5759 3.72173C22.628 3.84751 22.6546 3.98238 22.6542 4.11853C22.6542 4.39533 22.5464 4.65561 22.3506 4.85131L21.777 5.4249L19.6959 7.50606C19.467 7.73493 19.467 8.10601 19.6959 8.33494C19.8103 8.44932 19.9603 8.50662 20.1103 8.50662C20.2602 8.50662 20.4102 8.44938 20.5246 8.33494L22.6058 6.25378C23.0098 5.84971 23.6673 5.84965 24.0714 6.25372C24.4755 6.65784 24.4755 7.31528 24.0714 7.7194L23.4978 8.29305L21.9903 9.80057C21.7614 10.0294 21.7614 10.4005 21.9903 10.6294C22.1047 10.7438 22.2547 10.8011 22.4046 10.8011C22.5546 10.8011 22.7046 10.7439 22.819 10.6294L24.3266 9.12193C24.4225 9.02537 24.5367 8.94882 24.6625 8.89671C24.7883 8.8446 24.9232 8.81797 25.0593 8.81835C25.3362 8.81835 25.5964 8.9261 25.7922 9.12193C25.8887 9.21793 25.9653 9.33212 26.0174 9.45791C26.0695 9.58369 26.0961 9.71856 26.0957 9.85471C26.0957 10.1315 25.9879 10.3918 25.7921 10.5875L25.0048 11.3748L24.2846 12.095C24.0557 12.3239 24.0557 12.695 24.2846 12.9239C24.399 13.0383 24.549 13.0956 24.699 13.0956C24.8489 13.0956 24.9989 13.0383 25.1134 12.9239L25.8341 12.2032C26.2382 11.7998 26.8953 11.7998 27.2992 12.2037C27.7033 12.6078 27.7033 13.2653 27.2992 13.6694L21.6139 19.3547C20.1863 20.7823 18.2889 21.6088 16.2713 21.682C16.1229 21.6874 15.9821 21.7489 15.8774 21.8541L10.6254 27.1255C10.397 27.3548 10.3976 27.7259 10.6269 27.9544C10.6813 28.0086 10.7458 28.0517 10.8167 28.081C10.8877 28.1103 10.9638 28.1254 11.0406 28.1253C11.1177 28.1254 11.1941 28.1102 11.2654 28.0806C11.3366 28.051 11.4013 28.0076 11.4557 27.9528L15.3187 24.0756C16.2999 24.7051 17.4539 25.0044 18.6272 24.9268L21.6506 27.9503C21.705 28.0048 21.7696 28.048 21.8407 28.0774C21.9118 28.1069 21.988 28.122 22.065 28.1219C22.142 28.122 22.2182 28.1069 22.2893 28.0775C22.3604 28.048 22.425 28.0048 22.4794 27.9503C22.7082 27.7214 22.7082 27.3503 22.4794 27.1214L19.2649 23.9065C19.2047 23.8464 19.1322 23.8001 19.0524 23.7708C18.9726 23.7415 18.8873 23.7299 18.8025 23.7368L18.6167 23.752C17.7667 23.8223 16.9151 23.637 16.1712 23.2197L16.5478 22.8417C18.7754 22.7043 20.8609 21.7657 22.4433 20.1832ZM9.1363 16.292C9.0403 16.3885 8.9261 16.4651 8.80032 16.5172C8.67453 16.5693 8.53966 16.5959 8.40351 16.5956C8.26736 16.5959 8.13248 16.5693 8.0067 16.5172C7.88091 16.4651 7.76672 16.3885 7.67073 16.292L6.08715 14.7085C5.68308 14.3044 5.68308 13.6469 6.08715 13.2428C6.18315 13.1462 6.29736 13.0697 6.42315 13.0176C6.54895 12.9654 6.68383 12.9388 6.81999 12.9392C7.09679 12.9392 7.35707 13.0469 7.55278 13.2428L9.13636 14.8263C9.54037 15.2304 9.54037 15.8879 9.1363 16.292ZM11.4308 13.9975C11.0267 14.4015 10.3691 14.4015 9.96512 13.9975L8.38154 12.4139L7.59414 11.6265C7.19008 11.2224 7.19008 10.5649 7.59414 10.1609C7.69014 10.0643 7.80434 9.98777 7.93012 9.93566C8.05591 9.88355 8.19078 9.85692 8.32693 9.85729C8.60379 9.85729 8.86401 9.96504 9.05971 10.1609L11.4306 12.5318C11.6265 12.7276 11.7343 12.9878 11.7343 13.2646C11.7343 13.5414 11.6265 13.8017 11.4308 13.9975ZM13.7252 11.703C13.3211 12.107 12.6635 12.1071 12.2595 11.703L9.31495 8.75846C9.21841 8.66246 9.14188 8.54826 9.08978 8.42248C9.03768 8.29669 9.01105 8.16182 9.01143 8.02568C9.01143 7.74888 9.11919 7.4886 9.31501 7.29289C9.41118 7.19661 9.52542 7.12027 9.65117 7.06827C9.77693 7.01626 9.91171 6.98961 10.0478 6.98984C10.313 6.98984 10.5781 7.09074 10.7801 7.29242L12.1222 8.63448L13.7251 10.2374H13.7251C13.8217 10.3334 13.8982 10.4476 13.9503 10.5734C14.0024 10.6992 14.029 10.834 14.0286 10.9702C14.029 11.1063 14.0024 11.2412 13.9504 11.367C13.8983 11.4928 13.8217 11.607 13.7252 11.703ZM16.0196 9.40857C15.6156 9.81264 14.9581 9.81264 14.554 9.40857L11.6095 6.46401L11.6085 6.46308L11.0358 5.89043C10.6318 5.4863 10.6318 4.82887 11.0358 4.42474C11.132 4.32843 11.2462 4.25208 11.372 4.20006C11.4978 4.14804 11.6326 4.12139 11.7687 4.12163C12.034 4.12163 12.2995 4.22265 12.5014 4.42474L16.0195 7.94282C16.1161 8.03882 16.1926 8.15302 16.2447 8.2788C16.2969 8.40458 16.3235 8.53946 16.3231 8.67561C16.3235 8.81178 16.2969 8.94669 16.2448 9.07251C16.1928 9.19833 16.1162 9.31255 16.0196 9.40857ZM16.1737 6.43946L14.564 4.82975C14.7485 4.8693 14.9366 4.88927 15.1253 4.88934H15.1382L16.7465 4.88178C17.0701 4.88026 17.3313 4.61664 17.3298 4.29296C17.3283 3.97022 17.0662 3.70965 16.7438 3.70965H16.741L15.1327 3.71721H15.1254C14.7292 3.71721 14.3564 3.5634 14.0754 3.28373C13.7926 3.00224 13.637 2.62759 13.637 2.22856V2.04609H17.6529C18.4073 2.04609 19.1348 2.3628 19.6488 2.91511L19.6726 2.94072L16.1737 6.43946Z" fill="#2562FF"/>
</svg>
