<svg width="31" height="33" viewBox="0 0 31 33" fill="none" xmlns="http://www.w3.org/2000/svg">
<path d="M30.0452 5.82875C29.9022 4.93067 29.1158 4.26045 28.2088 4.26045H28.1909C22.5522 4.31854 17.1145 6.32918 12.7939 9.93047C12.6598 8.34876 12.2086 6.80727 11.4624 5.39535C10.4437 3.4696 8.9111 1.86108 7.03897 0.744057C6.28386 0.292779 5.34109 0.417886 4.7513 1.04789C1.94534 4.03705 0.435117 7.94217 0.502139 12.0439C0.564692 15.9937 2.08385 19.7111 4.79151 22.5663C4.53683 23.5403 4.3447 24.5322 4.21513 25.542C4.16151 25.9575 4.45194 26.3373 4.87194 26.3954C4.90322 26.3999 4.93896 26.3999 4.97024 26.3999C5.34556 26.3999 5.67173 26.1229 5.72088 25.7386C5.85939 24.6886 6.06492 23.6609 6.34194 22.6646C6.37322 22.5975 6.39109 22.5305 6.40003 22.459C9.13897 12.8571 17.9947 5.88684 28.2178 5.7796H28.2222C28.3831 5.7796 28.535 5.90918 28.5618 6.06556C29.1248 9.6177 29.1427 13.219 28.6154 16.7756C28.6065 16.8024 28.5975 16.8292 28.5931 16.856C27.5431 21.3643 24.612 25.2158 20.5416 27.4186C16.9537 29.3667 12.776 29.8761 8.85748 28.8886C10.18 28.0173 11.449 27.0612 12.6598 26.0201C15.8545 23.2722 18.5399 20.0239 20.6399 16.3735C20.8499 16.0116 20.7248 15.5469 20.3584 15.3369C19.9965 15.1269 19.5318 15.252 19.3218 15.6184C16.2567 20.9131 11.8735 25.3365 6.66365 28.4552C6.64131 28.4641 6.62343 28.4775 6.60109 28.491C4.93002 29.4873 3.17853 30.3452 1.35555 31.0601C0.966821 31.212 0.770225 31.6544 0.926608 32.0431C1.04278 32.3425 1.32874 32.5257 1.63257 32.5257C1.7264 32.5257 1.82023 32.5078 1.90959 32.472C3.7147 31.7661 5.44832 30.9261 7.11046 29.9565C8.96025 30.582 10.8815 30.8948 12.7983 30.8948C15.7205 30.8948 18.6292 30.1754 21.2475 28.7501C25.6531 26.3641 28.8433 22.2088 30.0184 17.343C30.0452 17.2805 30.0676 17.2135 30.0765 17.142C30.6529 13.3888 30.6395 9.58196 30.0452 5.82875ZM8.12918 15.1045C8.12025 14.2913 8.0845 13.5362 8.02195 12.8124C7.88344 11.2664 7.61982 9.64004 7.21769 7.83046C7.12833 7.4194 6.72173 7.16472 6.31067 7.25408C5.8996 7.34344 5.64492 7.75004 5.73428 8.1611C6.12301 9.90366 6.37769 11.4675 6.50726 12.9464C6.63237 14.3628 6.64578 15.9222 6.54301 17.839C6.06045 18.8131 5.64045 19.8184 5.29194 20.855C0.716608 15.395 0.872991 7.38365 5.85045 2.08449C5.94875 1.97725 6.11854 1.96385 6.25705 2.04427C9.5143 3.98343 11.4311 7.49536 11.3105 11.2664C10.1213 12.4334 9.05531 13.7195 8.12918 15.1045Z" fill="#2562FF"/>
</svg>
