<svg width="31" height="31" viewBox="0 0 31 31" fill="none" xmlns="http://www.w3.org/2000/svg">
<path fill-rule="evenodd" clip-rule="evenodd" d="M17.9828 29.4919V27.3126L16.9894 26.3192C13.9859 26.5999 10.6377 23.2149 11.124 20.1649C11.1396 20.0599 11.188 19.9625 11.2622 19.8867C11.3365 19.8109 11.4328 19.7604 11.5374 19.7426C13.1009 19.4734 14.7958 20.2822 15.9618 21.4481C17.0633 22.5495 17.842 24.114 17.7025 25.6062L17.983 25.8867V12.613L15.3803 10.0138L8.70443 12.742V29.4919H17.9828ZM15.9109 25.2405C15.054 25.0435 14.221 24.542 13.5441 23.8652C12.6976 23.0186 12.0557 21.8347 12.0823 20.6991C12.5566 20.6963 13.0268 20.7876 13.4656 20.9676C14.9341 21.5447 16.2698 22.9866 16.6239 24.5277L14.7528 22.6566C14.7063 22.6086 14.6506 22.5704 14.5892 22.5442C14.5277 22.5179 14.4617 22.5041 14.3948 22.5036C14.328 22.5031 14.2617 22.5159 14.1999 22.5413C14.1381 22.5666 14.0819 22.604 14.0346 22.6513C13.9874 22.6985 13.95 22.7547 13.9246 22.8166C13.8993 22.8784 13.8865 22.9447 13.8869 23.0115C13.8874 23.0783 13.9012 23.1444 13.9274 23.2058C13.9537 23.2673 13.9919 23.3229 14.0398 23.3695L15.9109 25.2405ZM18.9912 25.8869L19.7696 25.1084C19.5409 23.0848 20.6061 20.9358 22.1078 19.4341C22.9248 18.6066 23.9026 17.9553 24.9809 17.5201C26.0354 17.1057 27.1002 16.9693 28.0458 17.1336C28.1504 17.1515 28.2467 17.2019 28.321 17.2777C28.3952 17.3536 28.4436 17.4509 28.4592 17.5559C28.7981 19.6765 27.7351 21.9049 26.1569 23.4831C24.6553 24.9848 22.5061 26.05 20.4826 25.8214L18.9913 27.3127V29.4919H29.9958C30.1295 29.4919 30.2578 29.545 30.3523 29.6396C30.4469 29.7341 30.5 29.8624 30.5 29.9961C30.5 30.1298 30.4469 30.2581 30.3523 30.3526C30.2578 30.4472 30.1295 30.5003 29.9958 30.5003H1.0042C0.870479 30.5003 0.742234 30.4472 0.647678 30.3526C0.553121 30.2581 0.5 30.1298 0.5 29.9961V5.20829C0.499923 5.13562 0.515589 5.0638 0.545923 4.99777C0.576256 4.93174 0.620536 4.87307 0.675715 4.82579L4.83122 0.675578C4.90525 0.588217 5.00706 0.528949 5.11958 0.507699C5.2321 0.48645 5.34851 0.50451 5.44931 0.558855L15.6891 4.7436C15.7815 4.7812 15.8607 4.8455 15.9164 4.9283C15.9721 5.01109 16.0019 5.10862 16.0019 5.20841H16.0042V9.21587L18.8154 12.0235C18.8706 12.0708 18.9149 12.1295 18.9452 12.1955C18.9755 12.2615 18.9912 12.3333 18.9912 12.406V25.8869ZM20.7705 24.1074L23.7758 21.1022C23.8223 21.0542 23.878 21.016 23.9394 20.9898C24.0009 20.9635 24.067 20.9498 24.1338 20.9493C24.2006 20.9488 24.2669 20.9616 24.3287 20.987C24.3906 21.0123 24.4467 21.0497 24.494 21.097C24.5413 21.1442 24.5786 21.2004 24.604 21.2622C24.6293 21.3241 24.6421 21.3903 24.6416 21.4572C24.6412 21.524 24.6274 21.5901 24.6011 21.6515C24.5749 21.713 24.5367 21.7686 24.4887 21.8152L21.4836 24.8204C23.8997 24.5677 26.2486 22.4943 27.1333 20.2438C27.4265 19.4978 27.5555 18.7557 27.5088 18.082C25.8361 17.9662 24.0646 18.9032 22.8207 20.147C21.7318 21.2356 20.9212 22.6663 20.7705 24.1072V24.1074ZM1.5084 29.4919H4.70914V2.21875L1.5084 5.41539V29.4919ZM5.71754 29.4919V1.75274L14.9958 5.5444V9.08686L8.01116 11.9411C7.91872 11.9788 7.8396 12.0431 7.78388 12.1259C7.72817 12.2086 7.6984 12.3062 7.69836 12.406H7.69603V29.4919H5.71754Z" fill="#2562FF"/>
</svg>
