<svg width="31" height="31" viewBox="0 0 31 31" fill="none" xmlns="http://www.w3.org/2000/svg">
<path d="M26.9938 4.50445H11.288C10.46 1.58337 7.42068 -0.11337 4.4996 0.714707C1.57852 1.54278 -0.11822 4.58199 0.709799 7.50308C1.53782 10.4242 4.57709 12.1209 7.49817 11.2928C8.40073 11.037 9.2228 10.5544 9.88615 9.89106C10.5495 9.22771 11.0321 8.40564 11.2879 7.50308H26.4939C27.046 7.50308 27.4935 7.95059 27.4935 8.50264V13.0006C27.4935 13.5526 27.046 14.0001 26.4939 14.0001H25.4819C25.3869 13.3616 24.7922 12.9209 24.1536 13.0159C23.9493 13.0463 23.7566 13.1303 23.5953 13.2594L21.942 14.5783C21.4335 14.984 21.3501 15.7252 21.7559 16.2338C21.8108 16.3026 21.8732 16.365 21.942 16.4199L23.5943 17.7378C24.0978 18.1418 24.8336 18.061 25.2376 17.5575C25.3671 17.3961 25.4514 17.2033 25.4819 16.9986H26.9937C28.9248 16.9962 30.4896 15.4313 30.4921 13.5003V8.00283C30.4897 6.07176 28.9249 4.50691 26.9938 4.50445ZM3.53003 9.75655C3.64974 9.03507 4.27248 8.50521 5.00386 8.50264H7.00293C7.73425 8.50521 8.35705 9.03507 8.47676 9.75655C6.97727 10.7506 5.02852 10.7506 3.52903 9.75655H3.53003ZM6.00342 7.50308C4.89938 7.50308 4.00436 6.60806 4.00436 5.50401C4.00436 4.39997 4.89932 3.50489 6.00342 3.50489C7.10753 3.50489 8.00249 4.39991 8.00249 5.50395C8.00249 6.608 7.10747 7.50308 6.00342 7.50308ZM9.30788 9.04485C9.06027 8.45566 8.59763 7.98284 8.01397 7.72247C9.24264 6.61204 9.33851 4.71588 8.22809 3.4872C7.11766 2.25853 5.2215 2.16266 3.99282 3.27308C2.76415 4.38351 2.66827 6.27967 3.7787 7.50835C3.84641 7.58329 3.91788 7.65476 3.99282 7.72247C3.4093 7.9832 2.94699 8.45641 2.6999 9.04584C1.01429 7.22114 1.12709 4.37543 2.95186 2.68982C4.77662 1.0042 7.62227 1.117 9.30788 2.94171C10.8998 4.66504 10.8998 7.32251 9.30788 9.04584V9.04485ZM29.4926 13.5003C29.491 14.8797 28.3732 15.9975 26.9937 15.9992H24.9947C24.8621 15.9992 24.735 16.0518 24.6413 16.1456C24.5476 16.2393 24.4949 16.3664 24.4949 16.4989V16.8238C24.496 16.8571 24.487 16.8898 24.4692 16.9179C24.4513 16.946 24.4255 16.9681 24.3949 16.9812C24.3662 16.9964 24.3335 17.0023 24.3012 16.9981C24.269 16.9939 24.2389 16.9798 24.215 16.9578L22.5598 15.6374C22.5391 15.6208 22.5223 15.5998 22.5108 15.5758C22.4993 15.5519 22.4934 15.5257 22.4934 15.4992C22.4934 15.4726 22.4993 15.4464 22.5108 15.4225C22.5223 15.3986 22.5391 15.3776 22.5598 15.361L24.216 14.0391C24.24 14.0179 24.2699 14.0045 24.3016 14.0006C24.3334 13.9968 24.3656 14.0027 24.3939 14.0176C24.4245 14.0308 24.4503 14.0529 24.4681 14.0809C24.486 14.109 24.4949 14.1418 24.4939 14.175V14.4999C24.4939 14.5655 24.5068 14.6305 24.532 14.6911C24.5571 14.7518 24.5939 14.8069 24.6403 14.8533C24.6867 14.8997 24.7418 14.9365 24.8024 14.9616C24.8631 14.9867 24.928 14.9996 24.9937 14.9996H26.493C27.597 14.9996 28.4921 14.1046 28.4921 13.0006V8.50264C28.4921 7.39859 27.597 6.50357 26.493 6.50357H11.4754C11.4904 6.33865 11.5009 6.17273 11.5009 6.00382C11.5009 5.83492 11.4904 5.669 11.4754 5.50407H26.9938C28.3732 5.50571 29.491 6.62352 29.4927 8.00294V13.5003H29.4926ZM4.0043 26.4944H5.51609C5.60903 27.1321 6.20138 27.5738 6.83911 27.4809C7.04557 27.4508 7.24018 27.3659 7.4027 27.2351L9.05646 25.9157C9.56487 25.5107 9.64868 24.7702 9.24369 24.2618C9.18852 24.1925 9.12571 24.1297 9.05646 24.0745L7.40423 22.7566C6.90084 22.3524 6.16507 22.4328 5.76084 22.9361C5.63111 23.0977 5.54665 23.2909 5.51609 23.4958H4.50405C3.952 23.4958 3.50449 23.0483 3.50449 22.4963V17.9983C3.50449 17.4463 3.952 16.9988 4.50405 16.9988H8.00243C8.83051 16.9988 9.50174 16.3275 9.50174 15.4994C9.50174 14.6714 8.83045 14.0001 8.00243 14.0001H4.0043C2.07324 14.0026 0.508387 15.5674 0.505927 17.4985V22.996C0.508387 24.9271 2.07324 26.4919 4.0043 26.4944ZM1.50549 17.4985C1.50713 16.1191 2.62494 15.0013 4.00436 14.9996H8.00255C8.27857 14.9996 8.5023 15.2234 8.5023 15.4994C8.5023 15.7754 8.27857 15.9991 8.00255 15.9991H4.50411C3.40007 15.9991 2.50505 16.8942 2.50505 17.9982V22.4961C2.50505 23.6002 3.40007 24.4952 4.50411 24.4952H6.00342C6.13597 24.4952 6.26308 24.4425 6.3568 24.3488C6.45052 24.2551 6.50317 24.128 6.50317 23.9954V23.6706C6.50214 23.6373 6.51111 23.6046 6.52894 23.5765C6.54677 23.5484 6.57262 23.5263 6.60315 23.5131C6.63201 23.4985 6.66463 23.4928 6.69675 23.497C6.72886 23.5012 6.75895 23.515 6.78307 23.5366L8.43781 24.8566C8.4588 24.873 8.47576 24.894 8.48743 24.918C8.49909 24.942 8.50516 24.9683 8.50516 24.995C8.50516 25.0216 8.49909 25.048 8.48743 25.0719C8.47576 25.0959 8.4588 25.1169 8.43781 25.1334L6.7816 26.4553C6.75742 26.4761 6.72759 26.4893 6.69591 26.4931C6.66423 26.4969 6.63212 26.4913 6.60368 26.4768C6.57316 26.4636 6.54731 26.4415 6.52949 26.4135C6.51166 26.3854 6.50268 26.3526 6.5037 26.3194V25.9945C6.5037 25.9289 6.49078 25.8639 6.46566 25.8033C6.44055 25.7426 6.40373 25.6875 6.35733 25.6411C6.31092 25.5947 6.25583 25.5579 6.1952 25.5328C6.13456 25.5077 6.06958 25.4948 6.00395 25.4948H4.0043C2.62494 25.4931 1.50713 24.3753 1.50543 22.9959L1.50549 17.4985Z" fill="#2562FF"/>
<path d="M12.5969 17.7383C13.0993 18.1438 13.8353 18.0652 14.2407 17.5628C14.3719 17.4004 14.4571 17.2057 14.4875 16.9992H18.998C19.826 16.9992 20.4973 16.3279 20.4973 15.4999C20.4973 14.6718 19.826 14.0006 18.998 14.0006H14.4875C14.3923 13.362 13.7975 12.9216 13.1589 13.0169C12.9547 13.0473 12.7621 13.1313 12.6009 13.2604L10.9472 14.5793C10.4386 14.9849 10.3552 15.7262 10.761 16.2347C10.8159 16.3035 10.8784 16.366 10.9472 16.4209L12.5969 17.7383ZM11.5689 15.3609L13.2247 14.0395C13.2536 14.015 13.2902 14.0012 13.3281 14.0005C13.3539 14.001 13.3793 14.0072 13.4025 14.0185C13.4331 14.0317 13.459 14.0539 13.4769 14.082C13.4947 14.1102 13.5036 14.1431 13.5025 14.1764V14.5003C13.5025 14.6328 13.5552 14.76 13.6489 14.8537C13.7426 14.9474 13.8697 15.0001 14.0023 15.0001H18.998C19.1305 15.0001 19.2576 15.0527 19.3513 15.1464C19.4451 15.2402 19.4977 15.3673 19.4977 15.4998C19.4977 15.6324 19.4451 15.7595 19.3513 15.8532C19.2576 15.9469 19.1305 15.9996 18.998 15.9996H14.0003C13.8677 15.9996 13.7406 16.0522 13.6469 16.1459C13.5532 16.2397 13.5005 16.3668 13.5005 16.4993V16.8242C13.5016 16.8574 13.4926 16.8902 13.4748 16.9183C13.4569 16.9463 13.4311 16.9684 13.4005 16.9816C13.3718 16.9968 13.3391 17.0027 13.3068 16.9985C13.2746 16.9943 13.2445 16.9802 13.2206 16.9581L11.5669 15.6387C11.5459 15.6222 11.5289 15.6011 11.5172 15.577C11.5055 15.5529 11.4995 15.5266 11.4995 15.4998C11.4995 15.4731 11.5055 15.4467 11.5172 15.4226C11.5289 15.3985 11.5459 15.3774 11.5669 15.3609H11.5689ZM24.9953 19.498C22.4426 19.5033 20.2286 21.2633 19.6477 23.7491L18.4043 22.757C17.9027 22.3506 17.1666 22.4277 16.7601 22.9293C16.6278 23.0925 16.542 23.2883 16.5117 23.4962H12.0013C11.1732 23.4962 10.502 24.1675 10.502 24.9955C10.502 25.8235 11.1732 26.4948 12.0013 26.4948H16.5117C16.6046 27.1325 17.197 27.5742 17.8347 27.4813C18.0412 27.4512 18.2358 27.3663 18.3983 27.2355L19.6477 26.242C20.3361 29.1991 23.2913 31.0382 26.2484 30.3498C29.2055 29.6615 31.0447 26.7062 30.3563 23.7491C29.7763 21.2572 27.5538 19.4948 24.9953 19.498ZM19.4308 25.1339L17.7746 26.4558C17.7504 26.4766 17.7206 26.4898 17.6889 26.4936C17.6572 26.4974 17.6251 26.4918 17.5967 26.4773C17.5662 26.4641 17.5403 26.442 17.5225 26.4139C17.5047 26.3859 17.4957 26.3531 17.4967 26.3199V25.995C17.4967 25.8625 17.4441 25.7353 17.3503 25.6416C17.2566 25.5479 17.1295 25.4952 16.997 25.4952H12.0013C11.8687 25.4952 11.7416 25.4426 11.6479 25.3489C11.5542 25.2551 11.5015 25.128 11.5015 24.9955C11.5015 24.8629 11.5542 24.7358 11.6479 24.6421C11.7416 24.5484 11.8687 24.4957 12.0013 24.4957H16.999C17.1315 24.4957 17.2586 24.4431 17.3523 24.3494C17.4461 24.2556 17.4987 24.1285 17.4987 23.996V23.6711C17.4977 23.6379 17.5066 23.6051 17.5245 23.577C17.5423 23.5489 17.5682 23.5269 17.5987 23.5137C17.6275 23.499 17.6602 23.4934 17.6923 23.4976C17.7244 23.5018 17.7545 23.5156 17.7786 23.5372L19.4333 24.8571C19.4541 24.8736 19.4706 24.8947 19.4818 24.9188C19.493 24.9428 19.4985 24.9691 19.4978 24.9955C19.4983 25.0222 19.4925 25.0487 19.4808 25.0727C19.4692 25.0967 19.4521 25.1177 19.4308 25.1339ZM24.9953 29.4934C22.5134 29.4907 20.5017 27.4803 20.4973 24.9985V24.9925C20.499 22.5084 22.5141 20.4959 24.9983 20.4976C27.4824 20.4992 29.4948 22.5144 29.4932 24.9985C29.4916 27.4814 27.4783 29.4934 24.9953 29.4934Z" fill="#2562FF"/>
<path d="M26.6391 23.1419L23.9938 25.7871L23.3475 25.1409C23.2533 25.0496 23.127 24.999 22.9958 25.0001C22.8647 25.0011 22.7391 25.0537 22.6464 25.1464C22.5536 25.2392 22.501 25.3647 22.5 25.4959C22.499 25.6271 22.5496 25.7534 22.6409 25.8476L23.6404 26.8471C23.7342 26.9408 23.8613 26.9934 23.9938 26.9934C24.1263 26.9934 24.2534 26.9408 24.3471 26.8471L27.3457 23.8485C27.437 23.7543 27.4876 23.628 27.4866 23.4968C27.4856 23.3656 27.433 23.2401 27.3402 23.1474C27.2475 23.0546 27.1219 23.002 26.9908 23.001C26.8596 23 26.7333 23.0506 26.6391 23.1419Z" fill="#2562FF"/>
</svg>
