<svg width="31" height="33" viewBox="0 0 31 33" fill="none" xmlns="http://www.w3.org/2000/svg">
<path d="M18.7734 28.1709H19.9679C20.5069 28.1709 20.9438 28.6078 20.9438 29.1468C20.9438 29.6857 20.5069 30.1226 19.9679 30.1226H14.5544M15.0744 28.1709H16.7248M18.8811 30.1227V31.1319C18.8811 31.6525 18.4591 32.0744 17.9386 32.0744H11.2676" stroke="#2562FF" stroke-width="0.940131" stroke-miterlimit="10" stroke-linecap="round" stroke-linejoin="round"/>
<path d="M0.567501 12.6215C0.909396 11.3722 1.86006 10.3744 3.08085 9.96699C3.06041 9.77251 3.05017 9.57709 3.0502 9.38154C3.0502 6.32931 5.5245 3.85501 8.57673 3.85501C8.60963 3.85501 8.64248 3.85533 8.67519 3.85589C8.83313 3.16859 9.18387 2.56045 9.6429 2.05685C10.1507 1.4998 10.7971 1.19751 11.3759 1.03431C11.512 0.995885 11.7066 0.965174 11.9355 0.940668C13.5609 0.766619 14.9765 2.04714 14.9765 3.6819V28.4179C14.9765 30.4373 13.3394 32.0742 11.3202 32.0742C9.65255 32.0742 8.23076 31.0222 7.6821 29.5457C7.34338 29.618 6.9976 29.6521 6.65128 29.6473C4.19095 29.6147 2.16992 27.6186 2.10856 25.1588C2.0803 24.0245 2.46218 22.9801 3.11638 22.1634C1.66018 22.0969 0.5 20.8954 0.5 19.4228C0.5 18.2841 1.19369 17.3075 2.18152 16.8925C1.40177 16.3799 0.817827 15.5937 0.566311 14.6705" stroke="#2562FF" stroke-width="0.940131" stroke-miterlimit="10" stroke-linecap="round" stroke-linejoin="round"/>
<path d="M9.38142 28.7965C8.62862 29.3321 7.70792 29.6471 6.71364 29.6471C4.16952 29.6471 2.10712 27.5847 2.10712 25.0406C2.10712 23.4505 2.91275 22.0486 4.13812 21.2208M1.70957 21.6972C0.97978 21.2042 0.5 20.3693 0.5 19.4223C0.5 17.9071 1.72831 16.6788 3.24349 16.6788M8.57667 3.85449C9.33285 3.85449 10.0536 4.00635 10.71 4.28131M3.47702 11.5144C3.20206 10.858 3.0502 10.1373 3.0502 9.38102M9.0085 12.1522C9.24554 10.998 10.3733 10.2547 11.5274 10.4918M8.84467 24.457C8.22029 23.0466 8.85745 21.397 10.2679 20.7726" stroke="#2562FF" stroke-width="0.940131" stroke-miterlimit="10" stroke-linecap="round" stroke-linejoin="round"/>
<path d="M9.32794 21.4031C8.70012 21.2035 8.3529 20.5328 8.55245 19.905M20.7001 4.95041C19.029 3.9429 17.0708 3.36328 14.9772 3.36328M19.6503 26.2191V24.8108C19.6501 24.7292 19.6727 24.6493 19.7156 24.5799C19.7585 24.5105 19.8199 24.4544 19.8929 24.4181C23.5573 22.6051 26.0772 18.8284 26.0772 14.4632C26.0772 11.1834 24.6546 8.23579 22.3929 6.20373M14.9772 26.2191H19.9676C20.5065 26.2191 20.9434 26.656 20.9434 27.1949C20.9434 27.7339 20.5065 28.1708 19.9676 28.1708M28.1316 14.6663H30.4998M27.1558 8.81097L29.5981 6.37383M29.5981 21.988L27.1558 20.5216" stroke="#2562FF" stroke-width="0.940131" stroke-miterlimit="10" stroke-linecap="round" stroke-linejoin="round"/>
<path d="M14.9785 20.9344C15.2483 20.9669 15.523 20.9836 15.8016 20.9836C16.0802 20.9836 16.3548 20.9669 16.6246 20.9344L17.2239 19.2493C17.6268 19.1364 18.0148 18.9755 18.3794 18.7703L19.9947 19.5381C20.4282 19.1983 20.8191 18.8074 21.1589 18.3739L20.3911 16.7586C20.5964 16.394 20.7572 16.006 20.8701 15.6031L22.5552 15.0038C22.5878 14.734 22.6045 14.4594 22.6045 14.1808C22.6045 13.9022 22.5878 13.6275 22.5552 13.3577L20.8701 12.7585C20.7572 12.3555 20.5964 11.9676 20.3911 11.6029L21.1589 9.98767C20.8191 9.55417 20.4282 9.16328 19.9947 8.82348L18.3794 9.59131C18.0148 9.38602 17.6268 9.22519 17.2239 9.11228L16.6246 7.42719C16.3515 7.39432 16.0767 7.37787 15.8016 7.37793C15.523 7.37793 15.2483 7.39466 14.9785 7.42719" stroke="#2562FF" stroke-width="0.940131" stroke-miterlimit="10" stroke-linecap="round" stroke-linejoin="round"/>
<path d="M14.9785 17.3788C15.2513 17.4497 15.5321 17.4855 15.814 17.4853C17.6391 17.4853 19.1187 16.0058 19.1187 14.1807C19.1187 12.3556 17.6391 10.876 15.814 10.876C15.5254 10.876 15.2454 10.913 14.9785 10.9825" stroke="#2562FF" stroke-width="0.940131" stroke-miterlimit="10" stroke-linecap="round" stroke-linejoin="round"/>
</svg>
