<svg width="31" height="29" viewBox="0 0 31 29" fill="none" xmlns="http://www.w3.org/2000/svg">
<path d="M24.2039 10.1462C23.8375 10.1511 23.4722 10.1886 23.1124 10.2583C22.4752 6.6277 19.3067 3.85742 15.4964 3.85742C11.686 3.85742 8.51749 6.6277 7.88032 10.2583C7.52053 10.1886 7.15524 10.1511 6.78879 10.1462C5.1209 10.1462 3.52132 10.8088 2.34195 11.9882C1.16257 13.1675 0.5 14.7671 0.5 16.435C0.5 18.1029 1.16257 19.7025 2.34195 20.8819C3.52132 22.0612 5.1209 22.7238 6.78879 22.7238H7.7563C7.8846 22.7238 8.00765 22.6728 8.09837 22.5821C8.18909 22.4914 8.24005 22.3684 8.24005 22.2401C8.24005 22.1118 8.18909 21.9887 8.09837 21.898C8.00765 21.8073 7.8846 21.7563 7.7563 21.7563H6.78879C5.3775 21.7563 4.02401 21.1957 3.02608 20.1977C2.02814 19.1998 1.46751 17.8463 1.46751 16.435C1.46751 15.0237 2.02814 13.6702 3.02608 12.6723C4.02401 11.6744 5.3775 11.1137 6.78879 11.1137C7.12033 11.1184 7.45066 11.1546 7.77535 11.2218C7.7693 11.3471 7.7563 11.4707 7.7563 11.5975C7.75528 12.4763 7.90434 13.3487 8.19706 14.1773C8.21668 14.2391 8.24853 14.2964 8.2907 14.3456C8.33288 14.3949 8.38452 14.4351 8.44257 14.464C8.50062 14.4929 8.56388 14.5098 8.6286 14.5138C8.69332 14.5178 8.75817 14.5087 8.81931 14.4871C8.88045 14.4655 8.93662 14.4318 8.98448 14.3881C9.03234 14.3443 9.07093 14.2914 9.09793 14.2324C9.12494 14.1735 9.13982 14.1097 9.14169 14.0449C9.14356 13.9801 9.13238 13.9156 9.10882 13.8552C8.74891 12.8338 8.63915 11.7411 8.78875 10.6686C8.93835 9.59608 9.34295 8.57509 9.96861 7.69124C10.5943 6.80738 11.4227 6.08645 12.3846 5.58889C13.3464 5.09133 14.4135 4.83167 15.4964 4.83167C16.5792 4.83167 17.6463 5.09133 18.6082 5.58889C19.57 6.08645 20.3984 6.80738 21.0241 7.69124C21.6498 8.57509 22.0544 9.59608 22.204 10.6686C22.3536 11.7411 22.2438 12.8338 21.8839 13.8552C21.8603 13.9156 21.8492 13.9801 21.851 14.0449C21.8529 14.1097 21.8678 14.1735 21.8948 14.2324C21.9218 14.2914 21.9604 14.3443 22.0082 14.3881C22.0561 14.4318 22.1123 14.4655 22.1734 14.4871C22.2345 14.5087 22.2994 14.5178 22.3641 14.5138C22.4288 14.5098 22.4921 14.4929 22.5501 14.464C22.6082 14.4351 22.6598 14.3949 22.702 14.3456C22.7442 14.2964 22.776 14.2391 22.7957 14.1773C23.0884 13.3487 23.2374 12.4763 23.2364 11.5975C23.2364 11.4705 23.2234 11.3471 23.2174 11.2218C23.542 11.1546 23.8724 11.1184 24.2039 11.1137C25.6152 11.1137 26.9687 11.6744 27.9666 12.6723C28.9646 13.6702 29.5252 15.0237 29.5252 16.435C29.5252 17.8463 28.9646 19.1998 27.9666 20.1977C26.9687 21.1957 25.6152 21.7563 24.2039 21.7563H23.2364C23.1081 21.7563 22.9851 21.8073 22.8943 21.898C22.8036 21.9887 22.7527 22.1118 22.7527 22.2401C22.7527 22.3684 22.8036 22.4914 22.8943 22.5821C22.9851 22.6728 23.1081 22.7238 23.2364 22.7238H24.2039C25.8718 22.7238 27.4714 22.0612 28.6508 20.8819C29.8301 19.7025 30.4927 18.1029 30.4927 16.435C30.4927 14.7671 29.8301 13.1675 28.6508 11.9882C27.4714 10.8088 25.8718 10.1462 24.2039 10.1462Z" fill="#2562FF"/>
<path d="M20.2541 10.7169C20.3072 11.0073 20.3339 11.3019 20.3339 11.597C20.3339 11.7253 20.3849 11.8484 20.4756 11.9391C20.5663 12.0298 20.6894 12.0808 20.8177 12.0808C20.946 12.0808 21.069 12.0298 21.1597 11.9391C21.2505 11.8484 21.3014 11.7253 21.3014 11.597C21.3015 11.2432 21.2694 10.8901 21.2055 10.5422C21.1803 10.4179 21.1074 10.3086 21.0024 10.2376C20.8974 10.1667 20.7687 10.1397 20.6441 10.1626C20.5194 10.1855 20.4087 10.2564 20.3358 10.3601C20.2629 10.4637 20.2335 10.5919 20.2541 10.7169ZM17.6076 6.18789C17.4881 6.14115 17.3549 6.14382 17.2373 6.19529C17.1198 6.24676 17.0275 6.34283 16.9807 6.46236C16.934 6.58188 16.9367 6.71508 16.9881 6.83264C17.0396 6.95021 17.1357 7.04251 17.2552 7.08924C18.1956 7.45985 18.9979 8.11296 19.5516 8.95858C19.5863 9.01182 19.6311 9.0577 19.6835 9.09361C19.7359 9.12952 19.7949 9.15475 19.857 9.16787C19.9192 9.18099 19.9833 9.18174 20.0458 9.17007C20.1082 9.1584 20.1678 9.13455 20.221 9.09987C20.2742 9.06519 20.3201 9.02037 20.356 8.96796C20.3919 8.91555 20.4172 8.85658 20.4303 8.79442C20.4434 8.73226 20.4442 8.66812 20.4325 8.60567C20.4208 8.54322 20.397 8.48368 20.3623 8.43045C19.6981 7.41606 18.7356 6.63257 17.6076 6.18789ZM27.1065 6.27575C27.363 6.27605 27.6089 6.37808 27.7903 6.55946C27.9717 6.74084 28.0737 6.98675 28.074 7.24326C28.074 7.37155 28.125 7.4946 28.2157 7.58532C28.3064 7.67604 28.4294 7.72701 28.5577 7.72701C28.686 7.72701 28.8091 7.67604 28.8998 7.58532C28.9905 7.4946 29.0415 7.37155 29.0415 7.24326C29.0424 6.77269 28.8715 6.31798 28.5608 5.96455C28.2501 5.61112 27.8211 5.3833 27.3543 5.32389C26.8875 5.26449 26.4151 5.37759 26.0258 5.64194C25.6365 5.90629 25.3571 6.3037 25.2402 6.7595H23.2365C23.1082 6.7595 22.9851 6.81047 22.8944 6.90119C22.8037 6.99191 22.7527 7.11496 22.7527 7.24326C22.7527 7.37155 22.8037 7.4946 22.8944 7.58532C22.9851 7.67604 23.1082 7.72701 23.2365 7.72701H25.2402C25.3468 8.14135 25.5878 8.50861 25.9256 8.77124C26.2633 9.03387 26.6786 9.17703 27.1065 9.17827C27.2348 9.17827 27.3578 9.1273 27.4485 9.03658C27.5393 8.94586 27.5902 8.82281 27.5902 8.69452C27.5902 8.56622 27.5393 8.44317 27.4485 8.35245C27.3578 8.26173 27.2348 8.21076 27.1065 8.21076C26.8499 8.21076 26.6038 8.10883 26.4223 7.92739C26.2409 7.74594 26.139 7.49985 26.139 7.24326C26.139 6.98666 26.2409 6.74057 26.4223 6.55912C26.6038 6.37768 26.8499 6.27575 27.1065 6.27575ZM21.7852 5.792C21.9135 5.792 22.0365 5.74103 22.1273 5.65031C22.218 5.55959 22.2689 5.43654 22.2689 5.30824V3.85698C22.2692 3.60048 22.3713 3.35456 22.5527 3.17319C22.734 2.99181 22.9799 2.88978 23.2365 2.88947H26.6914C26.8092 3.34549 27.0892 3.74291 27.479 4.00724C27.8688 4.27157 28.3416 4.38466 28.8088 4.32531C29.276 4.26597 29.7056 4.03826 30.0169 3.68488C30.3282 3.33149 30.5 2.87669 30.5 2.40572C30.5 1.93475 30.3282 1.47995 30.0169 1.12656C29.7056 0.77318 29.276 0.545475 28.8088 0.48613C28.3416 0.426786 27.8688 0.539878 27.479 0.804207C27.0892 1.06854 26.8092 1.46595 26.6914 1.92197H23.2365C22.7234 1.92251 22.2316 2.12655 21.8688 2.48932C21.506 2.85209 21.302 3.34395 21.3014 3.85698V5.30824C21.3014 5.43654 21.3524 5.55959 21.4431 5.65031C21.5338 5.74103 21.6569 5.792 21.7852 5.792ZM28.5577 1.43821C28.7491 1.43821 28.9362 1.49496 29.0953 1.60127C29.2544 1.70758 29.3784 1.85868 29.4516 2.03547C29.5248 2.21226 29.544 2.40679 29.5067 2.59447C29.4693 2.78215 29.3772 2.95454 29.2419 3.08985C29.1066 3.22516 28.9342 3.31731 28.7465 3.35464C28.5588 3.39197 28.3643 3.37281 28.1875 3.29958C28.0107 3.22635 27.8596 3.10234 27.7533 2.94324C27.647 2.78413 27.5902 2.59708 27.5902 2.40572C27.5905 2.14922 27.6926 1.9033 27.8739 1.72193C28.0553 1.54055 28.3012 1.43852 28.5577 1.43821ZM2.43505 4.34073C2.86289 4.33948 3.27821 4.19633 3.61595 3.9337C3.95369 3.67107 4.19476 3.30381 4.30137 2.88947H7.75634C8.01285 2.88978 8.25876 2.99181 8.44014 3.17319C8.62151 3.35456 8.72354 3.60048 8.72385 3.85698V5.30824C8.72385 5.43654 8.77481 5.55959 8.86554 5.65031C8.95626 5.74103 9.0793 5.792 9.2076 5.792C9.3359 5.792 9.45895 5.74103 9.54967 5.65031C9.64039 5.55959 9.69136 5.43654 9.69136 5.30824V3.85698C9.69081 3.34395 9.48677 2.85209 9.124 2.48932C8.76123 2.12655 8.26937 1.92251 7.75634 1.92197H4.30137C4.21032 1.57234 4.02304 1.25526 3.76082 1.00673C3.4986 0.758193 3.17194 0.588171 2.81794 0.51597C2.46395 0.443768 2.09679 0.472281 1.75818 0.59827C1.41958 0.724259 1.12308 0.942675 0.902377 1.22871C0.681671 1.51475 0.545597 1.85694 0.509609 2.21643C0.473621 2.57592 0.539162 2.9383 0.698787 3.26241C0.858413 3.58653 1.10573 3.85938 1.41264 4.04999C1.71955 4.2406 2.07377 4.34133 2.43505 4.34073ZM2.43505 1.43821C2.62641 1.43821 2.81347 1.49496 2.97257 1.60127C3.13168 1.70758 3.25569 1.85868 3.32891 2.03547C3.40214 2.21226 3.4213 2.40679 3.38397 2.59447C3.34664 2.78215 3.25449 2.95454 3.11918 3.08985C2.98388 3.22516 2.81148 3.31731 2.62381 3.35464C2.43613 3.39197 2.24159 3.37281 2.06481 3.29958C1.88802 3.22635 1.73691 3.10234 1.6306 2.94324C1.52429 2.78413 1.46755 2.59708 1.46755 2.40572C1.46785 2.14922 1.56988 1.9033 1.75126 1.72193C1.93264 1.54055 2.17855 1.43852 2.43505 1.43821ZM5.75264 6.7595C5.63489 6.30349 5.35488 5.90607 4.96508 5.64174C4.57528 5.37741 4.10246 5.26432 3.63525 5.32366C3.16803 5.38301 2.7385 5.61071 2.42716 5.9641C2.11582 6.31748 1.94405 6.77229 1.94405 7.24326C1.94405 7.71423 2.11582 8.16903 2.42716 8.52241C2.7385 8.8758 3.16803 9.1035 3.63525 9.16285C4.10246 9.22219 4.57528 9.1091 4.96508 8.84477C5.35488 8.58044 5.63489 8.18302 5.75264 7.72701H7.75634C7.88464 7.72701 8.00769 7.67604 8.09841 7.58532C8.18913 7.4946 8.2401 7.37155 8.2401 7.24326C8.2401 7.11496 8.18913 6.99191 8.09841 6.90119C8.00769 6.81047 7.88464 6.7595 7.75634 6.7595H5.75264ZM3.88631 8.21076C3.69496 8.21076 3.5079 8.15402 3.3488 8.04771C3.18969 7.9414 3.06568 7.79029 2.99245 7.6135C2.91923 7.43672 2.90007 7.24218 2.9374 7.0545C2.97473 6.86683 3.06688 6.69443 3.20218 6.55912C3.33749 6.42382 3.50989 6.33167 3.69756 6.29434C3.88524 6.25701 4.07977 6.27617 4.25656 6.3494C4.43335 6.42262 4.58446 6.54663 4.69077 6.70574C4.79708 6.86484 4.85382 7.0519 4.85382 7.24326C4.85352 7.49976 4.75149 7.74567 4.57011 7.92705C4.38873 8.10843 4.14282 8.21046 3.88631 8.21076ZM15.4964 14.9833C13.8828 14.9835 12.3223 15.5596 11.0958 16.608C9.86929 17.6565 9.05731 19.1083 8.80605 20.7021C8.55478 22.296 8.88074 23.9272 9.72524 25.3021C10.5697 26.677 11.8773 27.7053 13.4126 28.2019C13.4607 28.2174 13.5109 28.2253 13.5614 28.2255C13.6768 28.2257 13.7885 28.1846 13.8763 28.1097C13.9641 28.0348 14.0222 27.931 14.0402 27.817C14.0581 27.703 14.0348 27.5863 13.9742 27.4881C13.9137 27.3898 13.8201 27.3164 13.7102 27.2811C12.3183 26.8328 11.1467 25.876 10.4292 24.6018C9.71166 23.3276 9.50107 21.8297 9.83942 20.407C10.1778 18.9844 11.0402 17.7417 12.2545 16.9269C13.4688 16.1122 14.9458 15.7853 16.3905 16.0116C17.8352 16.2379 19.1414 17.0007 20.0484 18.1478C20.9555 19.2948 21.3966 20.7417 21.2837 22.1997C21.1708 23.6576 20.5123 25.0194 19.4396 26.0132C18.3668 27.007 16.9587 27.5596 15.4964 27.5609C15.3681 27.5609 15.2451 27.6119 15.1543 27.7026C15.0636 27.7933 15.0126 27.9164 15.0126 28.0447C15.0126 28.173 15.0636 28.296 15.1543 28.3867C15.2451 28.4774 15.3681 28.5284 15.4964 28.5284C17.2926 28.5284 19.0152 27.8149 20.2853 26.5448C21.5554 25.2747 22.2689 23.552 22.2689 21.7559C22.2689 19.9597 21.5554 18.237 20.2853 16.9669C19.0152 15.6968 17.2926 14.9833 15.4964 14.9833Z" fill="#2562FF"/>
<path d="M18.9249 20.9466C19.136 20.7355 19.2798 20.4664 19.338 20.1735C19.3963 19.8807 19.3664 19.5771 19.2521 19.3012C19.1378 19.0253 18.9443 18.7895 18.696 18.6236C18.4477 18.4577 18.1558 18.3692 17.8572 18.3691C17.4569 18.3702 17.0733 18.5291 16.7895 18.8113L14.0336 21.5672C13.8089 21.401 13.5424 21.3006 13.264 21.277C12.9855 21.2533 12.7059 21.3075 12.4564 21.4334C12.2069 21.5593 11.9973 21.752 11.8508 21.99C11.7044 22.228 11.6269 22.502 11.627 22.7815C11.6264 22.9799 11.6651 23.1764 11.741 23.3597C11.8169 23.5429 11.9284 23.7093 12.0691 23.8492L12.8779 24.6579C13.1877 24.9676 13.6077 25.1416 14.0457 25.1416C14.4837 25.1416 14.9038 24.9676 15.2135 24.6579L18.9249 20.9466ZM13.562 23.9739L12.7532 23.1651C12.6774 23.0892 12.6258 22.9925 12.6049 22.8873C12.584 22.7821 12.5947 22.6731 12.6358 22.574C12.6768 22.4749 12.7463 22.3902 12.8355 22.3306C12.9247 22.271 13.0296 22.2392 13.1368 22.2392C13.2806 22.2396 13.4183 22.2966 13.5204 22.3979L13.7037 22.5812C13.7944 22.6719 13.9175 22.7228 14.0457 22.7228C14.174 22.7228 14.297 22.6719 14.3877 22.5812L17.4736 19.4954C17.5495 19.4196 17.6461 19.3679 17.7513 19.347C17.8565 19.3261 17.9656 19.3369 18.0647 19.378C18.1638 19.419 18.2485 19.4885 18.3081 19.5777C18.3677 19.6669 18.3995 19.7717 18.3995 19.879C18.3998 19.9503 18.3859 20.0209 18.3586 20.0867C18.3314 20.1525 18.2913 20.2123 18.2408 20.2626L14.5295 23.9737C14.3992 24.0982 14.226 24.1677 14.0458 24.1678C13.8656 24.1678 13.6923 24.0984 13.562 23.9739Z" fill="#2562FF"/>
</svg>
