<svg width="562.11" height="48.17" viewBox="0 0 562.11 48.17" xmlns="http://www.w3.org/2000/svg"><g id="svgGroup" stroke-linecap="round" fill-rule="evenodd" font-size="9pt" stroke="#fafbfc" stroke-width="0.25mm" fill="#fafbfc" style="stroke:#fafbfc;stroke-width:0.25mm;fill:#fafbfc"><path d="M 271.924 1.953 L 277.539 26.294 L 278.223 30.981 L 279.224 26.758 L 286.255 1.953 L 290.21 1.953 L 297.07 26.758 L 298.047 31.055 L 298.804 26.27 L 304.321 1.953 L 309.033 1.953 L 300.415 37.5 L 296.143 37.5 L 288.818 11.597 L 288.257 8.887 L 287.695 11.597 L 280.103 37.5 L 275.83 37.5 L 267.236 1.953 L 271.924 1.953 Z M 170.117 11.084 L 176.392 31.274 L 181.47 11.084 L 185.986 11.084 L 178.296 37.5 L 174.634 37.5 L 168.213 17.48 L 161.963 37.5 L 158.301 37.5 L 150.635 11.084 L 155.127 11.084 L 160.327 30.859 L 166.479 11.084 L 170.117 11.084 Z M 403.979 12.231 L 399.268 12.231 A 8.143 8.143 0 0 0 398.991 10.051 A 5.924 5.924 0 0 0 397.217 7.166 Q 395.426 5.556 392.349 5.352 A 13.902 13.902 0 0 0 391.431 5.322 A 12.701 12.701 0 0 0 389.32 5.487 Q 388.199 5.676 387.296 6.083 A 6.117 6.117 0 0 0 386.023 6.848 A 4.958 4.958 0 0 0 384.107 10.485 A 7.04 7.04 0 0 0 384.082 11.084 A 4.475 4.475 0 0 0 385.57 14.446 A 6.301 6.301 0 0 0 385.925 14.758 Q 387.769 16.26 392.2 17.505 A 45.709 45.709 0 0 1 394.781 18.308 Q 396.087 18.76 397.168 19.242 A 18.316 18.316 0 0 1 399.133 20.251 A 13.008 13.008 0 0 1 401.014 21.607 Q 402.07 22.532 402.75 23.602 A 8.053 8.053 0 0 1 402.844 23.755 A 8.324 8.324 0 0 1 403.935 26.842 A 10.822 10.822 0 0 1 404.053 28.467 A 8.921 8.921 0 0 1 403.373 32.002 Q 402.539 33.956 400.684 35.388 Q 397.663 37.719 392.817 37.96 A 22.991 22.991 0 0 1 391.675 37.988 A 16.796 16.796 0 0 1 385.338 36.795 A 16.202 16.202 0 0 1 384.839 36.584 A 13.238 13.238 0 0 1 382.183 35.04 A 10.408 10.408 0 0 1 379.944 32.739 Q 378.223 30.298 378.223 27.197 L 382.935 27.197 A 7.005 7.005 0 0 0 383.32 29.571 A 5.964 5.964 0 0 0 385.315 32.288 Q 387.451 33.964 390.876 34.136 A 15.947 15.947 0 0 0 391.675 34.155 A 14.598 14.598 0 0 0 393.825 34.007 Q 396.004 33.682 397.363 32.642 A 4.827 4.827 0 0 0 399.31 29.152 A 6.397 6.397 0 0 0 399.341 28.516 A 5.965 5.965 0 0 0 399.104 26.791 A 4.531 4.531 0 0 0 397.51 24.475 Q 396.043 23.331 392.664 22.21 A 48.762 48.762 0 0 0 390.869 21.655 Q 385.212 20.029 382.444 17.704 A 10.403 10.403 0 0 1 382.092 17.395 A 8.333 8.333 0 0 1 379.853 14.128 A 8.524 8.524 0 0 1 379.346 11.157 A 8.497 8.497 0 0 1 382.103 4.739 A 10.982 10.982 0 0 1 382.703 4.211 Q 386.06 1.465 391.431 1.465 A 16.183 16.183 0 0 1 395.098 1.864 A 13.176 13.176 0 0 1 397.961 2.881 A 11.392 11.392 0 0 1 400.912 4.941 A 10.19 10.19 0 0 1 402.405 6.787 A 9.989 9.989 0 0 1 403.979 12.231 Z M 561.865 18.848 L 557.324 18.848 A 3.945 3.945 0 0 0 556.161 16.037 A 5.57 5.57 0 0 0 555.75 15.649 A 5.551 5.551 0 0 0 552.927 14.391 A 7.548 7.548 0 0 0 551.782 14.307 Q 550.041 14.307 548.836 14.842 A 4.419 4.419 0 0 0 547.925 15.381 Q 546.533 16.455 546.533 18.188 A 3.265 3.265 0 0 0 546.7 19.26 A 2.664 2.664 0 0 0 547.827 20.654 A 6.075 6.075 0 0 0 548.662 21.09 Q 549.574 21.49 550.994 21.872 A 36.563 36.563 0 0 0 552.502 22.241 A 35.098 35.098 0 0 1 554.767 22.823 Q 555.82 23.134 556.706 23.482 A 15.789 15.789 0 0 1 557.983 24.048 Q 559.714 24.913 560.706 26.069 A 5.892 5.892 0 0 1 561.096 26.575 A 5.691 5.691 0 0 1 561.998 28.837 A 7.712 7.712 0 0 1 562.109 30.176 A 7.112 7.112 0 0 1 561.488 33.183 Q 560.783 34.716 559.277 35.852 Q 556.597 37.874 552.409 37.982 A 18.535 18.535 0 0 1 551.929 37.988 A 15.254 15.254 0 0 1 548.96 37.712 A 11.797 11.797 0 0 1 546.313 36.865 A 9.838 9.838 0 0 1 543.903 35.32 A 8.558 8.558 0 0 1 542.493 33.728 A 7.561 7.561 0 0 1 541.113 29.37 L 545.63 29.37 A 5.179 5.179 0 0 0 546.038 31.177 A 4.597 4.597 0 0 0 547.449 32.971 Q 549.028 34.21 551.55 34.295 A 11.185 11.185 0 0 0 551.929 34.302 A 10.347 10.347 0 0 0 553.571 34.179 Q 554.469 34.035 555.2 33.72 A 5.226 5.226 0 0 0 556.042 33.264 Q 557.593 32.227 557.593 30.493 Q 557.593 28.662 556.213 27.649 Q 555.086 26.821 552.587 26.18 A 29.953 29.953 0 0 0 551.404 25.903 A 35.233 35.233 0 0 1 549.398 25.417 Q 547.344 24.85 545.959 24.146 Q 543.945 23.12 542.981 21.704 A 5.536 5.536 0 0 1 542.077 19.278 A 7.173 7.173 0 0 1 542.017 18.335 Q 542.017 15.088 544.763 12.842 A 9.735 9.735 0 0 1 549.113 10.843 A 13.729 13.729 0 0 1 551.782 10.596 A 14.217 14.217 0 0 1 554.913 10.922 A 9.764 9.764 0 0 1 559.07 12.915 A 7.69 7.69 0 0 1 561.166 15.558 A 7.622 7.622 0 0 1 561.865 18.848 Z M 131.396 11.084 L 137.988 30.884 L 144.141 11.084 L 148.975 11.084 L 138.354 41.577 Q 136.943 45.349 134.581 46.963 A 7.031 7.031 0 0 1 130.518 48.169 L 129.663 48.096 L 127.979 47.778 L 127.979 44.116 L 129.199 44.214 Q 130.754 44.214 131.844 43.788 A 4.168 4.168 0 0 0 132.776 43.286 A 4.163 4.163 0 0 0 133.665 42.386 Q 134.366 41.443 134.888 39.893 L 135.889 37.207 L 126.465 11.084 L 131.396 11.084 Z M 73.56 11.084 L 77.832 11.084 L 77.979 14.404 A 10.004 10.004 0 0 1 81.439 11.563 Q 83.366 10.626 85.735 10.597 A 12.409 12.409 0 0 1 85.889 10.596 A 10.583 10.583 0 0 1 89.408 11.132 Q 94.28 12.847 94.336 20.044 L 94.336 37.5 L 89.819 37.5 L 89.819 20.02 Q 89.795 17.163 88.513 15.796 A 3.93 3.93 0 0 0 86.936 14.792 Q 85.919 14.429 84.521 14.429 Q 82.324 14.429 80.664 15.601 A 7.958 7.958 0 0 0 78.076 18.677 L 78.076 37.5 L 73.56 37.5 L 73.56 11.084 Z M 202.71 11.084 L 206.982 11.084 L 207.129 14.404 A 10.004 10.004 0 0 1 210.589 11.563 Q 212.516 10.626 214.886 10.597 A 12.409 12.409 0 0 1 215.039 10.596 A 10.583 10.583 0 0 1 218.559 11.132 Q 223.431 12.847 223.486 20.044 L 223.486 37.5 L 218.97 37.5 L 218.97 20.02 Q 218.945 17.163 217.664 15.796 A 3.93 3.93 0 0 0 216.087 14.792 Q 215.069 14.429 213.672 14.429 Q 211.475 14.429 209.814 15.601 A 7.958 7.958 0 0 0 207.227 18.677 L 207.227 37.5 L 202.71 37.5 L 202.71 11.084 Z M 506.372 29.175 L 510.645 29.175 A 7.956 7.956 0 0 1 509.538 32.785 A 9.845 9.845 0 0 1 509.082 33.496 A 10.158 10.158 0 0 1 505.697 36.521 A 12.05 12.05 0 0 1 505.237 36.768 A 11.095 11.095 0 0 1 500.146 37.988 Q 494.751 37.988 491.565 34.387 A 12.06 12.06 0 0 1 488.989 29.498 Q 488.379 27.271 488.379 24.536 L 488.379 23.779 A 18.002 18.002 0 0 1 488.733 20.135 A 14.279 14.279 0 0 1 489.795 16.919 A 11.156 11.156 0 0 1 492.237 13.506 A 10.509 10.509 0 0 1 493.86 12.256 A 10.794 10.794 0 0 1 498.062 10.742 A 14.052 14.052 0 0 1 500.122 10.596 A 12.198 12.198 0 0 1 503.723 11.105 A 9.924 9.924 0 0 1 507.507 13.257 A 9.405 9.405 0 0 1 510.609 19.641 A 12.442 12.442 0 0 1 510.645 20.166 L 506.372 20.166 A 6.774 6.774 0 0 0 505.804 17.864 A 6.04 6.04 0 0 0 504.431 15.955 Q 502.686 14.307 500.122 14.307 A 7.634 7.634 0 0 0 497.781 14.648 A 6.004 6.004 0 0 0 494.788 16.785 A 8.161 8.161 0 0 0 493.528 19.269 Q 493.162 20.409 493.008 21.795 A 19.525 19.525 0 0 0 492.896 23.95 L 492.896 24.805 A 17.859 17.859 0 0 0 493.079 27.453 Q 493.483 30.141 494.775 31.836 A 6.113 6.113 0 0 0 499.146 34.247 A 8.949 8.949 0 0 0 500.146 34.302 Q 502.563 34.302 504.37 32.837 A 5.597 5.597 0 0 0 505.726 31.274 A 5.076 5.076 0 0 0 506.372 29.175 Z M 67.407 37.5 L 62.671 37.5 A 3.512 3.512 0 0 1 62.474 36.999 Q 62.215 36.187 62.036 34.717 A 10.741 10.741 0 0 1 58.582 37.17 A 10.078 10.078 0 0 1 54.517 37.988 A 11.296 11.296 0 0 1 51.576 37.624 A 8.494 8.494 0 0 1 48.108 35.779 A 7.101 7.101 0 0 1 45.616 30.608 A 8.906 8.906 0 0 1 45.605 30.176 A 8.654 8.654 0 0 1 46.075 27.26 A 7.278 7.278 0 0 1 48.743 23.767 A 10.682 10.682 0 0 1 51.943 22.217 Q 53.37 21.782 55.086 21.605 A 24.271 24.271 0 0 1 57.568 21.484 L 61.963 21.484 L 61.963 19.409 Q 61.963 17.041 60.547 15.637 Q 59.345 14.446 57.176 14.266 A 9.713 9.713 0 0 0 56.372 14.233 A 7.918 7.918 0 0 0 54.472 14.451 A 5.932 5.932 0 0 0 52.319 15.454 Q 50.684 16.675 50.684 18.408 L 46.143 18.408 Q 46.143 16.431 47.546 14.587 Q 48.95 12.744 51.355 11.67 A 12.494 12.494 0 0 1 55.664 10.627 A 14.83 14.83 0 0 1 56.641 10.596 A 14.72 14.72 0 0 1 59.515 10.859 Q 61.222 11.199 62.549 11.978 A 7.995 7.995 0 0 1 63.794 12.878 A 7.755 7.755 0 0 1 66.313 17.467 A 11.1 11.1 0 0 1 66.479 19.165 L 66.479 31.323 Q 66.479 34.961 67.407 37.109 L 67.407 37.5 Z M 361.621 24.194 L 361.621 24.585 Q 361.621 30.64 358.838 34.314 A 9.148 9.148 0 0 1 355.579 37.07 Q 353.711 37.988 351.367 37.988 A 11.33 11.33 0 0 1 348.063 37.531 A 8.673 8.673 0 0 1 343.628 34.448 L 343.408 37.5 L 339.258 37.5 L 339.258 0 L 343.774 0 L 343.774 13.989 Q 346.509 10.596 351.318 10.596 A 10.195 10.195 0 0 1 354.823 11.173 A 8.774 8.774 0 0 1 358.875 14.233 Q 361.175 17.281 361.549 22.212 A 26.26 26.26 0 0 1 361.621 24.194 Z M 100.049 24.414 L 100.049 24.072 A 20.899 20.899 0 0 1 100.421 20.01 Q 101.084 16.664 102.93 14.294 A 9.629 9.629 0 0 1 106.022 11.64 Q 107.935 10.628 110.319 10.597 A 11.645 11.645 0 0 1 110.474 10.596 A 10.911 10.911 0 0 1 113.796 11.078 A 8.659 8.659 0 0 1 117.822 13.77 L 117.822 0 L 122.339 0 L 122.339 37.5 L 118.188 37.5 L 117.969 34.668 A 8.842 8.842 0 0 1 111.884 37.907 A 12.741 12.741 0 0 1 110.425 37.988 A 8.891 8.891 0 0 1 103.643 35.058 A 11.545 11.545 0 0 1 102.942 34.229 Q 100.204 30.671 100.057 25.058 A 24.584 24.584 0 0 1 100.049 24.414 Z M 229.15 25.024 L 229.15 24.194 A 17.608 17.608 0 0 1 229.574 20.256 A 14.34 14.34 0 0 1 230.652 17.175 A 12.173 12.173 0 0 1 233.138 13.7 A 11.296 11.296 0 0 1 234.851 12.341 A 10.558 10.558 0 0 1 240.698 10.596 A 12.524 12.524 0 0 1 244.104 11.034 A 9.107 9.107 0 0 1 248.706 13.989 Q 251.017 16.735 251.458 21.398 A 24.519 24.519 0 0 1 251.563 23.706 L 251.563 25.586 L 233.667 25.586 A 11.73 11.73 0 0 0 234.062 28.409 A 8.423 8.423 0 0 0 235.95 31.897 A 7.122 7.122 0 0 0 241.139 34.295 A 9.177 9.177 0 0 0 241.504 34.302 Q 243.896 34.302 245.557 33.325 Q 247.217 32.349 248.462 30.737 L 251.221 32.886 A 10.701 10.701 0 0 1 243.444 37.838 A 15.273 15.273 0 0 1 241.26 37.988 Q 235.889 37.988 232.52 34.46 A 11.864 11.864 0 0 1 229.496 28.565 A 17.238 17.238 0 0 1 229.15 25.024 Z M 311.621 25.024 L 311.621 24.194 A 17.608 17.608 0 0 1 312.045 20.256 A 14.34 14.34 0 0 1 313.123 17.175 A 12.173 12.173 0 0 1 315.608 13.7 A 11.296 11.296 0 0 1 317.322 12.341 A 10.558 10.558 0 0 1 323.169 10.596 A 12.524 12.524 0 0 1 326.575 11.034 A 9.107 9.107 0 0 1 331.177 13.989 Q 333.488 16.735 333.929 21.398 A 24.519 24.519 0 0 1 334.033 23.706 L 334.033 25.586 L 316.138 25.586 A 11.73 11.73 0 0 0 316.533 28.409 A 8.423 8.423 0 0 0 318.42 31.897 A 7.122 7.122 0 0 0 323.61 34.295 A 9.177 9.177 0 0 0 323.975 34.302 Q 326.367 34.302 328.027 33.325 Q 329.688 32.349 330.933 30.737 L 333.691 32.886 A 10.701 10.701 0 0 1 325.915 37.838 A 15.273 15.273 0 0 1 323.73 37.988 Q 318.359 37.988 314.99 34.46 A 11.864 11.864 0 0 1 311.967 28.565 A 17.238 17.238 0 0 1 311.621 25.024 Z M 408.203 25.024 L 408.203 24.194 A 17.608 17.608 0 0 1 408.627 20.256 A 14.34 14.34 0 0 1 409.705 17.175 A 12.173 12.173 0 0 1 412.19 13.7 A 11.296 11.296 0 0 1 413.904 12.341 A 10.558 10.558 0 0 1 419.751 10.596 A 12.524 12.524 0 0 1 423.157 11.034 A 9.107 9.107 0 0 1 427.759 13.989 Q 430.07 16.735 430.511 21.398 A 24.519 24.519 0 0 1 430.615 23.706 L 430.615 25.586 L 412.72 25.586 A 11.73 11.73 0 0 0 413.115 28.409 A 8.423 8.423 0 0 0 415.002 31.897 A 7.122 7.122 0 0 0 420.192 34.295 A 9.177 9.177 0 0 0 420.557 34.302 Q 422.949 34.302 424.609 33.325 Q 426.27 32.349 427.515 30.737 L 430.273 32.886 A 10.701 10.701 0 0 1 422.497 37.838 A 15.273 15.273 0 0 1 420.312 37.988 Q 414.941 37.988 411.572 34.46 A 11.864 11.864 0 0 1 408.549 28.565 A 17.238 17.238 0 0 1 408.203 25.024 Z M 514.575 25.024 L 514.575 24.194 A 17.608 17.608 0 0 1 514.999 20.256 A 14.34 14.34 0 0 1 516.077 17.175 A 12.173 12.173 0 0 1 518.563 13.7 A 11.296 11.296 0 0 1 520.276 12.341 A 10.558 10.558 0 0 1 526.123 10.596 A 12.524 12.524 0 0 1 529.529 11.034 A 9.107 9.107 0 0 1 534.131 13.989 Q 536.442 16.735 536.883 21.398 A 24.519 24.519 0 0 1 536.987 23.706 L 536.987 25.586 L 519.092 25.586 A 11.73 11.73 0 0 0 519.487 28.409 A 8.423 8.423 0 0 0 521.375 31.897 A 7.122 7.122 0 0 0 526.564 34.295 A 9.177 9.177 0 0 0 526.929 34.302 Q 529.321 34.302 530.981 33.325 Q 532.642 32.349 533.887 30.737 L 536.646 32.886 A 10.701 10.701 0 0 1 528.869 37.838 A 15.273 15.273 0 0 1 526.685 37.988 Q 521.313 37.988 517.944 34.46 A 11.864 11.864 0 0 1 514.921 28.565 A 17.238 17.238 0 0 1 514.575 25.024 Z M 12.329 37.5 L 0 37.5 L 0 1.953 L 11.621 1.953 A 22.395 22.395 0 0 1 14.804 2.164 Q 18.273 2.663 20.325 4.346 A 7.686 7.686 0 0 1 22.943 8.658 A 12.022 12.022 0 0 1 23.242 11.426 A 7.22 7.22 0 0 1 21.826 15.833 A 8.827 8.827 0 0 1 18.988 18.298 A 10.957 10.957 0 0 1 17.969 18.799 A 8.727 8.727 0 0 1 20.827 20.165 A 8.034 8.034 0 0 1 22.522 21.863 A 8.508 8.508 0 0 1 24.144 26.186 A 10.897 10.897 0 0 1 24.194 27.246 A 11.884 11.884 0 0 1 23.776 30.484 A 8.764 8.764 0 0 1 21.094 34.766 Q 17.993 37.5 12.329 37.5 Z M 455.2 11.084 L 461.914 31.372 L 468.457 11.084 L 473.071 11.084 L 463.599 37.5 L 460.156 37.5 L 450.586 11.084 L 455.2 11.084 Z M 43.188 10.938 L 43.188 15.137 Q 42.163 14.966 40.967 14.966 A 7.984 7.984 0 0 0 38.582 15.299 Q 36.053 16.088 34.937 18.75 L 34.937 37.5 L 30.42 37.5 L 30.42 11.084 L 34.814 11.084 L 34.888 14.136 A 8.007 8.007 0 0 1 36.815 11.979 Q 38.496 10.704 40.793 10.604 A 9.089 9.089 0 0 1 41.187 10.596 A 8.253 8.253 0 0 1 41.878 10.623 Q 42.594 10.683 43.059 10.878 A 2.136 2.136 0 0 1 43.188 10.938 Z M 448.608 10.938 L 448.608 15.137 Q 447.583 14.966 446.387 14.966 A 7.984 7.984 0 0 0 444.002 15.299 Q 441.473 16.088 440.356 18.75 L 440.356 37.5 L 435.84 37.5 L 435.84 11.084 L 440.234 11.084 L 440.308 14.136 A 8.007 8.007 0 0 1 442.235 11.979 Q 443.916 10.704 446.213 10.604 A 9.089 9.089 0 0 1 446.606 10.596 A 8.253 8.253 0 0 1 447.298 10.623 Q 448.013 10.683 448.479 10.878 A 2.136 2.136 0 0 1 448.608 10.938 Z M 195.483 11.084 L 195.483 37.5 L 190.967 37.5 L 190.967 11.084 L 195.483 11.084 Z M 482.324 11.084 L 482.324 37.5 L 477.808 37.5 L 477.808 11.084 L 482.324 11.084 Z M 343.774 18.579 L 343.774 30.005 Q 345.762 33.98 349.877 34.148 A 9.004 9.004 0 0 0 350.244 34.155 A 6.699 6.699 0 0 0 352.561 33.772 A 5.777 5.777 0 0 0 355.298 31.641 A 8.134 8.134 0 0 0 356.399 29.398 Q 357.082 27.299 357.104 24.269 A 27.859 27.859 0 0 0 357.104 24.072 A 19.27 19.27 0 0 0 356.93 21.393 Q 356.739 20.033 356.337 18.92 A 8.243 8.243 0 0 0 355.322 16.943 A 5.725 5.725 0 0 0 351.154 14.484 A 8.049 8.049 0 0 0 350.195 14.429 A 7.446 7.446 0 0 0 347.365 14.942 Q 345.041 15.888 343.774 18.579 Z M 117.822 30.298 L 117.822 18.164 A 7.638 7.638 0 0 0 116.091 15.966 Q 114.291 14.429 111.597 14.429 A 6.879 6.879 0 0 0 109.226 14.82 A 5.931 5.931 0 0 0 106.421 16.992 A 8.389 8.389 0 0 0 105.259 19.357 Q 104.893 20.493 104.72 21.884 A 21.971 21.971 0 0 0 104.565 24.585 A 17.565 17.565 0 0 0 104.765 27.323 Q 104.994 28.768 105.484 29.938 A 8.188 8.188 0 0 0 106.421 31.616 Q 108.276 34.155 111.548 34.155 A 7.447 7.447 0 0 0 114.337 33.657 Q 116.555 32.769 117.822 30.298 Z M 12.5 20.874 L 4.688 20.874 L 4.688 33.667 L 12.427 33.667 A 10.221 10.221 0 0 0 14.513 33.466 Q 16.349 33.084 17.59 31.97 A 5.573 5.573 0 0 0 19.377 28.631 A 8.103 8.103 0 0 0 19.482 27.295 A 8.431 8.431 0 0 0 19.105 24.657 Q 17.86 20.874 12.5 20.874 Z M 4.688 5.811 L 4.688 17.114 L 11.768 17.114 A 9.987 9.987 0 0 0 13.819 16.916 Q 15.124 16.642 16.126 15.99 A 5.864 5.864 0 0 0 16.687 15.576 A 5.028 5.028 0 0 0 18.508 11.965 A 7.058 7.058 0 0 0 18.53 11.401 A 7.908 7.908 0 0 0 18.38 9.803 Q 18.187 8.872 17.75 8.172 A 3.943 3.943 0 0 0 16.821 7.141 A 5.385 5.385 0 0 0 15.233 6.311 Q 13.773 5.814 11.653 5.811 A 18.426 18.426 0 0 0 11.621 5.811 L 4.688 5.811 Z M 61.963 30.103 L 61.963 24.683 L 58.423 24.683 A 21.199 21.199 0 0 0 55.602 24.853 Q 52.514 25.27 51.166 26.706 A 3.977 3.977 0 0 0 50.122 29.541 A 5.111 5.111 0 0 0 50.313 30.976 A 3.814 3.814 0 0 0 51.538 32.861 A 4.964 4.964 0 0 0 53.835 33.935 A 6.994 6.994 0 0 0 55.176 34.058 A 7.938 7.938 0 0 0 59.204 32.959 A 7.414 7.414 0 0 0 60.846 31.696 A 6.154 6.154 0 0 0 61.963 30.103 Z M 233.813 21.875 L 247.046 21.875 L 247.046 21.533 A 12.412 12.412 0 0 0 246.749 19.395 Q 246.471 18.213 245.953 17.285 A 6.279 6.279 0 0 0 245.19 16.199 Q 243.53 14.307 240.698 14.307 Q 237.964 14.307 236.108 16.296 A 7.872 7.872 0 0 0 234.571 18.773 Q 234.163 19.796 233.941 21.029 A 15.226 15.226 0 0 0 233.813 21.875 Z M 316.284 21.875 L 329.517 21.875 L 329.517 21.533 A 12.412 12.412 0 0 0 329.22 19.395 Q 328.942 18.213 328.424 17.285 A 6.279 6.279 0 0 0 327.661 16.199 Q 326.001 14.307 323.169 14.307 Q 320.435 14.307 318.579 16.296 A 7.872 7.872 0 0 0 317.042 18.773 Q 316.633 19.796 316.411 21.029 A 15.226 15.226 0 0 0 316.284 21.875 Z M 412.866 21.875 L 426.099 21.875 L 426.099 21.533 A 12.412 12.412 0 0 0 425.802 19.395 Q 425.524 18.213 425.006 17.285 A 6.279 6.279 0 0 0 424.243 16.199 Q 422.583 14.307 419.751 14.307 Q 417.017 14.307 415.161 16.296 A 7.872 7.872 0 0 0 413.624 18.773 Q 413.215 19.796 412.993 21.029 A 15.226 15.226 0 0 0 412.866 21.875 Z M 519.238 21.875 L 532.471 21.875 L 532.471 21.533 A 12.412 12.412 0 0 0 532.174 19.395 Q 531.896 18.213 531.378 17.285 A 6.279 6.279 0 0 0 530.615 16.199 Q 528.955 14.307 526.123 14.307 Q 523.389 14.307 521.533 16.296 A 7.872 7.872 0 0 0 519.996 18.773 Q 519.587 19.796 519.365 21.029 A 15.226 15.226 0 0 0 519.238 21.875 Z M 190.601 4.077 Q 190.601 2.979 191.272 2.222 A 2.141 2.141 0 0 1 192.322 1.583 Q 192.742 1.465 193.262 1.465 A 3.66 3.66 0 0 1 194.05 1.544 Q 194.555 1.656 194.929 1.923 A 2.075 2.075 0 0 1 195.264 2.222 A 2.632 2.632 0 0 1 195.943 3.908 A 3.408 3.408 0 0 1 195.947 4.077 A 2.904 2.904 0 0 1 195.807 4.998 A 2.455 2.455 0 0 1 195.264 5.908 A 2.182 2.182 0 0 1 194.261 6.51 Q 193.908 6.614 193.483 6.635 A 4.463 4.463 0 0 1 193.262 6.641 Q 191.943 6.641 191.272 5.908 A 2.534 2.534 0 0 1 190.614 4.379 A 3.36 3.36 0 0 1 190.601 4.077 Z M 477.441 4.077 Q 477.441 2.979 478.113 2.222 A 2.141 2.141 0 0 1 479.163 1.583 Q 479.582 1.465 480.103 1.465 A 3.66 3.66 0 0 1 480.891 1.544 Q 481.396 1.656 481.77 1.923 A 2.075 2.075 0 0 1 482.104 2.222 A 2.632 2.632 0 0 1 482.784 3.908 A 3.408 3.408 0 0 1 482.788 4.077 A 2.904 2.904 0 0 1 482.648 4.998 A 2.455 2.455 0 0 1 482.104 5.908 A 2.182 2.182 0 0 1 481.102 6.51 Q 480.749 6.614 480.324 6.635 A 4.463 4.463 0 0 1 480.103 6.641 Q 478.784 6.641 478.113 5.908 A 2.534 2.534 0 0 1 477.455 4.379 A 3.36 3.36 0 0 1 477.441 4.077 Z" vector-effect="non-scaling-stroke"/></g></svg>